G04 #@! TF.GenerationSoftware,KiCad,Pcbnew,6.0.9-8da3e8f707~116~ubuntu22.04.1*
G04 #@! TF.CreationDate,2022-12-04T14:32:31+01:00*
G04 #@! TF.ProjectId,pcb_15V,7063625f-3135-4562-9e6b-696361645f70,rev?*
G04 #@! TF.SameCoordinates,Original*
G04 #@! TF.FileFunction,Paste,Top*
G04 #@! TF.FilePolarity,Positive*
%FSLAX46Y46*%
G04 Gerber Fmt 4.6, Leading zero omitted, Abs format (unit mm)*
G04 Created by KiCad (PCBNEW 6.0.9-8da3e8f707~116~ubuntu22.04.1) date 2022-12-04 14:32:31*
%MOMM*%
%LPD*%
G01*
G04 APERTURE LIST*
G04 Aperture macros list*
%AMRoundRect*
0 Rectangle with rounded corners*
0 $1 Rounding radius*
0 $2 $3 $4 $5 $6 $7 $8 $9 X,Y pos of 4 corners*
0 Add a 4 corners polygon primitive as box body*
4,1,4,$2,$3,$4,$5,$6,$7,$8,$9,$2,$3,0*
0 Add four circle primitives for the rounded corners*
1,1,$1+$1,$2,$3*
1,1,$1+$1,$4,$5*
1,1,$1+$1,$6,$7*
1,1,$1+$1,$8,$9*
0 Add four rect primitives between the rounded corners*
20,1,$1+$1,$2,$3,$4,$5,0*
20,1,$1+$1,$4,$5,$6,$7,0*
20,1,$1+$1,$6,$7,$8,$9,0*
20,1,$1+$1,$8,$9,$2,$3,0*%
G04 Aperture macros list end*
%ADD10R,3.050000X2.750000*%
%ADD11R,2.200000X1.200000*%
%ADD12RoundRect,0.250000X-0.412500X-0.650000X0.412500X-0.650000X0.412500X0.650000X-0.412500X0.650000X0*%
%ADD13RoundRect,0.237500X0.300000X0.237500X-0.300000X0.237500X-0.300000X-0.237500X0.300000X-0.237500X0*%
%ADD14RoundRect,0.237500X-0.237500X0.300000X-0.237500X-0.300000X0.237500X-0.300000X0.237500X0.300000X0*%
%ADD15RoundRect,0.249998X4.550002X-3.650002X4.550002X3.650002X-4.550002X3.650002X-4.550002X-3.650002X0*%
%ADD16RoundRect,0.249999X2.450001X-0.737501X2.450001X0.737501X-2.450001X0.737501X-2.450001X-0.737501X0*%
%ADD17RoundRect,0.250000X1.825000X0.700000X-1.825000X0.700000X-1.825000X-0.700000X1.825000X-0.700000X0*%
%ADD18R,5.400000X2.900000*%
%ADD19RoundRect,0.237500X0.250000X0.237500X-0.250000X0.237500X-0.250000X-0.237500X0.250000X-0.237500X0*%
%ADD20RoundRect,0.237500X0.237500X-0.250000X0.237500X0.250000X-0.237500X0.250000X-0.237500X-0.250000X0*%
%ADD21R,1.310000X0.450000*%
G04 APERTURE END LIST*
G36*
X108866000Y-59820000D02*
G01*
X107766000Y-59820000D01*
X107766000Y-58520000D01*
X108866000Y-58520000D01*
X108866000Y-59820000D01*
G37*
G36*
X110166000Y-58320000D02*
G01*
X109066000Y-58320000D01*
X109066000Y-57020000D01*
X110166000Y-57020000D01*
X110166000Y-58320000D01*
G37*
G36*
X108866000Y-58320000D02*
G01*
X107766000Y-58320000D01*
X107766000Y-57020000D01*
X108866000Y-57020000D01*
X108866000Y-58320000D01*
G37*
G36*
X110166000Y-59820000D02*
G01*
X109066000Y-59820000D01*
X109066000Y-58520000D01*
X110166000Y-58520000D01*
X110166000Y-59820000D01*
G37*
D10*
X122901000Y-66295000D03*
X122901000Y-63245000D03*
X119551000Y-63245000D03*
X119551000Y-66295000D03*
D11*
X114926000Y-62490000D03*
X114926000Y-64770000D03*
X114926000Y-67050000D03*
D12*
X114515500Y-59690000D03*
X117640500Y-59690000D03*
D13*
X103732500Y-64008000D03*
X102007500Y-64008000D03*
D14*
X100076000Y-61621500D03*
X100076000Y-63346500D03*
D15*
X120650000Y-45620000D03*
X120650000Y-33120000D03*
D16*
X107950000Y-48357500D03*
X107950000Y-43082500D03*
D12*
X106095000Y-51054000D03*
X109220000Y-51054000D03*
X106095000Y-53848000D03*
X109220000Y-53848000D03*
D13*
X107796500Y-65381500D03*
X106071500Y-65381500D03*
D17*
X140635000Y-46990000D03*
X133685000Y-46990000D03*
X140635000Y-35560000D03*
X133685000Y-35560000D03*
D18*
X132334000Y-54740000D03*
X132334000Y-64640000D03*
D10*
X119551000Y-53339000D03*
X122901000Y-53339000D03*
X119551000Y-56389000D03*
X122901000Y-56389000D03*
D11*
X114926000Y-52584000D03*
X114926000Y-54864000D03*
X114926000Y-57144000D03*
D19*
X107846500Y-67413500D03*
X106021500Y-67413500D03*
D20*
X104140000Y-67310000D03*
X104140000Y-65485000D03*
D19*
X103782500Y-62230000D03*
X101957500Y-62230000D03*
X103782500Y-60452000D03*
X101957500Y-60452000D03*
D20*
X112014000Y-54252500D03*
X112014000Y-52427500D03*
D21*
X106121000Y-56470000D03*
X106121000Y-57120000D03*
X106121000Y-57770000D03*
X106121000Y-58420000D03*
X106121000Y-59070000D03*
X106121000Y-59720000D03*
X106121000Y-60370000D03*
X111811000Y-60370000D03*
X111811000Y-59720000D03*
X111811000Y-59070000D03*
X111811000Y-58420000D03*
X111811000Y-57770000D03*
X111811000Y-57120000D03*
X111811000Y-56470000D03*
M02*
