M48
; DRILL file {KiCad 6.0.9-8da3e8f707~116~ubuntu22.04.1} date So 04 Dez 2022 14:33:07 CET
; FORMAT={-:-/ absolute / metric / decimal}
; #@! TF.CreationDate,2022-12-04T14:33:07+01:00
; #@! TF.GenerationSoftware,Kicad,Pcbnew,6.0.9-8da3e8f707~116~ubuntu22.04.1
; #@! TF.FileFunction,Plated,1,2,PTH
FMAT,2
METRIC
; #@! TA.AperFunction,Plated,PTH,ViaDrill
T1C0.400
; #@! TA.AperFunction,Plated,PTH,ViaDrill
T2C1.000
; #@! TA.AperFunction,Plated,PTH,ComponentDrill
T3C1.800
; #@! TA.AperFunction,Plated,PTH,ComponentDrill
T4C4.500
%
G90
G05
T1
X86.868Y-59.436
X87.122Y-66.548
X91.44Y-59.69
X91.44Y-66.04
X92.71Y-69.85
X93.853Y-61.722
X95.25Y-66.04
X95.25Y-73.66
X97.79Y-59.69
X97.79Y-62.23
X97.79Y-69.85
X100.076Y-68.707
X100.33Y-66.04
X100.33Y-73.66
X102.87Y-69.85
X104.14Y-73.66
X105.41Y-29.21
X105.41Y-39.37
X107.95Y-26.67
X107.95Y-53.34
X107.95Y-54.61
X109.22Y-38.1
X110.49Y-29.21
X110.49Y-33.02
X111.633Y-66.548
X111.633Y-67.564
X111.76Y-38.1
X111.76Y-60.96
X112.776Y-67.056
X113.03Y-26.67
X113.03Y-31.75
X113.03Y-35.56
X113.03Y-39.37
X113.157Y-58.801
X114.3Y-29.21
X114.935Y-53.594
X116.967Y-66.548
X116.967Y-67.564
X118.11Y-26.67
X118.11Y-39.37
X123.19Y-26.67
X123.19Y-39.37
X128.27Y-26.67
X128.27Y-33.02
X129.54Y-35.56
X129.54Y-39.37
X130.81Y-30.48
X133.35Y-26.67
X133.35Y-33.02
X133.35Y-38.1
X133.35Y-43.18
X134.62Y-40.64
X134.62Y-44.45
T2
X108.966Y-58.42
T3
X89.408Y-52.705
X89.408Y-57.785
X89.408Y-62.865
T4
X97.79Y-34.29
X104.99Y-34.29
X148.59Y-53.34
X148.59Y-60.54
T0
M30
