G04 #@! TF.GenerationSoftware,KiCad,Pcbnew,6.0.9-8da3e8f707~116~ubuntu22.04.1*
G04 #@! TF.CreationDate,2022-12-04T14:53:19+01:00*
G04 #@! TF.ProjectId,robot_power,726f626f-745f-4706-9f77-65722e6b6963,rev?*
G04 #@! TF.SameCoordinates,Original*
G04 #@! TF.FileFunction,Legend,Top*
G04 #@! TF.FilePolarity,Positive*
%FSLAX46Y46*%
G04 Gerber Fmt 4.6, Leading zero omitted, Abs format (unit mm)*
G04 Created by KiCad (PCBNEW 6.0.9-8da3e8f707~116~ubuntu22.04.1) date 2022-12-04 14:53:19*
%MOMM*%
%LPD*%
G01*
G04 APERTURE LIST*
G04 Aperture macros list*
%AMRoundRect*
0 Rectangle with rounded corners*
0 $1 Rounding radius*
0 $2 $3 $4 $5 $6 $7 $8 $9 X,Y pos of 4 corners*
0 Add a 4 corners polygon primitive as box body*
4,1,4,$2,$3,$4,$5,$6,$7,$8,$9,$2,$3,0*
0 Add four circle primitives for the rounded corners*
1,1,$1+$1,$2,$3*
1,1,$1+$1,$4,$5*
1,1,$1+$1,$6,$7*
1,1,$1+$1,$8,$9*
0 Add four rect primitives between the rounded corners*
20,1,$1+$1,$2,$3,$4,$5,0*
20,1,$1+$1,$4,$5,$6,$7,0*
20,1,$1+$1,$6,$7,$8,$9,0*
20,1,$1+$1,$8,$9,$2,$3,0*%
G04 Aperture macros list end*
%ADD10C,0.300000*%
%ADD11C,0.150000*%
%ADD12C,0.000000*%
%ADD13C,0.120000*%
%ADD14C,0.100000*%
%ADD15R,3.000000X3.000000*%
%ADD16C,3.000000*%
%ADD17RoundRect,0.150000X-0.150000X0.725000X-0.150000X-0.725000X0.150000X-0.725000X0.150000X0.725000X0*%
%ADD18RoundRect,0.250000X-0.350000X-0.450000X0.350000X-0.450000X0.350000X0.450000X-0.350000X0.450000X0*%
%ADD19RoundRect,0.150000X0.587500X0.150000X-0.587500X0.150000X-0.587500X-0.150000X0.587500X-0.150000X0*%
%ADD20C,3.200000*%
%ADD21RoundRect,0.250000X0.337500X0.475000X-0.337500X0.475000X-0.337500X-0.475000X0.337500X-0.475000X0*%
%ADD22O,3.500000X3.500000*%
%ADD23R,1.905000X2.000000*%
%ADD24O,1.905000X2.000000*%
%ADD25RoundRect,1.500000X-1.500000X-1.500000X1.500000X-1.500000X1.500000X1.500000X-1.500000X1.500000X0*%
%ADD26C,6.000000*%
%ADD27RoundRect,0.250000X0.350000X0.450000X-0.350000X0.450000X-0.350000X-0.450000X0.350000X-0.450000X0*%
%ADD28RoundRect,1.500000X1.500000X1.500000X-1.500000X1.500000X-1.500000X-1.500000X1.500000X-1.500000X0*%
%ADD29R,3.500000X3.500000*%
%ADD30R,2.000000X1.905000*%
%ADD31O,2.000000X1.905000*%
%ADD32R,1.600000X1.600000*%
%ADD33C,1.600000*%
%ADD34C,1.900000*%
G04 APERTURE END LIST*
D10*
X264620238Y-129000571D02*
X262620238Y-130333904D01*
X264620238Y-130333904D02*
X262620238Y-129000571D01*
X262620238Y-132143428D02*
X262620238Y-131000571D01*
X262620238Y-131572000D02*
X264620238Y-131572000D01*
X264334523Y-131381523D01*
X264144047Y-131191047D01*
X264048809Y-131000571D01*
X264620238Y-132810095D02*
X264620238Y-134048190D01*
X263858333Y-133381523D01*
X263858333Y-133667238D01*
X263763095Y-133857714D01*
X263667857Y-133952952D01*
X263477380Y-134048190D01*
X263001190Y-134048190D01*
X262810714Y-133952952D01*
X262715476Y-133857714D01*
X262620238Y-133667238D01*
X262620238Y-133095809D01*
X262715476Y-132905333D01*
X262810714Y-132810095D01*
X228774761Y-105505047D02*
X230774761Y-104171714D01*
X228774761Y-104171714D02*
X230774761Y-105505047D01*
X228774761Y-102552666D02*
X228774761Y-102933619D01*
X228870000Y-103124095D01*
X228965238Y-103219333D01*
X229250952Y-103409809D01*
X229631904Y-103505047D01*
X230393809Y-103505047D01*
X230584285Y-103409809D01*
X230679523Y-103314571D01*
X230774761Y-103124095D01*
X230774761Y-102743142D01*
X230679523Y-102552666D01*
X230584285Y-102457428D01*
X230393809Y-102362190D01*
X229917619Y-102362190D01*
X229727142Y-102457428D01*
X229631904Y-102552666D01*
X229536666Y-102743142D01*
X229536666Y-103124095D01*
X229631904Y-103314571D01*
X229727142Y-103409809D01*
X229917619Y-103505047D01*
X246729047Y-54943238D02*
X245395714Y-52943238D01*
X245395714Y-54943238D02*
X246729047Y-52943238D01*
X244824285Y-54943238D02*
X243490952Y-54943238D01*
X244348095Y-52943238D01*
X254524476Y-60594761D02*
X254524476Y-58594761D01*
X255476857Y-60594761D02*
X255476857Y-58594761D01*
X256619714Y-60594761D01*
X256619714Y-58594761D01*
X257572095Y-60594761D02*
X257572095Y-58594761D01*
X258334000Y-58594761D01*
X258524476Y-58690000D01*
X258619714Y-58785238D01*
X258714952Y-58975714D01*
X258714952Y-59261428D01*
X258619714Y-59451904D01*
X258524476Y-59547142D01*
X258334000Y-59642380D01*
X257572095Y-59642380D01*
X259572095Y-58594761D02*
X259572095Y-60213809D01*
X259667333Y-60404285D01*
X259762571Y-60499523D01*
X259953047Y-60594761D01*
X260334000Y-60594761D01*
X260524476Y-60499523D01*
X260619714Y-60404285D01*
X260714952Y-60213809D01*
X260714952Y-58594761D01*
X261381619Y-58594761D02*
X262524476Y-58594761D01*
X261953047Y-60594761D02*
X261953047Y-58594761D01*
X263095904Y-60499523D02*
X263381619Y-60594761D01*
X263857809Y-60594761D01*
X264048285Y-60499523D01*
X264143523Y-60404285D01*
X264238761Y-60213809D01*
X264238761Y-60023333D01*
X264143523Y-59832857D01*
X264048285Y-59737619D01*
X263857809Y-59642380D01*
X263476857Y-59547142D01*
X263286380Y-59451904D01*
X263191142Y-59356666D01*
X263095904Y-59166190D01*
X263095904Y-58975714D01*
X263191142Y-58785238D01*
X263286380Y-58690000D01*
X263476857Y-58594761D01*
X263953047Y-58594761D01*
X264238761Y-58690000D01*
X165941238Y-73056952D02*
X163941238Y-74390285D01*
X165941238Y-74390285D02*
X163941238Y-73056952D01*
X163941238Y-75247428D02*
X163941238Y-75628380D01*
X164036476Y-75818857D01*
X164131714Y-75914095D01*
X164417428Y-76104571D01*
X164798380Y-76199809D01*
X165560285Y-76199809D01*
X165750761Y-76104571D01*
X165846000Y-76009333D01*
X165941238Y-75818857D01*
X165941238Y-75437904D01*
X165846000Y-75247428D01*
X165750761Y-75152190D01*
X165560285Y-75056952D01*
X165084095Y-75056952D01*
X164893619Y-75152190D01*
X164798380Y-75247428D01*
X164703142Y-75437904D01*
X164703142Y-75818857D01*
X164798380Y-76009333D01*
X164893619Y-76104571D01*
X165084095Y-76199809D01*
X217011047Y-56467238D02*
X215677714Y-54467238D01*
X215677714Y-56467238D02*
X217011047Y-54467238D01*
X214630095Y-55610095D02*
X214820571Y-55705333D01*
X214915809Y-55800571D01*
X215011047Y-55991047D01*
X215011047Y-56086285D01*
X214915809Y-56276761D01*
X214820571Y-56372000D01*
X214630095Y-56467238D01*
X214249142Y-56467238D01*
X214058666Y-56372000D01*
X213963428Y-56276761D01*
X213868190Y-56086285D01*
X213868190Y-55991047D01*
X213963428Y-55800571D01*
X214058666Y-55705333D01*
X214249142Y-55610095D01*
X214630095Y-55610095D01*
X214820571Y-55514857D01*
X214915809Y-55419619D01*
X215011047Y-55229142D01*
X215011047Y-54848190D01*
X214915809Y-54657714D01*
X214820571Y-54562476D01*
X214630095Y-54467238D01*
X214249142Y-54467238D01*
X214058666Y-54562476D01*
X213963428Y-54657714D01*
X213868190Y-54848190D01*
X213868190Y-55229142D01*
X213963428Y-55419619D01*
X214058666Y-55514857D01*
X214249142Y-55610095D01*
X269414761Y-86455047D02*
X271414761Y-85121714D01*
X269414761Y-85121714D02*
X271414761Y-86455047D01*
X269605238Y-84455047D02*
X269510000Y-84359809D01*
X269414761Y-84169333D01*
X269414761Y-83693142D01*
X269510000Y-83502666D01*
X269605238Y-83407428D01*
X269795714Y-83312190D01*
X269986190Y-83312190D01*
X270271904Y-83407428D01*
X271414761Y-84550285D01*
X271414761Y-83312190D01*
X212248952Y-139112761D02*
X213582285Y-141112761D01*
X213582285Y-139112761D02*
X212248952Y-141112761D01*
X215201333Y-139779428D02*
X215201333Y-141112761D01*
X214725142Y-139017523D02*
X214248952Y-140446095D01*
X215487047Y-140446095D01*
X165941238Y-89630571D02*
X163941238Y-90963904D01*
X165941238Y-90963904D02*
X163941238Y-89630571D01*
X163941238Y-92773428D02*
X163941238Y-91630571D01*
X163941238Y-92202000D02*
X165941238Y-92202000D01*
X165655523Y-92011523D01*
X165465047Y-91821047D01*
X165369809Y-91630571D01*
X165941238Y-94011523D02*
X165941238Y-94202000D01*
X165846000Y-94392476D01*
X165750761Y-94487714D01*
X165560285Y-94582952D01*
X165179333Y-94678190D01*
X164703142Y-94678190D01*
X164322190Y-94582952D01*
X164131714Y-94487714D01*
X164036476Y-94392476D01*
X163941238Y-94202000D01*
X163941238Y-94011523D01*
X164036476Y-93821047D01*
X164131714Y-93725809D01*
X164322190Y-93630571D01*
X164703142Y-93535333D01*
X165179333Y-93535333D01*
X165560285Y-93630571D01*
X165750761Y-93725809D01*
X165846000Y-93821047D01*
X165941238Y-94011523D01*
X195954071Y-89383428D02*
X197454071Y-89383428D01*
X196025500Y-89383428D02*
X195954071Y-89240571D01*
X195954071Y-88954857D01*
X196025500Y-88812000D01*
X196096928Y-88740571D01*
X196239785Y-88669142D01*
X196668357Y-88669142D01*
X196811214Y-88740571D01*
X196882642Y-88812000D01*
X196954071Y-88954857D01*
X196954071Y-89240571D01*
X196882642Y-89383428D01*
X196954071Y-87812000D02*
X196882642Y-87954857D01*
X196811214Y-88026285D01*
X196668357Y-88097714D01*
X196239785Y-88097714D01*
X196096928Y-88026285D01*
X196025500Y-87954857D01*
X195954071Y-87812000D01*
X195954071Y-87597714D01*
X196025500Y-87454857D01*
X196096928Y-87383428D01*
X196239785Y-87312000D01*
X196668357Y-87312000D01*
X196811214Y-87383428D01*
X196882642Y-87454857D01*
X196954071Y-87597714D01*
X196954071Y-87812000D01*
X195954071Y-86812000D02*
X196954071Y-86526285D01*
X196239785Y-86240571D01*
X196954071Y-85954857D01*
X195954071Y-85669142D01*
X196882642Y-84526285D02*
X196954071Y-84669142D01*
X196954071Y-84954857D01*
X196882642Y-85097714D01*
X196739785Y-85169142D01*
X196168357Y-85169142D01*
X196025500Y-85097714D01*
X195954071Y-84954857D01*
X195954071Y-84669142D01*
X196025500Y-84526285D01*
X196168357Y-84454857D01*
X196311214Y-84454857D01*
X196454071Y-85169142D01*
X196954071Y-83812000D02*
X195954071Y-83812000D01*
X196239785Y-83812000D02*
X196096928Y-83740571D01*
X196025500Y-83669142D01*
X195954071Y-83526285D01*
X195954071Y-83383428D01*
X196954071Y-82883428D02*
X195454071Y-82883428D01*
X196025500Y-82883428D02*
X195954071Y-82740571D01*
X195954071Y-82454857D01*
X196025500Y-82312000D01*
X196096928Y-82240571D01*
X196239785Y-82169142D01*
X196668357Y-82169142D01*
X196811214Y-82240571D01*
X196882642Y-82312000D01*
X196954071Y-82454857D01*
X196954071Y-82740571D01*
X196882642Y-82883428D01*
X196954071Y-81312000D02*
X196882642Y-81454857D01*
X196811214Y-81526285D01*
X196668357Y-81597714D01*
X196239785Y-81597714D01*
X196096928Y-81526285D01*
X196025500Y-81454857D01*
X195954071Y-81312000D01*
X195954071Y-81097714D01*
X196025500Y-80954857D01*
X196096928Y-80883428D01*
X196239785Y-80812000D01*
X196668357Y-80812000D01*
X196811214Y-80883428D01*
X196882642Y-80954857D01*
X196954071Y-81097714D01*
X196954071Y-81312000D01*
X196954071Y-79526285D02*
X196168357Y-79526285D01*
X196025500Y-79597714D01*
X195954071Y-79740571D01*
X195954071Y-80026285D01*
X196025500Y-80169142D01*
X196882642Y-79526285D02*
X196954071Y-79669142D01*
X196954071Y-80026285D01*
X196882642Y-80169142D01*
X196739785Y-80240571D01*
X196596928Y-80240571D01*
X196454071Y-80169142D01*
X196382642Y-80026285D01*
X196382642Y-79669142D01*
X196311214Y-79526285D01*
X196954071Y-78812000D02*
X195954071Y-78812000D01*
X196239785Y-78812000D02*
X196096928Y-78740571D01*
X196025500Y-78669142D01*
X195954071Y-78526285D01*
X195954071Y-78383428D01*
X196954071Y-77240571D02*
X195454071Y-77240571D01*
X196882642Y-77240571D02*
X196954071Y-77383428D01*
X196954071Y-77669142D01*
X196882642Y-77812000D01*
X196811214Y-77883428D01*
X196668357Y-77954857D01*
X196239785Y-77954857D01*
X196096928Y-77883428D01*
X196025500Y-77812000D01*
X195954071Y-77669142D01*
X195954071Y-77383428D01*
X196025500Y-77240571D01*
X199369071Y-87490571D02*
X198369071Y-87490571D01*
X198654785Y-87490571D02*
X198511928Y-87419142D01*
X198440500Y-87347714D01*
X198369071Y-87204857D01*
X198369071Y-87062000D01*
X199369071Y-86347714D02*
X199297642Y-86490571D01*
X199226214Y-86562000D01*
X199083357Y-86633428D01*
X198654785Y-86633428D01*
X198511928Y-86562000D01*
X198440500Y-86490571D01*
X198369071Y-86347714D01*
X198369071Y-86133428D01*
X198440500Y-85990571D01*
X198511928Y-85919142D01*
X198654785Y-85847714D01*
X199083357Y-85847714D01*
X199226214Y-85919142D01*
X199297642Y-85990571D01*
X199369071Y-86133428D01*
X199369071Y-86347714D01*
X199369071Y-85204857D02*
X197869071Y-85204857D01*
X198440500Y-85204857D02*
X198369071Y-85062000D01*
X198369071Y-84776285D01*
X198440500Y-84633428D01*
X198511928Y-84562000D01*
X198654785Y-84490571D01*
X199083357Y-84490571D01*
X199226214Y-84562000D01*
X199297642Y-84633428D01*
X199369071Y-84776285D01*
X199369071Y-85062000D01*
X199297642Y-85204857D01*
X197869071Y-83562000D02*
X197869071Y-83276285D01*
X197940500Y-83133428D01*
X198083357Y-82990571D01*
X198369071Y-82919142D01*
X198869071Y-82919142D01*
X199154785Y-82990571D01*
X199297642Y-83133428D01*
X199369071Y-83276285D01*
X199369071Y-83562000D01*
X199297642Y-83704857D01*
X199154785Y-83847714D01*
X198869071Y-83919142D01*
X198369071Y-83919142D01*
X198083357Y-83847714D01*
X197940500Y-83704857D01*
X197869071Y-83562000D01*
X197869071Y-82490571D02*
X197869071Y-81633428D01*
X199369071Y-82062000D02*
X197869071Y-82062000D01*
X197869071Y-81347714D02*
X197869071Y-80490571D01*
X199369071Y-80919142D02*
X197869071Y-80919142D01*
X197869071Y-79704857D02*
X197869071Y-79419142D01*
X197940500Y-79276285D01*
X198083357Y-79133428D01*
X198369071Y-79062000D01*
X198869071Y-79062000D01*
X199154785Y-79133428D01*
X199297642Y-79276285D01*
X199369071Y-79419142D01*
X199369071Y-79704857D01*
X199297642Y-79847714D01*
X199154785Y-79990571D01*
X198869071Y-80062000D01*
X198369071Y-80062000D01*
X198083357Y-79990571D01*
X197940500Y-79847714D01*
X197869071Y-79704857D01*
X200284071Y-92062000D02*
X201784071Y-91562000D01*
X200284071Y-91062000D01*
X200426928Y-90633428D02*
X200355500Y-90562000D01*
X200284071Y-90419142D01*
X200284071Y-90062000D01*
X200355500Y-89919142D01*
X200426928Y-89847714D01*
X200569785Y-89776285D01*
X200712642Y-89776285D01*
X200926928Y-89847714D01*
X201784071Y-90704857D01*
X201784071Y-89776285D01*
X201212642Y-87990571D02*
X201212642Y-86847714D01*
X201784071Y-84990571D02*
X200284071Y-84990571D01*
X201784071Y-84133428D01*
X200284071Y-84133428D01*
X201784071Y-83204857D02*
X201712642Y-83347714D01*
X201641214Y-83419142D01*
X201498357Y-83490571D01*
X201069785Y-83490571D01*
X200926928Y-83419142D01*
X200855500Y-83347714D01*
X200784071Y-83204857D01*
X200784071Y-82990571D01*
X200855500Y-82847714D01*
X200926928Y-82776285D01*
X201069785Y-82704857D01*
X201498357Y-82704857D01*
X201641214Y-82776285D01*
X201712642Y-82847714D01*
X201784071Y-82990571D01*
X201784071Y-83204857D01*
X200784071Y-82204857D02*
X201784071Y-81847714D01*
X200784071Y-81490571D01*
X200426928Y-79847714D02*
X200355500Y-79776285D01*
X200284071Y-79633428D01*
X200284071Y-79276285D01*
X200355500Y-79133428D01*
X200426928Y-79062000D01*
X200569785Y-78990571D01*
X200712642Y-78990571D01*
X200926928Y-79062000D01*
X201784071Y-79919142D01*
X201784071Y-78990571D01*
X200284071Y-78062000D02*
X200284071Y-77919142D01*
X200355500Y-77776285D01*
X200426928Y-77704857D01*
X200569785Y-77633428D01*
X200855500Y-77562000D01*
X201212642Y-77562000D01*
X201498357Y-77633428D01*
X201641214Y-77704857D01*
X201712642Y-77776285D01*
X201784071Y-77919142D01*
X201784071Y-78062000D01*
X201712642Y-78204857D01*
X201641214Y-78276285D01*
X201498357Y-78347714D01*
X201212642Y-78419142D01*
X200855500Y-78419142D01*
X200569785Y-78347714D01*
X200426928Y-78276285D01*
X200355500Y-78204857D01*
X200284071Y-78062000D01*
X200426928Y-76990571D02*
X200355500Y-76919142D01*
X200284071Y-76776285D01*
X200284071Y-76419142D01*
X200355500Y-76276285D01*
X200426928Y-76204857D01*
X200569785Y-76133428D01*
X200712642Y-76133428D01*
X200926928Y-76204857D01*
X201784071Y-77062000D01*
X201784071Y-76133428D01*
X200426928Y-75562000D02*
X200355500Y-75490571D01*
X200284071Y-75347714D01*
X200284071Y-74990571D01*
X200355500Y-74847714D01*
X200426928Y-74776285D01*
X200569785Y-74704857D01*
X200712642Y-74704857D01*
X200926928Y-74776285D01*
X201784071Y-75633428D01*
X201784071Y-74704857D01*
X204199071Y-84240571D02*
X204199071Y-84954857D01*
X202699071Y-84954857D01*
X203413357Y-83240571D02*
X203484785Y-83026285D01*
X203556214Y-82954857D01*
X203699071Y-82883428D01*
X203913357Y-82883428D01*
X204056214Y-82954857D01*
X204127642Y-83026285D01*
X204199071Y-83169142D01*
X204199071Y-83740571D01*
X202699071Y-83740571D01*
X202699071Y-83240571D01*
X202770500Y-83097714D01*
X202841928Y-83026285D01*
X202984785Y-82954857D01*
X203127642Y-82954857D01*
X203270500Y-83026285D01*
X203341928Y-83097714D01*
X203413357Y-83240571D01*
X203413357Y-83740571D01*
X203770500Y-82312000D02*
X203770500Y-81597714D01*
X204199071Y-82454857D02*
X202699071Y-81954857D01*
X204199071Y-81454857D01*
X166195238Y-106140571D02*
X164195238Y-107473904D01*
X166195238Y-107473904D02*
X164195238Y-106140571D01*
X164195238Y-109283428D02*
X164195238Y-108140571D01*
X164195238Y-108712000D02*
X166195238Y-108712000D01*
X165909523Y-108521523D01*
X165719047Y-108331047D01*
X165623809Y-108140571D01*
X164195238Y-111188190D02*
X164195238Y-110045333D01*
X164195238Y-110616761D02*
X166195238Y-110616761D01*
X165909523Y-110426285D01*
X165719047Y-110235809D01*
X165623809Y-110045333D01*
X166195238Y-121634571D02*
X164195238Y-122967904D01*
X166195238Y-122967904D02*
X164195238Y-121634571D01*
X164195238Y-124777428D02*
X164195238Y-123634571D01*
X164195238Y-124206000D02*
X166195238Y-124206000D01*
X165909523Y-124015523D01*
X165719047Y-123825047D01*
X165623809Y-123634571D01*
X166004761Y-125539333D02*
X166100000Y-125634571D01*
X166195238Y-125825047D01*
X166195238Y-126301238D01*
X166100000Y-126491714D01*
X166004761Y-126586952D01*
X165814285Y-126682190D01*
X165623809Y-126682190D01*
X165338095Y-126586952D01*
X164195238Y-125444095D01*
X164195238Y-126682190D01*
X269414761Y-99917047D02*
X271414761Y-98583714D01*
X269414761Y-98583714D02*
X271414761Y-99917047D01*
X269414761Y-98012285D02*
X269414761Y-96774190D01*
X270176666Y-97440857D01*
X270176666Y-97155142D01*
X270271904Y-96964666D01*
X270367142Y-96869428D01*
X270557619Y-96774190D01*
X271033809Y-96774190D01*
X271224285Y-96869428D01*
X271319523Y-96964666D01*
X271414761Y-97155142D01*
X271414761Y-97726571D01*
X271319523Y-97917047D01*
X271224285Y-98012285D01*
X211248761Y-128619047D02*
X213248761Y-127285714D01*
X211248761Y-127285714D02*
X213248761Y-128619047D01*
X211248761Y-125571428D02*
X211248761Y-126523809D01*
X212201142Y-126619047D01*
X212105904Y-126523809D01*
X212010666Y-126333333D01*
X212010666Y-125857142D01*
X212105904Y-125666666D01*
X212201142Y-125571428D01*
X212391619Y-125476190D01*
X212867809Y-125476190D01*
X213058285Y-125571428D01*
X213153523Y-125666666D01*
X213248761Y-125857142D01*
X213248761Y-126333333D01*
X213153523Y-126523809D01*
X213058285Y-126619047D01*
X172208571Y-58106571D02*
X172494285Y-58106571D01*
X172637142Y-58178000D01*
X172780000Y-58320857D01*
X172851428Y-58606571D01*
X172851428Y-59106571D01*
X172780000Y-59392285D01*
X172637142Y-59535142D01*
X172494285Y-59606571D01*
X172208571Y-59606571D01*
X172065714Y-59535142D01*
X171922857Y-59392285D01*
X171851428Y-59106571D01*
X171851428Y-58606571D01*
X171922857Y-58320857D01*
X172065714Y-58178000D01*
X172208571Y-58106571D01*
X173494285Y-58106571D02*
X173494285Y-59320857D01*
X173565714Y-59463714D01*
X173637142Y-59535142D01*
X173780000Y-59606571D01*
X174065714Y-59606571D01*
X174208571Y-59535142D01*
X174280000Y-59463714D01*
X174351428Y-59320857D01*
X174351428Y-58106571D01*
X174851428Y-58106571D02*
X175708571Y-58106571D01*
X175280000Y-59606571D02*
X175280000Y-58106571D01*
X176208571Y-59606571D02*
X176208571Y-58106571D01*
X176780000Y-58106571D01*
X176922857Y-58178000D01*
X176994285Y-58249428D01*
X177065714Y-58392285D01*
X177065714Y-58606571D01*
X176994285Y-58749428D01*
X176922857Y-58820857D01*
X176780000Y-58892285D01*
X176208571Y-58892285D01*
X177708571Y-58106571D02*
X177708571Y-59320857D01*
X177780000Y-59463714D01*
X177851428Y-59535142D01*
X177994285Y-59606571D01*
X178280000Y-59606571D01*
X178422857Y-59535142D01*
X178494285Y-59463714D01*
X178565714Y-59320857D01*
X178565714Y-58106571D01*
X179065714Y-58106571D02*
X179922857Y-58106571D01*
X179494285Y-59606571D02*
X179494285Y-58106571D01*
X180351428Y-59535142D02*
X180565714Y-59606571D01*
X180922857Y-59606571D01*
X181065714Y-59535142D01*
X181137142Y-59463714D01*
X181208571Y-59320857D01*
X181208571Y-59178000D01*
X181137142Y-59035142D01*
X181065714Y-58963714D01*
X180922857Y-58892285D01*
X180637142Y-58820857D01*
X180494285Y-58749428D01*
X180422857Y-58678000D01*
X180351428Y-58535142D01*
X180351428Y-58392285D01*
X180422857Y-58249428D01*
X180494285Y-58178000D01*
X180637142Y-58106571D01*
X180994285Y-58106571D01*
X181208571Y-58178000D01*
X269160761Y-73247047D02*
X271160761Y-71913714D01*
X269160761Y-71913714D02*
X271160761Y-73247047D01*
X271160761Y-70104190D02*
X271160761Y-71247047D01*
X271160761Y-70675619D02*
X269160761Y-70675619D01*
X269446476Y-70866095D01*
X269636952Y-71056571D01*
X269732190Y-71247047D01*
D11*
X262215380Y-136699523D02*
X262929666Y-136699523D01*
X263072523Y-136747142D01*
X263167761Y-136842380D01*
X263215380Y-136985238D01*
X263215380Y-137080476D01*
X263215380Y-135699523D02*
X263215380Y-136270952D01*
X263215380Y-135985238D02*
X262215380Y-135985238D01*
X262358238Y-136080476D01*
X262453476Y-136175714D01*
X262501095Y-136270952D01*
X263215380Y-134747142D02*
X263215380Y-135318571D01*
X263215380Y-135032857D02*
X262215380Y-135032857D01*
X262358238Y-135128095D01*
X262453476Y-135223333D01*
X262501095Y-135318571D01*
X192082380Y-78866904D02*
X192891904Y-78866904D01*
X192987142Y-78819285D01*
X193034761Y-78771666D01*
X193082380Y-78676428D01*
X193082380Y-78485952D01*
X193034761Y-78390714D01*
X192987142Y-78343095D01*
X192891904Y-78295476D01*
X192082380Y-78295476D01*
X192082380Y-77343095D02*
X192082380Y-77819285D01*
X192558571Y-77866904D01*
X192510952Y-77819285D01*
X192463333Y-77724047D01*
X192463333Y-77485952D01*
X192510952Y-77390714D01*
X192558571Y-77343095D01*
X192653809Y-77295476D01*
X192891904Y-77295476D01*
X192987142Y-77343095D01*
X193034761Y-77390714D01*
X193082380Y-77485952D01*
X193082380Y-77724047D01*
X193034761Y-77819285D01*
X192987142Y-77866904D01*
X211018333Y-53158380D02*
X210685000Y-52682190D01*
X210446904Y-53158380D02*
X210446904Y-52158380D01*
X210827857Y-52158380D01*
X210923095Y-52206000D01*
X210970714Y-52253619D01*
X211018333Y-52348857D01*
X211018333Y-52491714D01*
X210970714Y-52586952D01*
X210923095Y-52634571D01*
X210827857Y-52682190D01*
X210446904Y-52682190D01*
X211589761Y-52586952D02*
X211494523Y-52539333D01*
X211446904Y-52491714D01*
X211399285Y-52396476D01*
X211399285Y-52348857D01*
X211446904Y-52253619D01*
X211494523Y-52206000D01*
X211589761Y-52158380D01*
X211780238Y-52158380D01*
X211875476Y-52206000D01*
X211923095Y-52253619D01*
X211970714Y-52348857D01*
X211970714Y-52396476D01*
X211923095Y-52491714D01*
X211875476Y-52539333D01*
X211780238Y-52586952D01*
X211589761Y-52586952D01*
X211494523Y-52634571D01*
X211446904Y-52682190D01*
X211399285Y-52777428D01*
X211399285Y-52967904D01*
X211446904Y-53063142D01*
X211494523Y-53110761D01*
X211589761Y-53158380D01*
X211780238Y-53158380D01*
X211875476Y-53110761D01*
X211923095Y-53063142D01*
X211970714Y-52967904D01*
X211970714Y-52777428D01*
X211923095Y-52682190D01*
X211875476Y-52634571D01*
X211780238Y-52586952D01*
X258976904Y-122867380D02*
X258976904Y-121867380D01*
X259215000Y-121867380D01*
X259357857Y-121915000D01*
X259453095Y-122010238D01*
X259500714Y-122105476D01*
X259548333Y-122295952D01*
X259548333Y-122438809D01*
X259500714Y-122629285D01*
X259453095Y-122724523D01*
X259357857Y-122819761D01*
X259215000Y-122867380D01*
X258976904Y-122867380D01*
X260119761Y-122295952D02*
X260024523Y-122248333D01*
X259976904Y-122200714D01*
X259929285Y-122105476D01*
X259929285Y-122057857D01*
X259976904Y-121962619D01*
X260024523Y-121915000D01*
X260119761Y-121867380D01*
X260310238Y-121867380D01*
X260405476Y-121915000D01*
X260453095Y-121962619D01*
X260500714Y-122057857D01*
X260500714Y-122105476D01*
X260453095Y-122200714D01*
X260405476Y-122248333D01*
X260310238Y-122295952D01*
X260119761Y-122295952D01*
X260024523Y-122343571D01*
X259976904Y-122391190D01*
X259929285Y-122486428D01*
X259929285Y-122676904D01*
X259976904Y-122772142D01*
X260024523Y-122819761D01*
X260119761Y-122867380D01*
X260310238Y-122867380D01*
X260405476Y-122819761D01*
X260453095Y-122772142D01*
X260500714Y-122676904D01*
X260500714Y-122486428D01*
X260453095Y-122391190D01*
X260405476Y-122343571D01*
X260310238Y-122295952D01*
X163766666Y-134682380D02*
X163433333Y-134206190D01*
X163195238Y-134682380D02*
X163195238Y-133682380D01*
X163576190Y-133682380D01*
X163671428Y-133730000D01*
X163719047Y-133777619D01*
X163766666Y-133872857D01*
X163766666Y-134015714D01*
X163719047Y-134110952D01*
X163671428Y-134158571D01*
X163576190Y-134206190D01*
X163195238Y-134206190D01*
X164195238Y-134158571D02*
X164528571Y-134158571D01*
X164671428Y-134682380D02*
X164195238Y-134682380D01*
X164195238Y-133682380D01*
X164671428Y-133682380D01*
X165433333Y-134158571D02*
X165100000Y-134158571D01*
X165100000Y-134682380D02*
X165100000Y-133682380D01*
X165576190Y-133682380D01*
X166100000Y-133682380D02*
X166100000Y-133920476D01*
X165861904Y-133825238D02*
X166100000Y-133920476D01*
X166338095Y-133825238D01*
X165957142Y-134110952D02*
X166100000Y-133920476D01*
X166242857Y-134110952D01*
X166861904Y-133682380D02*
X166861904Y-133920476D01*
X166623809Y-133825238D02*
X166861904Y-133920476D01*
X167100000Y-133825238D01*
X166719047Y-134110952D02*
X166861904Y-133920476D01*
X167004761Y-134110952D01*
X187136833Y-107320142D02*
X187089214Y-107367761D01*
X186946357Y-107415380D01*
X186851119Y-107415380D01*
X186708261Y-107367761D01*
X186613023Y-107272523D01*
X186565404Y-107177285D01*
X186517785Y-106986809D01*
X186517785Y-106843952D01*
X186565404Y-106653476D01*
X186613023Y-106558238D01*
X186708261Y-106463000D01*
X186851119Y-106415380D01*
X186946357Y-106415380D01*
X187089214Y-106463000D01*
X187136833Y-106510619D01*
X187993976Y-106748714D02*
X187993976Y-107415380D01*
X187755880Y-106367761D02*
X187517785Y-107082047D01*
X188136833Y-107082047D01*
X224988333Y-69922380D02*
X224655000Y-69446190D01*
X224416904Y-69922380D02*
X224416904Y-68922380D01*
X224797857Y-68922380D01*
X224893095Y-68970000D01*
X224940714Y-69017619D01*
X224988333Y-69112857D01*
X224988333Y-69255714D01*
X224940714Y-69350952D01*
X224893095Y-69398571D01*
X224797857Y-69446190D01*
X224416904Y-69446190D01*
X225464523Y-69922380D02*
X225655000Y-69922380D01*
X225750238Y-69874761D01*
X225797857Y-69827142D01*
X225893095Y-69684285D01*
X225940714Y-69493809D01*
X225940714Y-69112857D01*
X225893095Y-69017619D01*
X225845476Y-68970000D01*
X225750238Y-68922380D01*
X225559761Y-68922380D01*
X225464523Y-68970000D01*
X225416904Y-69017619D01*
X225369285Y-69112857D01*
X225369285Y-69350952D01*
X225416904Y-69446190D01*
X225464523Y-69493809D01*
X225559761Y-69541428D01*
X225750238Y-69541428D01*
X225845476Y-69493809D01*
X225893095Y-69446190D01*
X225940714Y-69350952D01*
X210089761Y-111592619D02*
X209994523Y-111545000D01*
X209899285Y-111449761D01*
X209756428Y-111306904D01*
X209661190Y-111259285D01*
X209565952Y-111259285D01*
X209613571Y-111497380D02*
X209518333Y-111449761D01*
X209423095Y-111354523D01*
X209375476Y-111164047D01*
X209375476Y-110830714D01*
X209423095Y-110640238D01*
X209518333Y-110545000D01*
X209613571Y-110497380D01*
X209804047Y-110497380D01*
X209899285Y-110545000D01*
X209994523Y-110640238D01*
X210042142Y-110830714D01*
X210042142Y-111164047D01*
X209994523Y-111354523D01*
X209899285Y-111449761D01*
X209804047Y-111497380D01*
X209613571Y-111497380D01*
X210994523Y-111497380D02*
X210423095Y-111497380D01*
X210708809Y-111497380D02*
X210708809Y-110497380D01*
X210613571Y-110640238D01*
X210518333Y-110735476D01*
X210423095Y-110783095D01*
X170005476Y-78607380D02*
X170005476Y-79321666D01*
X169957857Y-79464523D01*
X169862619Y-79559761D01*
X169719761Y-79607380D01*
X169624523Y-79607380D01*
X171005476Y-79607380D02*
X170434047Y-79607380D01*
X170719761Y-79607380D02*
X170719761Y-78607380D01*
X170624523Y-78750238D01*
X170529285Y-78845476D01*
X170434047Y-78893095D01*
X171624523Y-78607380D02*
X171719761Y-78607380D01*
X171815000Y-78655000D01*
X171862619Y-78702619D01*
X171910238Y-78797857D01*
X171957857Y-78988333D01*
X171957857Y-79226428D01*
X171910238Y-79416904D01*
X171862619Y-79512142D01*
X171815000Y-79559761D01*
X171719761Y-79607380D01*
X171624523Y-79607380D01*
X171529285Y-79559761D01*
X171481666Y-79512142D01*
X171434047Y-79416904D01*
X171386428Y-79226428D01*
X171386428Y-78988333D01*
X171434047Y-78797857D01*
X171481666Y-78702619D01*
X171529285Y-78655000D01*
X171624523Y-78607380D01*
X250642333Y-88462380D02*
X250309000Y-87986190D01*
X250070904Y-88462380D02*
X250070904Y-87462380D01*
X250451857Y-87462380D01*
X250547095Y-87510000D01*
X250594714Y-87557619D01*
X250642333Y-87652857D01*
X250642333Y-87795714D01*
X250594714Y-87890952D01*
X250547095Y-87938571D01*
X250451857Y-87986190D01*
X250070904Y-87986190D01*
X251594714Y-88462380D02*
X251023285Y-88462380D01*
X251309000Y-88462380D02*
X251309000Y-87462380D01*
X251213761Y-87605238D01*
X251118523Y-87700476D01*
X251023285Y-87748095D01*
X261766666Y-97462380D02*
X261766666Y-98176666D01*
X261719047Y-98319523D01*
X261623809Y-98414761D01*
X261480952Y-98462380D01*
X261385714Y-98462380D01*
X262766666Y-98462380D02*
X262195238Y-98462380D01*
X262480952Y-98462380D02*
X262480952Y-97462380D01*
X262385714Y-97605238D01*
X262290476Y-97700476D01*
X262195238Y-97748095D01*
X187390833Y-71887142D02*
X187343214Y-71934761D01*
X187200357Y-71982380D01*
X187105119Y-71982380D01*
X186962261Y-71934761D01*
X186867023Y-71839523D01*
X186819404Y-71744285D01*
X186771785Y-71553809D01*
X186771785Y-71410952D01*
X186819404Y-71220476D01*
X186867023Y-71125238D01*
X186962261Y-71030000D01*
X187105119Y-70982380D01*
X187200357Y-70982380D01*
X187343214Y-71030000D01*
X187390833Y-71077619D01*
X187724166Y-70982380D02*
X188343214Y-70982380D01*
X188009880Y-71363333D01*
X188152738Y-71363333D01*
X188247976Y-71410952D01*
X188295595Y-71458571D01*
X188343214Y-71553809D01*
X188343214Y-71791904D01*
X188295595Y-71887142D01*
X188247976Y-71934761D01*
X188152738Y-71982380D01*
X187867023Y-71982380D01*
X187771785Y-71934761D01*
X187724166Y-71887142D01*
X217257380Y-104473333D02*
X217971666Y-104473333D01*
X218114523Y-104520952D01*
X218209761Y-104616190D01*
X218257380Y-104759047D01*
X218257380Y-104854285D01*
X217590714Y-103568571D02*
X218257380Y-103568571D01*
X217209761Y-103806666D02*
X217924047Y-104044761D01*
X217924047Y-103425714D01*
X245324333Y-75889380D02*
X244991000Y-75413190D01*
X244752904Y-75889380D02*
X244752904Y-74889380D01*
X245133857Y-74889380D01*
X245229095Y-74937000D01*
X245276714Y-74984619D01*
X245324333Y-75079857D01*
X245324333Y-75222714D01*
X245276714Y-75317952D01*
X245229095Y-75365571D01*
X245133857Y-75413190D01*
X244752904Y-75413190D01*
X246181476Y-75222714D02*
X246181476Y-75889380D01*
X245943380Y-74841761D02*
X245705285Y-75556047D01*
X246324333Y-75556047D01*
X187433833Y-89794142D02*
X187386214Y-89841761D01*
X187243357Y-89889380D01*
X187148119Y-89889380D01*
X187005261Y-89841761D01*
X186910023Y-89746523D01*
X186862404Y-89651285D01*
X186814785Y-89460809D01*
X186814785Y-89317952D01*
X186862404Y-89127476D01*
X186910023Y-89032238D01*
X187005261Y-88937000D01*
X187148119Y-88889380D01*
X187243357Y-88889380D01*
X187386214Y-88937000D01*
X187433833Y-88984619D01*
X188005261Y-89317952D02*
X187910023Y-89270333D01*
X187862404Y-89222714D01*
X187814785Y-89127476D01*
X187814785Y-89079857D01*
X187862404Y-88984619D01*
X187910023Y-88937000D01*
X188005261Y-88889380D01*
X188195738Y-88889380D01*
X188290976Y-88937000D01*
X188338595Y-88984619D01*
X188386214Y-89079857D01*
X188386214Y-89127476D01*
X188338595Y-89222714D01*
X188290976Y-89270333D01*
X188195738Y-89317952D01*
X188005261Y-89317952D01*
X187910023Y-89365571D01*
X187862404Y-89413190D01*
X187814785Y-89508428D01*
X187814785Y-89698904D01*
X187862404Y-89794142D01*
X187910023Y-89841761D01*
X188005261Y-89889380D01*
X188195738Y-89889380D01*
X188290976Y-89841761D01*
X188338595Y-89794142D01*
X188386214Y-89698904D01*
X188386214Y-89508428D01*
X188338595Y-89413190D01*
X188290976Y-89365571D01*
X188195738Y-89317952D01*
X187285333Y-120401142D02*
X187237714Y-120448761D01*
X187094857Y-120496380D01*
X186999619Y-120496380D01*
X186856761Y-120448761D01*
X186761523Y-120353523D01*
X186713904Y-120258285D01*
X186666285Y-120067809D01*
X186666285Y-119924952D01*
X186713904Y-119734476D01*
X186761523Y-119639238D01*
X186856761Y-119544000D01*
X186999619Y-119496380D01*
X187094857Y-119496380D01*
X187237714Y-119544000D01*
X187285333Y-119591619D01*
X187618666Y-119496380D02*
X188285333Y-119496380D01*
X187856761Y-120496380D01*
X169354666Y-54808380D02*
X169021333Y-54332190D01*
X168783238Y-54808380D02*
X168783238Y-53808380D01*
X169164190Y-53808380D01*
X169259428Y-53856000D01*
X169307047Y-53903619D01*
X169354666Y-53998857D01*
X169354666Y-54141714D01*
X169307047Y-54236952D01*
X169259428Y-54284571D01*
X169164190Y-54332190D01*
X168783238Y-54332190D01*
X169783238Y-54284571D02*
X170116571Y-54284571D01*
X170259428Y-54808380D02*
X169783238Y-54808380D01*
X169783238Y-53808380D01*
X170259428Y-53808380D01*
X171021333Y-54284571D02*
X170688000Y-54284571D01*
X170688000Y-54808380D02*
X170688000Y-53808380D01*
X171164190Y-53808380D01*
X171688000Y-53808380D02*
X171688000Y-54046476D01*
X171449904Y-53951238D02*
X171688000Y-54046476D01*
X171926095Y-53951238D01*
X171545142Y-54236952D02*
X171688000Y-54046476D01*
X171830857Y-54236952D01*
X172449904Y-53808380D02*
X172449904Y-54046476D01*
X172211809Y-53951238D02*
X172449904Y-54046476D01*
X172688000Y-53951238D01*
X172307047Y-54236952D02*
X172449904Y-54046476D01*
X172592761Y-54236952D01*
X224059761Y-97812619D02*
X223964523Y-97765000D01*
X223869285Y-97669761D01*
X223726428Y-97526904D01*
X223631190Y-97479285D01*
X223535952Y-97479285D01*
X223583571Y-97717380D02*
X223488333Y-97669761D01*
X223393095Y-97574523D01*
X223345476Y-97384047D01*
X223345476Y-97050714D01*
X223393095Y-96860238D01*
X223488333Y-96765000D01*
X223583571Y-96717380D01*
X223774047Y-96717380D01*
X223869285Y-96765000D01*
X223964523Y-96860238D01*
X224012142Y-97050714D01*
X224012142Y-97384047D01*
X223964523Y-97574523D01*
X223869285Y-97669761D01*
X223774047Y-97717380D01*
X223583571Y-97717380D01*
X224393095Y-96812619D02*
X224440714Y-96765000D01*
X224535952Y-96717380D01*
X224774047Y-96717380D01*
X224869285Y-96765000D01*
X224916904Y-96812619D01*
X224964523Y-96907857D01*
X224964523Y-97003095D01*
X224916904Y-97145952D01*
X224345476Y-97717380D01*
X224964523Y-97717380D01*
X242101904Y-62642380D02*
X242101904Y-61642380D01*
X242340000Y-61642380D01*
X242482857Y-61690000D01*
X242578095Y-61785238D01*
X242625714Y-61880476D01*
X242673333Y-62070952D01*
X242673333Y-62213809D01*
X242625714Y-62404285D01*
X242578095Y-62499523D01*
X242482857Y-62594761D01*
X242340000Y-62642380D01*
X242101904Y-62642380D01*
X243006666Y-61642380D02*
X243625714Y-61642380D01*
X243292380Y-62023333D01*
X243435238Y-62023333D01*
X243530476Y-62070952D01*
X243578095Y-62118571D01*
X243625714Y-62213809D01*
X243625714Y-62451904D01*
X243578095Y-62547142D01*
X243530476Y-62594761D01*
X243435238Y-62642380D01*
X243149523Y-62642380D01*
X243054285Y-62594761D01*
X243006666Y-62547142D01*
X236228095Y-65162380D02*
X236228095Y-64162380D01*
X236799523Y-65162380D02*
X236370952Y-64590952D01*
X236799523Y-64162380D02*
X236228095Y-64733809D01*
X252102904Y-73009380D02*
X252102904Y-72009380D01*
X252341000Y-72009380D01*
X252483857Y-72057000D01*
X252579095Y-72152238D01*
X252626714Y-72247476D01*
X252674333Y-72437952D01*
X252674333Y-72580809D01*
X252626714Y-72771285D01*
X252579095Y-72866523D01*
X252483857Y-72961761D01*
X252341000Y-73009380D01*
X252102904Y-73009380D01*
X253055285Y-72104619D02*
X253102904Y-72057000D01*
X253198142Y-72009380D01*
X253436238Y-72009380D01*
X253531476Y-72057000D01*
X253579095Y-72104619D01*
X253626714Y-72199857D01*
X253626714Y-72295095D01*
X253579095Y-72437952D01*
X253007666Y-73009380D01*
X253626714Y-73009380D01*
X236228095Y-77862380D02*
X236228095Y-76862380D01*
X236799523Y-77862380D02*
X236370952Y-77290952D01*
X236799523Y-76862380D02*
X236228095Y-77433809D01*
X258976904Y-117787380D02*
X258976904Y-116787380D01*
X259215000Y-116787380D01*
X259357857Y-116835000D01*
X259453095Y-116930238D01*
X259500714Y-117025476D01*
X259548333Y-117215952D01*
X259548333Y-117358809D01*
X259500714Y-117549285D01*
X259453095Y-117644523D01*
X259357857Y-117739761D01*
X259215000Y-117787380D01*
X258976904Y-117787380D01*
X259881666Y-116787380D02*
X260548333Y-116787380D01*
X260119761Y-117787380D01*
X259279404Y-127706380D02*
X259279404Y-126706380D01*
X259517500Y-126706380D01*
X259660357Y-126754000D01*
X259755595Y-126849238D01*
X259803214Y-126944476D01*
X259850833Y-127134952D01*
X259850833Y-127277809D01*
X259803214Y-127468285D01*
X259755595Y-127563523D01*
X259660357Y-127658761D01*
X259517500Y-127706380D01*
X259279404Y-127706380D01*
X260707976Y-126706380D02*
X260517500Y-126706380D01*
X260422261Y-126754000D01*
X260374642Y-126801619D01*
X260279404Y-126944476D01*
X260231785Y-127134952D01*
X260231785Y-127515904D01*
X260279404Y-127611142D01*
X260327023Y-127658761D01*
X260422261Y-127706380D01*
X260612738Y-127706380D01*
X260707976Y-127658761D01*
X260755595Y-127611142D01*
X260803214Y-127515904D01*
X260803214Y-127277809D01*
X260755595Y-127182571D01*
X260707976Y-127134952D01*
X260612738Y-127087333D01*
X260422261Y-127087333D01*
X260327023Y-127134952D01*
X260279404Y-127182571D01*
X260231785Y-127277809D01*
X259087380Y-107441904D02*
X259896904Y-107441904D01*
X259992142Y-107394285D01*
X260039761Y-107346666D01*
X260087380Y-107251428D01*
X260087380Y-107060952D01*
X260039761Y-106965714D01*
X259992142Y-106918095D01*
X259896904Y-106870476D01*
X259087380Y-106870476D01*
X260087380Y-105870476D02*
X260087380Y-106441904D01*
X260087380Y-106156190D02*
X259087380Y-106156190D01*
X259230238Y-106251428D01*
X259325476Y-106346666D01*
X259373095Y-106441904D01*
X191955380Y-96900904D02*
X192764904Y-96900904D01*
X192860142Y-96853285D01*
X192907761Y-96805666D01*
X192955380Y-96710428D01*
X192955380Y-96519952D01*
X192907761Y-96424714D01*
X192860142Y-96377095D01*
X192764904Y-96329476D01*
X191955380Y-96329476D01*
X192050619Y-95900904D02*
X192003000Y-95853285D01*
X191955380Y-95758047D01*
X191955380Y-95519952D01*
X192003000Y-95424714D01*
X192050619Y-95377095D01*
X192145857Y-95329476D01*
X192241095Y-95329476D01*
X192383952Y-95377095D01*
X192955380Y-95948523D01*
X192955380Y-95329476D01*
X250658333Y-62808380D02*
X250325000Y-62332190D01*
X250086904Y-62808380D02*
X250086904Y-61808380D01*
X250467857Y-61808380D01*
X250563095Y-61856000D01*
X250610714Y-61903619D01*
X250658333Y-61998857D01*
X250658333Y-62141714D01*
X250610714Y-62236952D01*
X250563095Y-62284571D01*
X250467857Y-62332190D01*
X250086904Y-62332190D01*
X251563095Y-61808380D02*
X251086904Y-61808380D01*
X251039285Y-62284571D01*
X251086904Y-62236952D01*
X251182142Y-62189333D01*
X251420238Y-62189333D01*
X251515476Y-62236952D01*
X251563095Y-62284571D01*
X251610714Y-62379809D01*
X251610714Y-62617904D01*
X251563095Y-62713142D01*
X251515476Y-62760761D01*
X251420238Y-62808380D01*
X251182142Y-62808380D01*
X251086904Y-62760761D01*
X251039285Y-62713142D01*
X170691666Y-110589880D02*
X170691666Y-111304166D01*
X170644047Y-111447023D01*
X170548809Y-111542261D01*
X170405952Y-111589880D01*
X170310714Y-111589880D01*
X171072619Y-110589880D02*
X171739285Y-110589880D01*
X171310714Y-111589880D01*
X245578333Y-62808380D02*
X245245000Y-62332190D01*
X245006904Y-62808380D02*
X245006904Y-61808380D01*
X245387857Y-61808380D01*
X245483095Y-61856000D01*
X245530714Y-61903619D01*
X245578333Y-61998857D01*
X245578333Y-62141714D01*
X245530714Y-62236952D01*
X245483095Y-62284571D01*
X245387857Y-62332190D01*
X245006904Y-62332190D01*
X246435476Y-61808380D02*
X246245000Y-61808380D01*
X246149761Y-61856000D01*
X246102142Y-61903619D01*
X246006904Y-62046476D01*
X245959285Y-62236952D01*
X245959285Y-62617904D01*
X246006904Y-62713142D01*
X246054523Y-62760761D01*
X246149761Y-62808380D01*
X246340238Y-62808380D01*
X246435476Y-62760761D01*
X246483095Y-62713142D01*
X246530714Y-62617904D01*
X246530714Y-62379809D01*
X246483095Y-62284571D01*
X246435476Y-62236952D01*
X246340238Y-62189333D01*
X246149761Y-62189333D01*
X246054523Y-62236952D01*
X246006904Y-62284571D01*
X245959285Y-62379809D01*
X261976666Y-84762380D02*
X261976666Y-85476666D01*
X261929047Y-85619523D01*
X261833809Y-85714761D01*
X261690952Y-85762380D01*
X261595714Y-85762380D01*
X262405238Y-84857619D02*
X262452857Y-84810000D01*
X262548095Y-84762380D01*
X262786190Y-84762380D01*
X262881428Y-84810000D01*
X262929047Y-84857619D01*
X262976666Y-84952857D01*
X262976666Y-85048095D01*
X262929047Y-85190952D01*
X262357619Y-85762380D01*
X262976666Y-85762380D01*
X210089761Y-79547619D02*
X209994523Y-79500000D01*
X209899285Y-79404761D01*
X209756428Y-79261904D01*
X209661190Y-79214285D01*
X209565952Y-79214285D01*
X209613571Y-79452380D02*
X209518333Y-79404761D01*
X209423095Y-79309523D01*
X209375476Y-79119047D01*
X209375476Y-78785714D01*
X209423095Y-78595238D01*
X209518333Y-78500000D01*
X209613571Y-78452380D01*
X209804047Y-78452380D01*
X209899285Y-78500000D01*
X209994523Y-78595238D01*
X210042142Y-78785714D01*
X210042142Y-79119047D01*
X209994523Y-79309523D01*
X209899285Y-79404761D01*
X209804047Y-79452380D01*
X209613571Y-79452380D01*
X210375476Y-78452380D02*
X210994523Y-78452380D01*
X210661190Y-78833333D01*
X210804047Y-78833333D01*
X210899285Y-78880952D01*
X210946904Y-78928571D01*
X210994523Y-79023809D01*
X210994523Y-79261904D01*
X210946904Y-79357142D01*
X210899285Y-79404761D01*
X210804047Y-79452380D01*
X210518333Y-79452380D01*
X210423095Y-79404761D01*
X210375476Y-79357142D01*
X187179833Y-103764142D02*
X187132214Y-103811761D01*
X186989357Y-103859380D01*
X186894119Y-103859380D01*
X186751261Y-103811761D01*
X186656023Y-103716523D01*
X186608404Y-103621285D01*
X186560785Y-103430809D01*
X186560785Y-103287952D01*
X186608404Y-103097476D01*
X186656023Y-103002238D01*
X186751261Y-102907000D01*
X186894119Y-102859380D01*
X186989357Y-102859380D01*
X187132214Y-102907000D01*
X187179833Y-102954619D01*
X188036976Y-102859380D02*
X187846500Y-102859380D01*
X187751261Y-102907000D01*
X187703642Y-102954619D01*
X187608404Y-103097476D01*
X187560785Y-103287952D01*
X187560785Y-103668904D01*
X187608404Y-103764142D01*
X187656023Y-103811761D01*
X187751261Y-103859380D01*
X187941738Y-103859380D01*
X188036976Y-103811761D01*
X188084595Y-103764142D01*
X188132214Y-103668904D01*
X188132214Y-103430809D01*
X188084595Y-103335571D01*
X188036976Y-103287952D01*
X187941738Y-103240333D01*
X187751261Y-103240333D01*
X187656023Y-103287952D01*
X187608404Y-103335571D01*
X187560785Y-103430809D01*
X222551666Y-61047380D02*
X222551666Y-61761666D01*
X222504047Y-61904523D01*
X222408809Y-61999761D01*
X222265952Y-62047380D01*
X222170714Y-62047380D01*
X223504047Y-61047380D02*
X223027857Y-61047380D01*
X222980238Y-61523571D01*
X223027857Y-61475952D01*
X223123095Y-61428333D01*
X223361190Y-61428333D01*
X223456428Y-61475952D01*
X223504047Y-61523571D01*
X223551666Y-61618809D01*
X223551666Y-61856904D01*
X223504047Y-61952142D01*
X223456428Y-61999761D01*
X223361190Y-62047380D01*
X223123095Y-62047380D01*
X223027857Y-61999761D01*
X222980238Y-61952142D01*
X261766666Y-72062380D02*
X261766666Y-72776666D01*
X261719047Y-72919523D01*
X261623809Y-73014761D01*
X261480952Y-73062380D01*
X261385714Y-73062380D01*
X262147619Y-72062380D02*
X262766666Y-72062380D01*
X262433333Y-72443333D01*
X262576190Y-72443333D01*
X262671428Y-72490952D01*
X262719047Y-72538571D01*
X262766666Y-72633809D01*
X262766666Y-72871904D01*
X262719047Y-72967142D01*
X262671428Y-73014761D01*
X262576190Y-73062380D01*
X262290476Y-73062380D01*
X262195238Y-73014761D01*
X262147619Y-72967142D01*
X192082380Y-61721904D02*
X192891904Y-61721904D01*
X192987142Y-61674285D01*
X193034761Y-61626666D01*
X193082380Y-61531428D01*
X193082380Y-61340952D01*
X193034761Y-61245714D01*
X192987142Y-61198095D01*
X192891904Y-61150476D01*
X192082380Y-61150476D01*
X192415714Y-60245714D02*
X193082380Y-60245714D01*
X192034761Y-60483809D02*
X192749047Y-60721904D01*
X192749047Y-60102857D01*
X191976880Y-113699904D02*
X192786404Y-113699904D01*
X192881642Y-113652285D01*
X192929261Y-113604666D01*
X192976880Y-113509428D01*
X192976880Y-113318952D01*
X192929261Y-113223714D01*
X192881642Y-113176095D01*
X192786404Y-113128476D01*
X191976880Y-113128476D01*
X191976880Y-112747523D02*
X191976880Y-112128476D01*
X192357833Y-112461809D01*
X192357833Y-112318952D01*
X192405452Y-112223714D01*
X192453071Y-112176095D01*
X192548309Y-112128476D01*
X192786404Y-112128476D01*
X192881642Y-112176095D01*
X192929261Y-112223714D01*
X192976880Y-112318952D01*
X192976880Y-112604666D01*
X192929261Y-112699904D01*
X192881642Y-112747523D01*
X266636666Y-134682380D02*
X266303333Y-134206190D01*
X266065238Y-134682380D02*
X266065238Y-133682380D01*
X266446190Y-133682380D01*
X266541428Y-133730000D01*
X266589047Y-133777619D01*
X266636666Y-133872857D01*
X266636666Y-134015714D01*
X266589047Y-134110952D01*
X266541428Y-134158571D01*
X266446190Y-134206190D01*
X266065238Y-134206190D01*
X267065238Y-134158571D02*
X267398571Y-134158571D01*
X267541428Y-134682380D02*
X267065238Y-134682380D01*
X267065238Y-133682380D01*
X267541428Y-133682380D01*
X268303333Y-134158571D02*
X267970000Y-134158571D01*
X267970000Y-134682380D02*
X267970000Y-133682380D01*
X268446190Y-133682380D01*
X268970000Y-133682380D02*
X268970000Y-133920476D01*
X268731904Y-133825238D02*
X268970000Y-133920476D01*
X269208095Y-133825238D01*
X268827142Y-134110952D02*
X268970000Y-133920476D01*
X269112857Y-134110952D01*
X269731904Y-133682380D02*
X269731904Y-133920476D01*
X269493809Y-133825238D02*
X269731904Y-133920476D01*
X269970000Y-133825238D01*
X269589047Y-134110952D02*
X269731904Y-133920476D01*
X269874761Y-134110952D01*
X245562333Y-88462380D02*
X245229000Y-87986190D01*
X244990904Y-88462380D02*
X244990904Y-87462380D01*
X245371857Y-87462380D01*
X245467095Y-87510000D01*
X245514714Y-87557619D01*
X245562333Y-87652857D01*
X245562333Y-87795714D01*
X245514714Y-87890952D01*
X245467095Y-87938571D01*
X245371857Y-87986190D01*
X244990904Y-87986190D01*
X245943285Y-87557619D02*
X245990904Y-87510000D01*
X246086142Y-87462380D01*
X246324238Y-87462380D01*
X246419476Y-87510000D01*
X246467095Y-87557619D01*
X246514714Y-87652857D01*
X246514714Y-87748095D01*
X246467095Y-87890952D01*
X245895666Y-88462380D01*
X246514714Y-88462380D01*
X232918095Y-116292380D02*
X232918095Y-117101904D01*
X232965714Y-117197142D01*
X233013333Y-117244761D01*
X233108571Y-117292380D01*
X233299047Y-117292380D01*
X233394285Y-117244761D01*
X233441904Y-117197142D01*
X233489523Y-117101904D01*
X233489523Y-116292380D01*
X234394285Y-116292380D02*
X234203809Y-116292380D01*
X234108571Y-116340000D01*
X234060952Y-116387619D01*
X233965714Y-116530476D01*
X233918095Y-116720952D01*
X233918095Y-117101904D01*
X233965714Y-117197142D01*
X234013333Y-117244761D01*
X234108571Y-117292380D01*
X234299047Y-117292380D01*
X234394285Y-117244761D01*
X234441904Y-117197142D01*
X234489523Y-117101904D01*
X234489523Y-116863809D01*
X234441904Y-116768571D01*
X234394285Y-116720952D01*
X234299047Y-116673333D01*
X234108571Y-116673333D01*
X234013333Y-116720952D01*
X233965714Y-116768571D01*
X233918095Y-116863809D01*
X234391666Y-127062666D02*
X234391666Y-126362666D01*
X234625000Y-126862666D01*
X234858333Y-126362666D01*
X234858333Y-127062666D01*
X235191666Y-127062666D02*
X235191666Y-126362666D01*
X235591666Y-127062666D02*
X235291666Y-126662666D01*
X235591666Y-126362666D02*
X235191666Y-126762666D01*
X236225000Y-127062666D02*
X235891666Y-127062666D01*
X235891666Y-126362666D01*
X236425000Y-126429333D02*
X236458333Y-126396000D01*
X236525000Y-126362666D01*
X236691666Y-126362666D01*
X236758333Y-126396000D01*
X236791666Y-126429333D01*
X236825000Y-126496000D01*
X236825000Y-126562666D01*
X236791666Y-126662666D01*
X236391666Y-127062666D01*
X236825000Y-127062666D01*
X237425000Y-126362666D02*
X237291666Y-126362666D01*
X237225000Y-126396000D01*
X237191666Y-126429333D01*
X237125000Y-126529333D01*
X237091666Y-126662666D01*
X237091666Y-126929333D01*
X237125000Y-126996000D01*
X237158333Y-127029333D01*
X237225000Y-127062666D01*
X237358333Y-127062666D01*
X237425000Y-127029333D01*
X237458333Y-126996000D01*
X237491666Y-126929333D01*
X237491666Y-126762666D01*
X237458333Y-126696000D01*
X237425000Y-126662666D01*
X237358333Y-126629333D01*
X237225000Y-126629333D01*
X237158333Y-126662666D01*
X237125000Y-126696000D01*
X237091666Y-126762666D01*
X237725000Y-126362666D02*
X238191666Y-126362666D01*
X237725000Y-127062666D01*
X238191666Y-127062666D01*
X238758333Y-126362666D02*
X238625000Y-126362666D01*
X238558333Y-126396000D01*
X238525000Y-126429333D01*
X238458333Y-126529333D01*
X238425000Y-126662666D01*
X238425000Y-126929333D01*
X238458333Y-126996000D01*
X238491666Y-127029333D01*
X238558333Y-127062666D01*
X238691666Y-127062666D01*
X238758333Y-127029333D01*
X238791666Y-126996000D01*
X238825000Y-126929333D01*
X238825000Y-126762666D01*
X238791666Y-126696000D01*
X238758333Y-126662666D01*
X238691666Y-126629333D01*
X238558333Y-126629333D01*
X238491666Y-126662666D01*
X238458333Y-126696000D01*
X238425000Y-126762666D01*
X239425000Y-126596000D02*
X239425000Y-127062666D01*
X239258333Y-126329333D02*
X239091666Y-126829333D01*
X239525000Y-126829333D01*
X239691666Y-126362666D02*
X239925000Y-127062666D01*
X240158333Y-126362666D01*
X240625000Y-126696000D02*
X240391666Y-126696000D01*
X240391666Y-127062666D02*
X240391666Y-126362666D01*
X240725000Y-126362666D01*
X240891666Y-126362666D02*
X241291666Y-126362666D01*
X241091666Y-127062666D02*
X241091666Y-126362666D01*
X241825000Y-126596000D02*
X241825000Y-127062666D01*
X241658333Y-126329333D02*
X241491666Y-126829333D01*
X241925000Y-126829333D01*
X233463333Y-126316666D02*
X233463333Y-125616666D01*
X233696666Y-126116666D01*
X233930000Y-125616666D01*
X233930000Y-126316666D01*
X234263333Y-126316666D02*
X234263333Y-125616666D01*
X234663333Y-126316666D02*
X234363333Y-125916666D01*
X234663333Y-125616666D02*
X234263333Y-126016666D01*
X234930000Y-125683333D02*
X234963333Y-125650000D01*
X235030000Y-125616666D01*
X235196666Y-125616666D01*
X235263333Y-125650000D01*
X235296666Y-125683333D01*
X235330000Y-125750000D01*
X235330000Y-125816666D01*
X235296666Y-125916666D01*
X234896666Y-126316666D01*
X235330000Y-126316666D01*
X235763333Y-125616666D02*
X235830000Y-125616666D01*
X235896666Y-125650000D01*
X235930000Y-125683333D01*
X235963333Y-125750000D01*
X235996666Y-125883333D01*
X235996666Y-126050000D01*
X235963333Y-126183333D01*
X235930000Y-126250000D01*
X235896666Y-126283333D01*
X235830000Y-126316666D01*
X235763333Y-126316666D01*
X235696666Y-126283333D01*
X235663333Y-126250000D01*
X235630000Y-126183333D01*
X235596666Y-126050000D01*
X235596666Y-125883333D01*
X235630000Y-125750000D01*
X235663333Y-125683333D01*
X235696666Y-125650000D01*
X235763333Y-125616666D01*
X236296666Y-126316666D02*
X236296666Y-125616666D01*
X236463333Y-125616666D01*
X236563333Y-125650000D01*
X236630000Y-125716666D01*
X236663333Y-125783333D01*
X236696666Y-125916666D01*
X236696666Y-126016666D01*
X236663333Y-126150000D01*
X236630000Y-126216666D01*
X236563333Y-126283333D01*
X236463333Y-126316666D01*
X236296666Y-126316666D01*
X236930000Y-125616666D02*
X237396666Y-126316666D01*
X237396666Y-125616666D02*
X236930000Y-126316666D01*
X238030000Y-126316666D02*
X237630000Y-126316666D01*
X237830000Y-126316666D02*
X237830000Y-125616666D01*
X237763333Y-125716666D01*
X237696666Y-125783333D01*
X237630000Y-125816666D01*
X238296666Y-125683333D02*
X238330000Y-125650000D01*
X238396666Y-125616666D01*
X238563333Y-125616666D01*
X238630000Y-125650000D01*
X238663333Y-125683333D01*
X238696666Y-125750000D01*
X238696666Y-125816666D01*
X238663333Y-125916666D01*
X238263333Y-126316666D01*
X238696666Y-126316666D01*
X239096666Y-125916666D02*
X239030000Y-125883333D01*
X238996666Y-125850000D01*
X238963333Y-125783333D01*
X238963333Y-125750000D01*
X238996666Y-125683333D01*
X239030000Y-125650000D01*
X239096666Y-125616666D01*
X239230000Y-125616666D01*
X239296666Y-125650000D01*
X239330000Y-125683333D01*
X239363333Y-125750000D01*
X239363333Y-125783333D01*
X239330000Y-125850000D01*
X239296666Y-125883333D01*
X239230000Y-125916666D01*
X239096666Y-125916666D01*
X239030000Y-125950000D01*
X238996666Y-125983333D01*
X238963333Y-126050000D01*
X238963333Y-126183333D01*
X238996666Y-126250000D01*
X239030000Y-126283333D01*
X239096666Y-126316666D01*
X239230000Y-126316666D01*
X239296666Y-126283333D01*
X239330000Y-126250000D01*
X239363333Y-126183333D01*
X239363333Y-126050000D01*
X239330000Y-125983333D01*
X239296666Y-125950000D01*
X239230000Y-125916666D01*
X239563333Y-125616666D02*
X239796666Y-126316666D01*
X240030000Y-125616666D01*
X240596666Y-126316666D02*
X240263333Y-126316666D01*
X240263333Y-125616666D01*
X240830000Y-126316666D02*
X240830000Y-125616666D01*
X240830000Y-125950000D02*
X241230000Y-125950000D01*
X241230000Y-126316666D02*
X241230000Y-125616666D01*
X241896666Y-125616666D02*
X241563333Y-125616666D01*
X241530000Y-125950000D01*
X241563333Y-125916666D01*
X241630000Y-125883333D01*
X241796666Y-125883333D01*
X241863333Y-125916666D01*
X241896666Y-125950000D01*
X241930000Y-126016666D01*
X241930000Y-126183333D01*
X241896666Y-126250000D01*
X241863333Y-126283333D01*
X241796666Y-126316666D01*
X241630000Y-126316666D01*
X241563333Y-126283333D01*
X241530000Y-126250000D01*
X226782380Y-125936190D02*
X226782380Y-125364761D01*
X227782380Y-125650476D02*
X226782380Y-125650476D01*
X226782380Y-125126666D02*
X226782380Y-124507619D01*
X227163333Y-124840952D01*
X227163333Y-124698095D01*
X227210952Y-124602857D01*
X227258571Y-124555238D01*
X227353809Y-124507619D01*
X227591904Y-124507619D01*
X227687142Y-124555238D01*
X227734761Y-124602857D01*
X227782380Y-124698095D01*
X227782380Y-124983809D01*
X227734761Y-125079047D01*
X227687142Y-125126666D01*
X227687142Y-124079047D02*
X227734761Y-124031428D01*
X227782380Y-124079047D01*
X227734761Y-124126666D01*
X227687142Y-124079047D01*
X227782380Y-124079047D01*
X227782380Y-123079047D02*
X227782380Y-123650476D01*
X227782380Y-123364761D02*
X226782380Y-123364761D01*
X226925238Y-123460000D01*
X227020476Y-123555238D01*
X227068095Y-123650476D01*
D12*
X233908333Y-125000000D02*
X233908333Y-125000000D01*
X234141666Y-125000000D01*
X234375000Y-125000000D01*
X234375000Y-125000000D01*
X234708333Y-125000000D02*
X234708333Y-125000000D01*
X235108333Y-125000000D02*
X234808333Y-125000000D01*
X235108333Y-125000000D02*
X234708333Y-125000000D01*
X235375000Y-125000000D02*
X235408333Y-125000000D01*
X235475000Y-125000000D01*
X235641666Y-125000000D01*
X235708333Y-125000000D01*
X235741666Y-125000000D01*
X235775000Y-125000000D01*
X235775000Y-125000000D01*
X235741666Y-125000000D01*
X235341666Y-125000000D01*
X235775000Y-125000000D01*
X236208333Y-125000000D02*
X236275000Y-125000000D01*
X236341666Y-125000000D01*
X236375000Y-125000000D01*
X236408333Y-125000000D01*
X236441666Y-125000000D01*
X236441666Y-125000000D01*
X236408333Y-125000000D01*
X236375000Y-125000000D01*
X236341666Y-125000000D01*
X236275000Y-125000000D01*
X236208333Y-125000000D01*
X236141666Y-125000000D01*
X236108333Y-125000000D01*
X236075000Y-125000000D01*
X236041666Y-125000000D01*
X236041666Y-125000000D01*
X236075000Y-125000000D01*
X236108333Y-125000000D01*
X236141666Y-125000000D01*
X236208333Y-125000000D01*
X236741666Y-125000000D02*
X236741666Y-125000000D01*
X236908333Y-125000000D01*
X237008333Y-125000000D01*
X237075000Y-125000000D01*
X237108333Y-125000000D01*
X237141666Y-125000000D01*
X237141666Y-125000000D01*
X237108333Y-125000000D01*
X237075000Y-125000000D01*
X237008333Y-125000000D01*
X236908333Y-125000000D01*
X236741666Y-125000000D01*
X237375000Y-125000000D02*
X237841666Y-125000000D01*
X237841666Y-125000000D02*
X237375000Y-125000000D01*
X238075000Y-125000000D02*
X238108333Y-125000000D01*
X238175000Y-125000000D01*
X238341666Y-125000000D01*
X238408333Y-125000000D01*
X238441666Y-125000000D01*
X238475000Y-125000000D01*
X238475000Y-125000000D01*
X238441666Y-125000000D01*
X238041666Y-125000000D01*
X238475000Y-125000000D01*
X239108333Y-125000000D02*
X238775000Y-125000000D01*
X238741666Y-125000000D01*
X238775000Y-125000000D01*
X238841666Y-125000000D01*
X239008333Y-125000000D01*
X239075000Y-125000000D01*
X239108333Y-125000000D01*
X239141666Y-125000000D01*
X239141666Y-125000000D01*
X239108333Y-125000000D01*
X239075000Y-125000000D01*
X239008333Y-125000000D01*
X238841666Y-125000000D01*
X238775000Y-125000000D01*
X238741666Y-125000000D01*
X239741666Y-125000000D02*
X239608333Y-125000000D01*
X239541666Y-125000000D01*
X239508333Y-125000000D01*
X239441666Y-125000000D01*
X239408333Y-125000000D01*
X239408333Y-125000000D01*
X239441666Y-125000000D01*
X239475000Y-125000000D01*
X239541666Y-125000000D01*
X239675000Y-125000000D01*
X239741666Y-125000000D01*
X239775000Y-125000000D01*
X239808333Y-125000000D01*
X239808333Y-125000000D01*
X239775000Y-125000000D01*
X239741666Y-125000000D01*
X239675000Y-125000000D01*
X239541666Y-125000000D01*
X239475000Y-125000000D01*
X239441666Y-125000000D01*
X239408333Y-125000000D01*
X240008333Y-125000000D02*
X240241666Y-125000000D01*
X240475000Y-125000000D01*
X241041666Y-125000000D02*
X240708333Y-125000000D01*
X240708333Y-125000000D01*
X241275000Y-125000000D02*
X241275000Y-125000000D01*
X241275000Y-125000000D02*
X241675000Y-125000000D01*
X241675000Y-125000000D02*
X241675000Y-125000000D01*
X241941666Y-125000000D02*
X242408333Y-125000000D01*
X242108333Y-125000000D01*
D11*
X222972380Y-125936190D02*
X222972380Y-125364761D01*
X223972380Y-125650476D02*
X222972380Y-125650476D01*
X222972380Y-125126666D02*
X222972380Y-124507619D01*
X223353333Y-124840952D01*
X223353333Y-124698095D01*
X223400952Y-124602857D01*
X223448571Y-124555238D01*
X223543809Y-124507619D01*
X223781904Y-124507619D01*
X223877142Y-124555238D01*
X223924761Y-124602857D01*
X223972380Y-124698095D01*
X223972380Y-124983809D01*
X223924761Y-125079047D01*
X223877142Y-125126666D01*
X223877142Y-124079047D02*
X223924761Y-124031428D01*
X223972380Y-124079047D01*
X223924761Y-124126666D01*
X223877142Y-124079047D01*
X223972380Y-124079047D01*
X223067619Y-123650476D02*
X223020000Y-123602857D01*
X222972380Y-123507619D01*
X222972380Y-123269523D01*
X223020000Y-123174285D01*
X223067619Y-123126666D01*
X223162857Y-123079047D01*
X223258095Y-123079047D01*
X223400952Y-123126666D01*
X223972380Y-123698095D01*
X223972380Y-123079047D01*
X235251666Y-61047380D02*
X235251666Y-61761666D01*
X235204047Y-61904523D01*
X235108809Y-61999761D01*
X234965952Y-62047380D01*
X234870714Y-62047380D01*
X236156428Y-61047380D02*
X235965952Y-61047380D01*
X235870714Y-61095000D01*
X235823095Y-61142619D01*
X235727857Y-61285476D01*
X235680238Y-61475952D01*
X235680238Y-61856904D01*
X235727857Y-61952142D01*
X235775476Y-61999761D01*
X235870714Y-62047380D01*
X236061190Y-62047380D01*
X236156428Y-61999761D01*
X236204047Y-61952142D01*
X236251666Y-61856904D01*
X236251666Y-61618809D01*
X236204047Y-61523571D01*
X236156428Y-61475952D01*
X236061190Y-61428333D01*
X235870714Y-61428333D01*
X235775476Y-61475952D01*
X235727857Y-61523571D01*
X235680238Y-61618809D01*
X186936142Y-86365142D02*
X186888523Y-86412761D01*
X186745666Y-86460380D01*
X186650428Y-86460380D01*
X186507571Y-86412761D01*
X186412333Y-86317523D01*
X186364714Y-86222285D01*
X186317095Y-86031809D01*
X186317095Y-85888952D01*
X186364714Y-85698476D01*
X186412333Y-85603238D01*
X186507571Y-85508000D01*
X186650428Y-85460380D01*
X186745666Y-85460380D01*
X186888523Y-85508000D01*
X186936142Y-85555619D01*
X187888523Y-86460380D02*
X187317095Y-86460380D01*
X187602809Y-86460380D02*
X187602809Y-85460380D01*
X187507571Y-85603238D01*
X187412333Y-85698476D01*
X187317095Y-85746095D01*
X188507571Y-85460380D02*
X188602809Y-85460380D01*
X188698047Y-85508000D01*
X188745666Y-85555619D01*
X188793285Y-85650857D01*
X188840904Y-85841333D01*
X188840904Y-86079428D01*
X188793285Y-86269904D01*
X188745666Y-86365142D01*
X188698047Y-86412761D01*
X188602809Y-86460380D01*
X188507571Y-86460380D01*
X188412333Y-86412761D01*
X188364714Y-86365142D01*
X188317095Y-86269904D01*
X188269476Y-86079428D01*
X188269476Y-85841333D01*
X188317095Y-85650857D01*
X188364714Y-85555619D01*
X188412333Y-85508000D01*
X188507571Y-85460380D01*
X187285333Y-123576142D02*
X187237714Y-123623761D01*
X187094857Y-123671380D01*
X186999619Y-123671380D01*
X186856761Y-123623761D01*
X186761523Y-123528523D01*
X186713904Y-123433285D01*
X186666285Y-123242809D01*
X186666285Y-123099952D01*
X186713904Y-122909476D01*
X186761523Y-122814238D01*
X186856761Y-122719000D01*
X186999619Y-122671380D01*
X187094857Y-122671380D01*
X187237714Y-122719000D01*
X187285333Y-122766619D01*
X188190095Y-122671380D02*
X187713904Y-122671380D01*
X187666285Y-123147571D01*
X187713904Y-123099952D01*
X187809142Y-123052333D01*
X188047238Y-123052333D01*
X188142476Y-123099952D01*
X188190095Y-123147571D01*
X188237714Y-123242809D01*
X188237714Y-123480904D01*
X188190095Y-123576142D01*
X188142476Y-123623761D01*
X188047238Y-123671380D01*
X187809142Y-123671380D01*
X187713904Y-123623761D01*
X187666285Y-123576142D01*
X234148333Y-106177142D02*
X234100714Y-106224761D01*
X233957857Y-106272380D01*
X233862619Y-106272380D01*
X233719761Y-106224761D01*
X233624523Y-106129523D01*
X233576904Y-106034285D01*
X233529285Y-105843809D01*
X233529285Y-105700952D01*
X233576904Y-105510476D01*
X233624523Y-105415238D01*
X233719761Y-105320000D01*
X233862619Y-105272380D01*
X233957857Y-105272380D01*
X234100714Y-105320000D01*
X234148333Y-105367619D01*
X235100714Y-106272380D02*
X234529285Y-106272380D01*
X234815000Y-106272380D02*
X234815000Y-105272380D01*
X234719761Y-105415238D01*
X234624523Y-105510476D01*
X234529285Y-105558095D01*
X170691666Y-95349880D02*
X170691666Y-96064166D01*
X170644047Y-96207023D01*
X170548809Y-96302261D01*
X170405952Y-96349880D01*
X170310714Y-96349880D01*
X171310714Y-95778452D02*
X171215476Y-95730833D01*
X171167857Y-95683214D01*
X171120238Y-95587976D01*
X171120238Y-95540357D01*
X171167857Y-95445119D01*
X171215476Y-95397500D01*
X171310714Y-95349880D01*
X171501190Y-95349880D01*
X171596428Y-95397500D01*
X171644047Y-95445119D01*
X171691666Y-95540357D01*
X171691666Y-95587976D01*
X171644047Y-95683214D01*
X171596428Y-95730833D01*
X171501190Y-95778452D01*
X171310714Y-95778452D01*
X171215476Y-95826071D01*
X171167857Y-95873690D01*
X171120238Y-95968928D01*
X171120238Y-96159404D01*
X171167857Y-96254642D01*
X171215476Y-96302261D01*
X171310714Y-96349880D01*
X171501190Y-96349880D01*
X171596428Y-96302261D01*
X171644047Y-96254642D01*
X171691666Y-96159404D01*
X171691666Y-95968928D01*
X171644047Y-95873690D01*
X171596428Y-95826071D01*
X171501190Y-95778452D01*
X187390833Y-68712142D02*
X187343214Y-68759761D01*
X187200357Y-68807380D01*
X187105119Y-68807380D01*
X186962261Y-68759761D01*
X186867023Y-68664523D01*
X186819404Y-68569285D01*
X186771785Y-68378809D01*
X186771785Y-68235952D01*
X186819404Y-68045476D01*
X186867023Y-67950238D01*
X186962261Y-67855000D01*
X187105119Y-67807380D01*
X187200357Y-67807380D01*
X187343214Y-67855000D01*
X187390833Y-67902619D01*
X187867023Y-68807380D02*
X188057500Y-68807380D01*
X188152738Y-68759761D01*
X188200357Y-68712142D01*
X188295595Y-68569285D01*
X188343214Y-68378809D01*
X188343214Y-67997857D01*
X188295595Y-67902619D01*
X188247976Y-67855000D01*
X188152738Y-67807380D01*
X187962261Y-67807380D01*
X187867023Y-67855000D01*
X187819404Y-67902619D01*
X187771785Y-67997857D01*
X187771785Y-68235952D01*
X187819404Y-68331190D01*
X187867023Y-68378809D01*
X187962261Y-68426428D01*
X188152738Y-68426428D01*
X188247976Y-68378809D01*
X188295595Y-68331190D01*
X188343214Y-68235952D01*
X252130904Y-85582380D02*
X252130904Y-84582380D01*
X252369000Y-84582380D01*
X252511857Y-84630000D01*
X252607095Y-84725238D01*
X252654714Y-84820476D01*
X252702333Y-85010952D01*
X252702333Y-85153809D01*
X252654714Y-85344285D01*
X252607095Y-85439523D01*
X252511857Y-85534761D01*
X252369000Y-85582380D01*
X252130904Y-85582380D01*
X253654714Y-85582380D02*
X253083285Y-85582380D01*
X253369000Y-85582380D02*
X253369000Y-84582380D01*
X253273761Y-84725238D01*
X253178523Y-84820476D01*
X253083285Y-84868095D01*
X236438095Y-90562380D02*
X236438095Y-89562380D01*
X237009523Y-90562380D02*
X236580952Y-89990952D01*
X237009523Y-89562380D02*
X236438095Y-90133809D01*
X211034333Y-84908380D02*
X210701000Y-84432190D01*
X210462904Y-84908380D02*
X210462904Y-83908380D01*
X210843857Y-83908380D01*
X210939095Y-83956000D01*
X210986714Y-84003619D01*
X211034333Y-84098857D01*
X211034333Y-84241714D01*
X210986714Y-84336952D01*
X210939095Y-84384571D01*
X210843857Y-84432190D01*
X210462904Y-84432190D01*
X211367666Y-83908380D02*
X212034333Y-83908380D01*
X211605761Y-84908380D01*
X234148333Y-111257142D02*
X234100714Y-111304761D01*
X233957857Y-111352380D01*
X233862619Y-111352380D01*
X233719761Y-111304761D01*
X233624523Y-111209523D01*
X233576904Y-111114285D01*
X233529285Y-110923809D01*
X233529285Y-110780952D01*
X233576904Y-110590476D01*
X233624523Y-110495238D01*
X233719761Y-110400000D01*
X233862619Y-110352380D01*
X233957857Y-110352380D01*
X234100714Y-110400000D01*
X234148333Y-110447619D01*
X234529285Y-110447619D02*
X234576904Y-110400000D01*
X234672142Y-110352380D01*
X234910238Y-110352380D01*
X235005476Y-110400000D01*
X235053095Y-110447619D01*
X235100714Y-110542857D01*
X235100714Y-110638095D01*
X235053095Y-110780952D01*
X234481666Y-111352380D01*
X235100714Y-111352380D01*
X170481666Y-61462380D02*
X170481666Y-62176666D01*
X170434047Y-62319523D01*
X170338809Y-62414761D01*
X170195952Y-62462380D01*
X170100714Y-62462380D01*
X171005476Y-62462380D02*
X171195952Y-62462380D01*
X171291190Y-62414761D01*
X171338809Y-62367142D01*
X171434047Y-62224285D01*
X171481666Y-62033809D01*
X171481666Y-61652857D01*
X171434047Y-61557619D01*
X171386428Y-61510000D01*
X171291190Y-61462380D01*
X171100714Y-61462380D01*
X171005476Y-61510000D01*
X170957857Y-61557619D01*
X170910238Y-61652857D01*
X170910238Y-61890952D01*
X170957857Y-61986190D01*
X171005476Y-62033809D01*
X171100714Y-62081428D01*
X171291190Y-62081428D01*
X171386428Y-62033809D01*
X171434047Y-61986190D01*
X171481666Y-61890952D01*
X260540666Y-55824380D02*
X260207333Y-55348190D01*
X259969238Y-55824380D02*
X259969238Y-54824380D01*
X260350190Y-54824380D01*
X260445428Y-54872000D01*
X260493047Y-54919619D01*
X260540666Y-55014857D01*
X260540666Y-55157714D01*
X260493047Y-55252952D01*
X260445428Y-55300571D01*
X260350190Y-55348190D01*
X259969238Y-55348190D01*
X260969238Y-55300571D02*
X261302571Y-55300571D01*
X261445428Y-55824380D02*
X260969238Y-55824380D01*
X260969238Y-54824380D01*
X261445428Y-54824380D01*
X262207333Y-55300571D02*
X261874000Y-55300571D01*
X261874000Y-55824380D02*
X261874000Y-54824380D01*
X262350190Y-54824380D01*
X262874000Y-54824380D02*
X262874000Y-55062476D01*
X262635904Y-54967238D02*
X262874000Y-55062476D01*
X263112095Y-54967238D01*
X262731142Y-55252952D02*
X262874000Y-55062476D01*
X263016857Y-55252952D01*
X263635904Y-54824380D02*
X263635904Y-55062476D01*
X263397809Y-54967238D02*
X263635904Y-55062476D01*
X263874000Y-54967238D01*
X263493047Y-55252952D02*
X263635904Y-55062476D01*
X263778761Y-55252952D01*
X250404333Y-75889380D02*
X250071000Y-75413190D01*
X249832904Y-75889380D02*
X249832904Y-74889380D01*
X250213857Y-74889380D01*
X250309095Y-74937000D01*
X250356714Y-74984619D01*
X250404333Y-75079857D01*
X250404333Y-75222714D01*
X250356714Y-75317952D01*
X250309095Y-75365571D01*
X250213857Y-75413190D01*
X249832904Y-75413190D01*
X250737666Y-74889380D02*
X251356714Y-74889380D01*
X251023380Y-75270333D01*
X251166238Y-75270333D01*
X251261476Y-75317952D01*
X251309095Y-75365571D01*
X251356714Y-75460809D01*
X251356714Y-75698904D01*
X251309095Y-75794142D01*
X251261476Y-75841761D01*
X251166238Y-75889380D01*
X250880523Y-75889380D01*
X250785285Y-75841761D01*
X250737666Y-75794142D01*
X178172976Y-132802380D02*
X178172976Y-133516666D01*
X178125357Y-133659523D01*
X178030119Y-133754761D01*
X177887261Y-133802380D01*
X177792023Y-133802380D01*
X179172976Y-133802380D02*
X178601547Y-133802380D01*
X178887261Y-133802380D02*
X178887261Y-132802380D01*
X178792023Y-132945238D01*
X178696785Y-133040476D01*
X178601547Y-133088095D01*
X179506309Y-132802380D02*
X180172976Y-132802380D01*
X179744404Y-133802380D01*
D13*
X261493000Y-130810000D02*
X253873000Y-130810000D01*
X253873000Y-140970000D02*
X261493000Y-140970000D01*
X255143000Y-140970000D02*
X255143000Y-130810000D01*
X253873000Y-130810000D02*
X253873000Y-140970000D01*
X261493000Y-140970000D02*
X261493000Y-130810000D01*
X191790000Y-78105000D02*
X191790000Y-80055000D01*
X186670000Y-78105000D02*
X186670000Y-76155000D01*
X186670000Y-78105000D02*
X186670000Y-80055000D01*
X191790000Y-78105000D02*
X191790000Y-74655000D01*
X210957936Y-55091000D02*
X211412064Y-55091000D01*
X210957936Y-53621000D02*
X211412064Y-53621000D01*
X259715000Y-121575000D02*
X259065000Y-121575000D01*
X259715000Y-118455000D02*
X260365000Y-118455000D01*
X259715000Y-118455000D02*
X259065000Y-118455000D01*
X259715000Y-121575000D02*
X261390000Y-121575000D01*
X187564752Y-106018000D02*
X187042248Y-106018000D01*
X187564752Y-104548000D02*
X187042248Y-104548000D01*
X224927936Y-71855000D02*
X225382064Y-71855000D01*
X224927936Y-70385000D02*
X225382064Y-70385000D01*
X205065000Y-110045000D02*
X205065000Y-94155000D01*
X210185000Y-94155000D02*
X210185000Y-91615000D01*
X207645000Y-94155000D02*
X207645000Y-91615000D01*
X215305000Y-110045000D02*
X205065000Y-110045000D01*
X215305000Y-94155000D02*
X205065000Y-94155000D01*
X212725000Y-94155000D02*
X212725000Y-91615000D01*
X215305000Y-110045000D02*
X215305000Y-94155000D01*
X165815000Y-88605000D02*
X178665000Y-88605000D01*
X165815000Y-80305000D02*
X162965000Y-82855000D01*
X162965000Y-82855000D02*
X162965000Y-86005000D01*
X162965000Y-86005000D02*
X165815000Y-88605000D01*
X178665000Y-88605000D02*
X178665000Y-80305000D01*
X178665000Y-80305000D02*
X165815000Y-80305000D01*
X251036064Y-85625000D02*
X250581936Y-85625000D01*
X251036064Y-87095000D02*
X250581936Y-87095000D01*
X269950000Y-91160000D02*
X267100000Y-88560000D01*
X267100000Y-88560000D02*
X254250000Y-88560000D01*
X254250000Y-88560000D02*
X254250000Y-96860000D01*
X269950000Y-94310000D02*
X269950000Y-91160000D01*
X267100000Y-96860000D02*
X269950000Y-94310000D01*
X254250000Y-96860000D02*
X267100000Y-96860000D01*
X187818752Y-69115000D02*
X187296248Y-69115000D01*
X187818752Y-70585000D02*
X187296248Y-70585000D01*
X219075000Y-99060000D02*
X219075000Y-109220000D01*
X226695000Y-109220000D02*
X226695000Y-99060000D01*
X226695000Y-99060000D02*
X219075000Y-99060000D01*
X219075000Y-109220000D02*
X226695000Y-109220000D01*
X225425000Y-99060000D02*
X225425000Y-109220000D01*
X245718064Y-73052000D02*
X245263936Y-73052000D01*
X245718064Y-74522000D02*
X245263936Y-74522000D01*
X187861752Y-87022000D02*
X187339248Y-87022000D01*
X187861752Y-88492000D02*
X187339248Y-88492000D01*
X187713252Y-117629000D02*
X187190748Y-117629000D01*
X187713252Y-119099000D02*
X187190748Y-119099000D01*
X224155000Y-80375000D02*
X224155000Y-77835000D01*
X226695000Y-80375000D02*
X226695000Y-77835000D01*
X229275000Y-96265000D02*
X229275000Y-80375000D01*
X221615000Y-80375000D02*
X221615000Y-77835000D01*
X229275000Y-96265000D02*
X219035000Y-96265000D01*
X229275000Y-80375000D02*
X219035000Y-80375000D01*
X219035000Y-96265000D02*
X219035000Y-80375000D01*
X238220000Y-71430000D02*
X247460000Y-71430000D01*
X239690000Y-63190000D02*
X239690000Y-71430000D01*
X239810000Y-63190000D02*
X239810000Y-71430000D01*
X247460000Y-71430000D02*
X247460000Y-69150000D01*
X239570000Y-63190000D02*
X239570000Y-71430000D01*
X238220000Y-63190000D02*
X247460000Y-63190000D01*
X247460000Y-63190000D02*
X247460000Y-65470000D01*
X238220000Y-69150000D02*
X238220000Y-71430000D01*
X238220000Y-65470000D02*
X238220000Y-63190000D01*
X239690000Y-75890000D02*
X239690000Y-84130000D01*
X238220000Y-84130000D02*
X247460000Y-84130000D01*
X239810000Y-75890000D02*
X239810000Y-84130000D01*
X238220000Y-75890000D02*
X247460000Y-75890000D01*
X239570000Y-75890000D02*
X239570000Y-84130000D01*
X247460000Y-75890000D02*
X247460000Y-78170000D01*
X238220000Y-81850000D02*
X238220000Y-84130000D01*
X247460000Y-84130000D02*
X247460000Y-81850000D01*
X238220000Y-78170000D02*
X238220000Y-75890000D01*
X259715000Y-113375000D02*
X260365000Y-113375000D01*
X259715000Y-116495000D02*
X259065000Y-116495000D01*
X259715000Y-113375000D02*
X259065000Y-113375000D01*
X259715000Y-116495000D02*
X261390000Y-116495000D01*
X259715000Y-123469000D02*
X259065000Y-123469000D01*
X259715000Y-123469000D02*
X260365000Y-123469000D01*
X259715000Y-126589000D02*
X259065000Y-126589000D01*
X259715000Y-126589000D02*
X261390000Y-126589000D01*
X258635000Y-101560000D02*
X242745000Y-101560000D01*
X242745000Y-101560000D02*
X242745000Y-111800000D01*
X258635000Y-101560000D02*
X258635000Y-111800000D01*
X258635000Y-111800000D02*
X242745000Y-111800000D01*
X242745000Y-104140000D02*
X240205000Y-104140000D01*
X242745000Y-106680000D02*
X240205000Y-106680000D01*
X242745000Y-109220000D02*
X240205000Y-109220000D01*
X191663000Y-96139000D02*
X191663000Y-98089000D01*
X186543000Y-96139000D02*
X186543000Y-98089000D01*
X186543000Y-96139000D02*
X186543000Y-94189000D01*
X191663000Y-96139000D02*
X191663000Y-92689000D01*
X251052064Y-59971000D02*
X250597936Y-59971000D01*
X251052064Y-61441000D02*
X250597936Y-61441000D01*
X166025000Y-112287500D02*
X163175000Y-114837500D01*
X178875000Y-112287500D02*
X166025000Y-112287500D01*
X163175000Y-114837500D02*
X163175000Y-117987500D01*
X166025000Y-120587500D02*
X178875000Y-120587500D01*
X178875000Y-120587500D02*
X178875000Y-112287500D01*
X163175000Y-117987500D02*
X166025000Y-120587500D01*
X245972064Y-61441000D02*
X245517936Y-61441000D01*
X245972064Y-59971000D02*
X245517936Y-59971000D01*
X267310000Y-84160000D02*
X270160000Y-81610000D01*
X254460000Y-84160000D02*
X267310000Y-84160000D01*
X267310000Y-75860000D02*
X254460000Y-75860000D01*
X254460000Y-75860000D02*
X254460000Y-84160000D01*
X270160000Y-81610000D02*
X270160000Y-78460000D01*
X270160000Y-78460000D02*
X267310000Y-75860000D01*
X215305000Y-78000000D02*
X205065000Y-78000000D01*
X210185000Y-62110000D02*
X210185000Y-59570000D01*
X212725000Y-62110000D02*
X212725000Y-59570000D01*
X207645000Y-62110000D02*
X207645000Y-59570000D01*
X205065000Y-78000000D02*
X205065000Y-62110000D01*
X215305000Y-78000000D02*
X215305000Y-62110000D01*
X215305000Y-62110000D02*
X205065000Y-62110000D01*
X187607752Y-102462000D02*
X187085248Y-102462000D01*
X187607752Y-100992000D02*
X187085248Y-100992000D01*
X217805000Y-60325000D02*
X227965000Y-60325000D01*
X217805000Y-52705000D02*
X217805000Y-60325000D01*
X217805000Y-53975000D02*
X227965000Y-53975000D01*
X227965000Y-60325000D02*
X227965000Y-52705000D01*
X227965000Y-52705000D02*
X217805000Y-52705000D01*
X269950000Y-65760000D02*
X267100000Y-63160000D01*
X254250000Y-71460000D02*
X267100000Y-71460000D01*
X267100000Y-63160000D02*
X254250000Y-63160000D01*
X267100000Y-71460000D02*
X269950000Y-68910000D01*
X254250000Y-63160000D02*
X254250000Y-71460000D01*
X269950000Y-68910000D02*
X269950000Y-65760000D01*
X191790000Y-60960000D02*
X191790000Y-57510000D01*
X186670000Y-60960000D02*
X186670000Y-62910000D01*
X191790000Y-60960000D02*
X191790000Y-62910000D01*
X186670000Y-60960000D02*
X186670000Y-59010000D01*
X191684500Y-112938000D02*
X191684500Y-109488000D01*
X191684500Y-112938000D02*
X191684500Y-114888000D01*
X186564500Y-112938000D02*
X186564500Y-114888000D01*
X186564500Y-112938000D02*
X186564500Y-110988000D01*
X245956064Y-85625000D02*
X245501936Y-85625000D01*
X245956064Y-87095000D02*
X245501936Y-87095000D01*
D11*
X242570000Y-121920000D02*
X233680000Y-121920000D01*
X227330000Y-132080000D02*
X231140000Y-132080000D01*
X224790000Y-132080000D02*
X224790000Y-129540000D01*
X251460000Y-118110000D02*
X251460000Y-135890000D01*
X220980000Y-130810000D02*
X215900000Y-130810000D01*
X222250000Y-129540000D02*
X222250000Y-132080000D01*
X248920000Y-124460000D02*
X248920000Y-129540000D01*
X248920000Y-129540000D02*
X246380000Y-129540000D01*
X224790000Y-129540000D02*
X222250000Y-129540000D01*
X231140000Y-132080000D02*
X231140000Y-129540000D01*
X220980000Y-123190000D02*
X215900000Y-123190000D01*
X242570000Y-132080000D02*
X242570000Y-121920000D01*
X251460000Y-135890000D02*
X215900000Y-135890000D01*
X214630000Y-123190000D02*
X215900000Y-123190000D01*
X231140000Y-129540000D02*
X227330000Y-129540000D01*
X233680000Y-121920000D02*
X233680000Y-132080000D01*
X246380000Y-129540000D02*
X246380000Y-124460000D01*
X215900000Y-130810000D02*
X214630000Y-130810000D01*
X227330000Y-129540000D02*
X227330000Y-132080000D01*
X246380000Y-124460000D02*
X248920000Y-124460000D01*
X215900000Y-118110000D02*
X251460000Y-118110000D01*
X220980000Y-130810000D02*
X220980000Y-123190000D01*
X214630000Y-130810000D02*
X214630000Y-123190000D01*
X242570000Y-132080000D02*
X233680000Y-132080000D01*
X215900000Y-135890000D02*
X215900000Y-118110000D01*
X222250000Y-132080000D02*
X224790000Y-132080000D01*
G36*
X238506000Y-129286000D02*
G01*
X238125000Y-129540000D01*
X237871000Y-129286000D01*
X238252000Y-129032000D01*
X238506000Y-129286000D01*
G37*
D14*
X238506000Y-129286000D02*
X238125000Y-129540000D01*
X237871000Y-129286000D01*
X238252000Y-129032000D01*
X238506000Y-129286000D01*
G36*
X238379000Y-130048000D02*
G01*
X237998000Y-130302000D01*
X237744000Y-130048000D01*
X238125000Y-129794000D01*
X238379000Y-130048000D01*
G37*
X238379000Y-130048000D02*
X237998000Y-130302000D01*
X237744000Y-130048000D01*
X238125000Y-129794000D01*
X238379000Y-130048000D01*
G36*
X238252000Y-130810000D02*
G01*
X237871000Y-131064000D01*
X237617000Y-130810000D01*
X237998000Y-130556000D01*
X238252000Y-130810000D01*
G37*
X238252000Y-130810000D02*
X237871000Y-131064000D01*
X237617000Y-130810000D01*
X237998000Y-130556000D01*
X238252000Y-130810000D01*
G36*
X239014000Y-128905000D02*
G01*
X238633000Y-129159000D01*
X238379000Y-128905000D01*
X238760000Y-128651000D01*
X239014000Y-128905000D01*
G37*
X239014000Y-128905000D02*
X238633000Y-129159000D01*
X238379000Y-128905000D01*
X238760000Y-128651000D01*
X239014000Y-128905000D01*
G36*
X237871000Y-130429000D02*
G01*
X237490000Y-130683000D01*
X237236000Y-130429000D01*
X237617000Y-130175000D01*
X237871000Y-130429000D01*
G37*
X237871000Y-130429000D02*
X237490000Y-130683000D01*
X237236000Y-130429000D01*
X237617000Y-130175000D01*
X237871000Y-130429000D01*
G36*
X238887000Y-129667000D02*
G01*
X238506000Y-129921000D01*
X238252000Y-129667000D01*
X238633000Y-129413000D01*
X238887000Y-129667000D01*
G37*
X238887000Y-129667000D02*
X238506000Y-129921000D01*
X238252000Y-129667000D01*
X238633000Y-129413000D01*
X238887000Y-129667000D01*
G36*
X237998000Y-129667000D02*
G01*
X237617000Y-129921000D01*
X237363000Y-129667000D01*
X237744000Y-129413000D01*
X237998000Y-129667000D01*
G37*
X237998000Y-129667000D02*
X237617000Y-129921000D01*
X237363000Y-129667000D01*
X237744000Y-129413000D01*
X237998000Y-129667000D01*
G36*
X238633000Y-131191000D02*
G01*
X238252000Y-131445000D01*
X237998000Y-131191000D01*
X238379000Y-130937000D01*
X238633000Y-131191000D01*
G37*
X238633000Y-131191000D02*
X238252000Y-131445000D01*
X237998000Y-131191000D01*
X238379000Y-130937000D01*
X238633000Y-131191000D01*
D13*
X240665000Y-52705000D02*
X230505000Y-52705000D01*
X230505000Y-53975000D02*
X240665000Y-53975000D01*
X230505000Y-52705000D02*
X230505000Y-60325000D01*
X230505000Y-60325000D02*
X240665000Y-60325000D01*
X240665000Y-60325000D02*
X240665000Y-52705000D01*
X187840252Y-85063000D02*
X187317748Y-85063000D01*
X187840252Y-83593000D02*
X187317748Y-83593000D01*
X187713252Y-120804000D02*
X187190748Y-120804000D01*
X187713252Y-122274000D02*
X187190748Y-122274000D01*
X234576252Y-104875000D02*
X234053748Y-104875000D01*
X234576252Y-103405000D02*
X234053748Y-103405000D01*
X163175000Y-102747500D02*
X166025000Y-105347500D01*
X178875000Y-97047500D02*
X166025000Y-97047500D01*
X166025000Y-105347500D02*
X178875000Y-105347500D01*
X166025000Y-97047500D02*
X163175000Y-99597500D01*
X178875000Y-105347500D02*
X178875000Y-97047500D01*
X163175000Y-99597500D02*
X163175000Y-102747500D01*
X187818752Y-65940000D02*
X187296248Y-65940000D01*
X187818752Y-67410000D02*
X187296248Y-67410000D01*
X238430000Y-88590000D02*
X247670000Y-88590000D01*
X247670000Y-96830000D02*
X247670000Y-94550000D01*
X240020000Y-88590000D02*
X240020000Y-96830000D01*
X238430000Y-90870000D02*
X238430000Y-88590000D01*
X239780000Y-88590000D02*
X239780000Y-96830000D01*
X239900000Y-88590000D02*
X239900000Y-96830000D01*
X238430000Y-96830000D02*
X247670000Y-96830000D01*
X247670000Y-88590000D02*
X247670000Y-90870000D01*
X238430000Y-94550000D02*
X238430000Y-96830000D01*
X210973936Y-85371000D02*
X211428064Y-85371000D01*
X210973936Y-86841000D02*
X211428064Y-86841000D01*
X234576252Y-108485000D02*
X234053748Y-108485000D01*
X234576252Y-109955000D02*
X234053748Y-109955000D01*
X178665000Y-71460000D02*
X178665000Y-63160000D01*
X165815000Y-71460000D02*
X178665000Y-71460000D01*
X165815000Y-63160000D02*
X162965000Y-65710000D01*
X162965000Y-65710000D02*
X162965000Y-68860000D01*
X162965000Y-68860000D02*
X165815000Y-71460000D01*
X178665000Y-63160000D02*
X165815000Y-63160000D01*
X250798064Y-74522000D02*
X250343936Y-74522000D01*
X250798064Y-73052000D02*
X250343936Y-73052000D01*
X210732500Y-134620000D02*
X175172500Y-134620000D01*
X210732500Y-135890000D02*
X175172500Y-135890000D01*
X210732500Y-142240000D02*
X210732500Y-134620000D01*
X175172500Y-134620000D02*
X175172500Y-142240000D01*
X210732500Y-142240000D02*
X175172500Y-142240000D01*
%LPC*%
D15*
X257683000Y-133350000D03*
D16*
X257683000Y-138430000D03*
D17*
X191135000Y-75530000D03*
X189865000Y-75530000D03*
X188595000Y-75530000D03*
X187325000Y-75530000D03*
X187325000Y-80680000D03*
X188595000Y-80680000D03*
X189865000Y-80680000D03*
X191135000Y-80680000D03*
D18*
X210185000Y-54356000D03*
X212185000Y-54356000D03*
D19*
X260652500Y-120965000D03*
X260652500Y-119065000D03*
X258777500Y-120015000D03*
D20*
X165100000Y-138430000D03*
D21*
X188341000Y-105283000D03*
X186266000Y-105283000D03*
D18*
X224155000Y-71120000D03*
X226155000Y-71120000D03*
D22*
X210185000Y-107125000D03*
D23*
X212725000Y-90465000D03*
D24*
X210185000Y-90465000D03*
X207645000Y-90465000D03*
D25*
X167215000Y-84455000D03*
D26*
X174415000Y-84455000D03*
D27*
X251809000Y-86360000D03*
X249809000Y-86360000D03*
D28*
X265700000Y-92710000D03*
D26*
X258500000Y-92710000D03*
D21*
X188595000Y-69850000D03*
X186520000Y-69850000D03*
D15*
X222885000Y-106680000D03*
D16*
X222885000Y-101600000D03*
D27*
X246491000Y-73787000D03*
X244491000Y-73787000D03*
D21*
X188638000Y-87757000D03*
X186563000Y-87757000D03*
X188489500Y-118364000D03*
X186414500Y-118364000D03*
D20*
X164719000Y-55880000D03*
D22*
X224155000Y-93345000D03*
D23*
X226695000Y-76685000D03*
D24*
X224155000Y-76685000D03*
X221615000Y-76685000D03*
D29*
X236490000Y-67310000D03*
D22*
X249190000Y-67310000D03*
D29*
X236490000Y-80010000D03*
D22*
X249190000Y-80010000D03*
D19*
X260652500Y-115885000D03*
X260652500Y-113985000D03*
X258777500Y-114935000D03*
X260652500Y-125979000D03*
X260652500Y-124079000D03*
X258777500Y-125029000D03*
D22*
X255715000Y-106680000D03*
D30*
X239055000Y-104140000D03*
D31*
X239055000Y-106680000D03*
X239055000Y-109220000D03*
D17*
X191008000Y-93564000D03*
X189738000Y-93564000D03*
X188468000Y-93564000D03*
X187198000Y-93564000D03*
X187198000Y-98714000D03*
X188468000Y-98714000D03*
X189738000Y-98714000D03*
X191008000Y-98714000D03*
D27*
X251825000Y-60706000D03*
X249825000Y-60706000D03*
D25*
X167425000Y-116437500D03*
D26*
X174625000Y-116437500D03*
D27*
X246745000Y-60706000D03*
X244745000Y-60706000D03*
D28*
X265910000Y-80010000D03*
D26*
X258710000Y-80010000D03*
D22*
X210185000Y-75080000D03*
D23*
X212725000Y-58420000D03*
D24*
X210185000Y-58420000D03*
X207645000Y-58420000D03*
D21*
X188384000Y-101727000D03*
X186309000Y-101727000D03*
D15*
X225425000Y-56515000D03*
D16*
X220345000Y-56515000D03*
D28*
X265700000Y-67310000D03*
D26*
X258500000Y-67310000D03*
D17*
X191135000Y-58385000D03*
X189865000Y-58385000D03*
X188595000Y-58385000D03*
X187325000Y-58385000D03*
X187325000Y-63535000D03*
X188595000Y-63535000D03*
X189865000Y-63535000D03*
X191135000Y-63535000D03*
X191029500Y-110363000D03*
X189759500Y-110363000D03*
X188489500Y-110363000D03*
X187219500Y-110363000D03*
X187219500Y-115513000D03*
X188489500Y-115513000D03*
X189759500Y-115513000D03*
X191029500Y-115513000D03*
D20*
X267970000Y-138430000D03*
D27*
X246729000Y-86360000D03*
X244729000Y-86360000D03*
D32*
X217170000Y-134620000D03*
D33*
X219710000Y-134620000D03*
X222250000Y-134620000D03*
X224790000Y-134620000D03*
X227330000Y-134620000D03*
X229870000Y-134620000D03*
X232410000Y-134620000D03*
X234950000Y-134620000D03*
X237490000Y-134620000D03*
X240030000Y-134620000D03*
X242570000Y-134620000D03*
X245110000Y-134620000D03*
X247650000Y-134620000D03*
X250190000Y-134620000D03*
X250190000Y-132080000D03*
X250190000Y-129540000D03*
X250190000Y-127000000D03*
X250190000Y-124460000D03*
X250190000Y-121920000D03*
X250190000Y-119380000D03*
X247650000Y-119380000D03*
X245110000Y-119380000D03*
X242570000Y-119380000D03*
X240030000Y-119380000D03*
X237490000Y-119380000D03*
X234950000Y-119380000D03*
X232410000Y-119380000D03*
X229870000Y-119380000D03*
X227330000Y-119380000D03*
X224790000Y-119380000D03*
X222250000Y-119380000D03*
X219710000Y-119380000D03*
X217170000Y-119380000D03*
X219710000Y-121920000D03*
X224790000Y-121920000D03*
X227330000Y-121920000D03*
X229870000Y-121920000D03*
D34*
X227330000Y-127000000D03*
X223520000Y-127000000D03*
D15*
X238125000Y-56515000D03*
D16*
X233045000Y-56515000D03*
D21*
X188616500Y-84328000D03*
X186541500Y-84328000D03*
X188489500Y-121539000D03*
X186414500Y-121539000D03*
X235352500Y-104140000D03*
X233277500Y-104140000D03*
D25*
X167425000Y-101197500D03*
D26*
X174625000Y-101197500D03*
D21*
X188595000Y-66675000D03*
X186520000Y-66675000D03*
D29*
X236700000Y-92710000D03*
D22*
X249400000Y-92710000D03*
D18*
X210201000Y-86106000D03*
X212201000Y-86106000D03*
D21*
X235352500Y-109220000D03*
X233277500Y-109220000D03*
D25*
X167215000Y-67310000D03*
D26*
X174415000Y-67310000D03*
D20*
X267970000Y-55880000D03*
D27*
X251571000Y-73787000D03*
X249571000Y-73787000D03*
D15*
X208192500Y-138430000D03*
D16*
X203112500Y-138430000D03*
X198032500Y-138430000D03*
X192952500Y-138430000D03*
X187872500Y-138430000D03*
X182792500Y-138430000D03*
X177712500Y-138430000D03*
M02*
