G04 #@! TF.GenerationSoftware,KiCad,Pcbnew,6.0.9-8da3e8f707~116~ubuntu22.04.1*
G04 #@! TF.CreationDate,2022-12-04T14:53:19+01:00*
G04 #@! TF.ProjectId,robot_power,726f626f-745f-4706-9f77-65722e6b6963,rev?*
G04 #@! TF.SameCoordinates,Original*
G04 #@! TF.FileFunction,Soldermask,Top*
G04 #@! TF.FilePolarity,Negative*
%FSLAX46Y46*%
G04 Gerber Fmt 4.6, Leading zero omitted, Abs format (unit mm)*
G04 Created by KiCad (PCBNEW 6.0.9-8da3e8f707~116~ubuntu22.04.1) date 2022-12-04 14:53:19*
%MOMM*%
%LPD*%
G01*
G04 APERTURE LIST*
G04 Aperture macros list*
%AMRoundRect*
0 Rectangle with rounded corners*
0 $1 Rounding radius*
0 $2 $3 $4 $5 $6 $7 $8 $9 X,Y pos of 4 corners*
0 Add a 4 corners polygon primitive as box body*
4,1,4,$2,$3,$4,$5,$6,$7,$8,$9,$2,$3,0*
0 Add four circle primitives for the rounded corners*
1,1,$1+$1,$2,$3*
1,1,$1+$1,$4,$5*
1,1,$1+$1,$6,$7*
1,1,$1+$1,$8,$9*
0 Add four rect primitives between the rounded corners*
20,1,$1+$1,$2,$3,$4,$5,0*
20,1,$1+$1,$4,$5,$6,$7,0*
20,1,$1+$1,$6,$7,$8,$9,0*
20,1,$1+$1,$8,$9,$2,$3,0*%
G04 Aperture macros list end*
%ADD10R,3.000000X3.000000*%
%ADD11C,3.000000*%
%ADD12RoundRect,0.150000X-0.150000X0.725000X-0.150000X-0.725000X0.150000X-0.725000X0.150000X0.725000X0*%
%ADD13RoundRect,0.250000X-0.350000X-0.450000X0.350000X-0.450000X0.350000X0.450000X-0.350000X0.450000X0*%
%ADD14RoundRect,0.150000X0.587500X0.150000X-0.587500X0.150000X-0.587500X-0.150000X0.587500X-0.150000X0*%
%ADD15C,3.200000*%
%ADD16RoundRect,0.250000X0.337500X0.475000X-0.337500X0.475000X-0.337500X-0.475000X0.337500X-0.475000X0*%
%ADD17O,3.500000X3.500000*%
%ADD18R,1.905000X2.000000*%
%ADD19O,1.905000X2.000000*%
%ADD20RoundRect,1.500000X-1.500000X-1.500000X1.500000X-1.500000X1.500000X1.500000X-1.500000X1.500000X0*%
%ADD21C,6.000000*%
%ADD22RoundRect,0.250000X0.350000X0.450000X-0.350000X0.450000X-0.350000X-0.450000X0.350000X-0.450000X0*%
%ADD23RoundRect,1.500000X1.500000X1.500000X-1.500000X1.500000X-1.500000X-1.500000X1.500000X-1.500000X0*%
%ADD24R,3.500000X3.500000*%
%ADD25R,2.000000X1.905000*%
%ADD26O,2.000000X1.905000*%
%ADD27R,1.600000X1.600000*%
%ADD28C,1.600000*%
%ADD29C,1.900000*%
G04 APERTURE END LIST*
D10*
X257683000Y-133350000D03*
D11*
X257683000Y-138430000D03*
D12*
X191135000Y-75530000D03*
X189865000Y-75530000D03*
X188595000Y-75530000D03*
X187325000Y-75530000D03*
X187325000Y-80680000D03*
X188595000Y-80680000D03*
X189865000Y-80680000D03*
X191135000Y-80680000D03*
D13*
X210185000Y-54356000D03*
X212185000Y-54356000D03*
D14*
X260652500Y-120965000D03*
X260652500Y-119065000D03*
X258777500Y-120015000D03*
D15*
X165100000Y-138430000D03*
D16*
X188341000Y-105283000D03*
X186266000Y-105283000D03*
D13*
X224155000Y-71120000D03*
X226155000Y-71120000D03*
D17*
X210185000Y-107125000D03*
D18*
X212725000Y-90465000D03*
D19*
X210185000Y-90465000D03*
X207645000Y-90465000D03*
D20*
X167215000Y-84455000D03*
D21*
X174415000Y-84455000D03*
D22*
X251809000Y-86360000D03*
X249809000Y-86360000D03*
D23*
X265700000Y-92710000D03*
D21*
X258500000Y-92710000D03*
D16*
X188595000Y-69850000D03*
X186520000Y-69850000D03*
D10*
X222885000Y-106680000D03*
D11*
X222885000Y-101600000D03*
D22*
X246491000Y-73787000D03*
X244491000Y-73787000D03*
D16*
X188638000Y-87757000D03*
X186563000Y-87757000D03*
X188489500Y-118364000D03*
X186414500Y-118364000D03*
D15*
X164719000Y-55880000D03*
D17*
X224155000Y-93345000D03*
D18*
X226695000Y-76685000D03*
D19*
X224155000Y-76685000D03*
X221615000Y-76685000D03*
D24*
X236490000Y-67310000D03*
D17*
X249190000Y-67310000D03*
D24*
X236490000Y-80010000D03*
D17*
X249190000Y-80010000D03*
D14*
X260652500Y-115885000D03*
X260652500Y-113985000D03*
X258777500Y-114935000D03*
X260652500Y-125979000D03*
X260652500Y-124079000D03*
X258777500Y-125029000D03*
D17*
X255715000Y-106680000D03*
D25*
X239055000Y-104140000D03*
D26*
X239055000Y-106680000D03*
X239055000Y-109220000D03*
D12*
X191008000Y-93564000D03*
X189738000Y-93564000D03*
X188468000Y-93564000D03*
X187198000Y-93564000D03*
X187198000Y-98714000D03*
X188468000Y-98714000D03*
X189738000Y-98714000D03*
X191008000Y-98714000D03*
D22*
X251825000Y-60706000D03*
X249825000Y-60706000D03*
D20*
X167425000Y-116437500D03*
D21*
X174625000Y-116437500D03*
D22*
X246745000Y-60706000D03*
X244745000Y-60706000D03*
D23*
X265910000Y-80010000D03*
D21*
X258710000Y-80010000D03*
D17*
X210185000Y-75080000D03*
D18*
X212725000Y-58420000D03*
D19*
X210185000Y-58420000D03*
X207645000Y-58420000D03*
D16*
X188384000Y-101727000D03*
X186309000Y-101727000D03*
D10*
X225425000Y-56515000D03*
D11*
X220345000Y-56515000D03*
D23*
X265700000Y-67310000D03*
D21*
X258500000Y-67310000D03*
D12*
X191135000Y-58385000D03*
X189865000Y-58385000D03*
X188595000Y-58385000D03*
X187325000Y-58385000D03*
X187325000Y-63535000D03*
X188595000Y-63535000D03*
X189865000Y-63535000D03*
X191135000Y-63535000D03*
X191029500Y-110363000D03*
X189759500Y-110363000D03*
X188489500Y-110363000D03*
X187219500Y-110363000D03*
X187219500Y-115513000D03*
X188489500Y-115513000D03*
X189759500Y-115513000D03*
X191029500Y-115513000D03*
D15*
X267970000Y-138430000D03*
D22*
X246729000Y-86360000D03*
X244729000Y-86360000D03*
D27*
X217170000Y-134620000D03*
D28*
X219710000Y-134620000D03*
X222250000Y-134620000D03*
X224790000Y-134620000D03*
X227330000Y-134620000D03*
X229870000Y-134620000D03*
X232410000Y-134620000D03*
X234950000Y-134620000D03*
X237490000Y-134620000D03*
X240030000Y-134620000D03*
X242570000Y-134620000D03*
X245110000Y-134620000D03*
X247650000Y-134620000D03*
X250190000Y-134620000D03*
X250190000Y-132080000D03*
X250190000Y-129540000D03*
X250190000Y-127000000D03*
X250190000Y-124460000D03*
X250190000Y-121920000D03*
X250190000Y-119380000D03*
X247650000Y-119380000D03*
X245110000Y-119380000D03*
X242570000Y-119380000D03*
X240030000Y-119380000D03*
X237490000Y-119380000D03*
X234950000Y-119380000D03*
X232410000Y-119380000D03*
X229870000Y-119380000D03*
X227330000Y-119380000D03*
X224790000Y-119380000D03*
X222250000Y-119380000D03*
X219710000Y-119380000D03*
X217170000Y-119380000D03*
X219710000Y-121920000D03*
X224790000Y-121920000D03*
X227330000Y-121920000D03*
X229870000Y-121920000D03*
D29*
X227330000Y-127000000D03*
X223520000Y-127000000D03*
D10*
X238125000Y-56515000D03*
D11*
X233045000Y-56515000D03*
D16*
X188616500Y-84328000D03*
X186541500Y-84328000D03*
X188489500Y-121539000D03*
X186414500Y-121539000D03*
X235352500Y-104140000D03*
X233277500Y-104140000D03*
D20*
X167425000Y-101197500D03*
D21*
X174625000Y-101197500D03*
D16*
X188595000Y-66675000D03*
X186520000Y-66675000D03*
D24*
X236700000Y-92710000D03*
D17*
X249400000Y-92710000D03*
D13*
X210201000Y-86106000D03*
X212201000Y-86106000D03*
D16*
X235352500Y-109220000D03*
X233277500Y-109220000D03*
D20*
X167215000Y-67310000D03*
D21*
X174415000Y-67310000D03*
D15*
X267970000Y-55880000D03*
D22*
X251571000Y-73787000D03*
X249571000Y-73787000D03*
D10*
X208192500Y-138430000D03*
D11*
X203112500Y-138430000D03*
X198032500Y-138430000D03*
X192952500Y-138430000D03*
X187872500Y-138430000D03*
X182792500Y-138430000D03*
X177712500Y-138430000D03*
M02*
