G04 #@! TF.GenerationSoftware,KiCad,Pcbnew,6.0.9-8da3e8f707~116~ubuntu22.04.1*
G04 #@! TF.CreationDate,2022-12-04T14:53:19+01:00*
G04 #@! TF.ProjectId,robot_power,726f626f-745f-4706-9f77-65722e6b6963,rev?*
G04 #@! TF.SameCoordinates,Original*
G04 #@! TF.FileFunction,Legend,Bot*
G04 #@! TF.FilePolarity,Positive*
%FSLAX46Y46*%
G04 Gerber Fmt 4.6, Leading zero omitted, Abs format (unit mm)*
G04 Created by KiCad (PCBNEW 6.0.9-8da3e8f707~116~ubuntu22.04.1) date 2022-12-04 14:53:19*
%MOMM*%
%LPD*%
G01*
G04 APERTURE LIST*
G04 Aperture macros list*
%AMRoundRect*
0 Rectangle with rounded corners*
0 $1 Rounding radius*
0 $2 $3 $4 $5 $6 $7 $8 $9 X,Y pos of 4 corners*
0 Add a 4 corners polygon primitive as box body*
4,1,4,$2,$3,$4,$5,$6,$7,$8,$9,$2,$3,0*
0 Add four circle primitives for the rounded corners*
1,1,$1+$1,$2,$3*
1,1,$1+$1,$4,$5*
1,1,$1+$1,$6,$7*
1,1,$1+$1,$8,$9*
0 Add four rect primitives between the rounded corners*
20,1,$1+$1,$2,$3,$4,$5,0*
20,1,$1+$1,$4,$5,$6,$7,0*
20,1,$1+$1,$6,$7,$8,$9,0*
20,1,$1+$1,$8,$9,$2,$3,0*%
G04 Aperture macros list end*
%ADD10R,3.000000X3.000000*%
%ADD11C,3.000000*%
%ADD12C,3.200000*%
%ADD13O,3.500000X3.500000*%
%ADD14R,1.905000X2.000000*%
%ADD15O,1.905000X2.000000*%
%ADD16RoundRect,1.500000X-1.500000X-1.500000X1.500000X-1.500000X1.500000X1.500000X-1.500000X1.500000X0*%
%ADD17C,6.000000*%
%ADD18RoundRect,1.500000X1.500000X1.500000X-1.500000X1.500000X-1.500000X-1.500000X1.500000X-1.500000X0*%
%ADD19R,3.500000X3.500000*%
%ADD20R,2.000000X1.905000*%
%ADD21O,2.000000X1.905000*%
%ADD22R,1.600000X1.600000*%
%ADD23C,1.600000*%
%ADD24C,1.900000*%
G04 APERTURE END LIST*
%LPC*%
D10*
X257683000Y-133350000D03*
D11*
X257683000Y-138430000D03*
D12*
X165100000Y-138430000D03*
D13*
X210185000Y-107125000D03*
D14*
X212725000Y-90465000D03*
D15*
X210185000Y-90465000D03*
X207645000Y-90465000D03*
D16*
X167215000Y-84455000D03*
D17*
X174415000Y-84455000D03*
D18*
X265700000Y-92710000D03*
D17*
X258500000Y-92710000D03*
D10*
X222885000Y-106680000D03*
D11*
X222885000Y-101600000D03*
D12*
X164719000Y-55880000D03*
D13*
X224155000Y-93345000D03*
D14*
X226695000Y-76685000D03*
D15*
X224155000Y-76685000D03*
X221615000Y-76685000D03*
D19*
X236490000Y-67310000D03*
D13*
X249190000Y-67310000D03*
D19*
X236490000Y-80010000D03*
D13*
X249190000Y-80010000D03*
X255715000Y-106680000D03*
D20*
X239055000Y-104140000D03*
D21*
X239055000Y-106680000D03*
X239055000Y-109220000D03*
D16*
X167425000Y-116437500D03*
D17*
X174625000Y-116437500D03*
D18*
X265910000Y-80010000D03*
D17*
X258710000Y-80010000D03*
D13*
X210185000Y-75080000D03*
D14*
X212725000Y-58420000D03*
D15*
X210185000Y-58420000D03*
X207645000Y-58420000D03*
D10*
X225425000Y-56515000D03*
D11*
X220345000Y-56515000D03*
D18*
X265700000Y-67310000D03*
D17*
X258500000Y-67310000D03*
D12*
X267970000Y-138430000D03*
D22*
X217170000Y-134620000D03*
D23*
X219710000Y-134620000D03*
X222250000Y-134620000D03*
X224790000Y-134620000D03*
X227330000Y-134620000D03*
X229870000Y-134620000D03*
X232410000Y-134620000D03*
X234950000Y-134620000D03*
X237490000Y-134620000D03*
X240030000Y-134620000D03*
X242570000Y-134620000D03*
X245110000Y-134620000D03*
X247650000Y-134620000D03*
X250190000Y-134620000D03*
X250190000Y-132080000D03*
X250190000Y-129540000D03*
X250190000Y-127000000D03*
X250190000Y-124460000D03*
X250190000Y-121920000D03*
X250190000Y-119380000D03*
X247650000Y-119380000D03*
X245110000Y-119380000D03*
X242570000Y-119380000D03*
X240030000Y-119380000D03*
X237490000Y-119380000D03*
X234950000Y-119380000D03*
X232410000Y-119380000D03*
X229870000Y-119380000D03*
X227330000Y-119380000D03*
X224790000Y-119380000D03*
X222250000Y-119380000D03*
X219710000Y-119380000D03*
X217170000Y-119380000D03*
X219710000Y-121920000D03*
X224790000Y-121920000D03*
X227330000Y-121920000D03*
X229870000Y-121920000D03*
D24*
X227330000Y-127000000D03*
X223520000Y-127000000D03*
D10*
X238125000Y-56515000D03*
D11*
X233045000Y-56515000D03*
D16*
X167425000Y-101197500D03*
D17*
X174625000Y-101197500D03*
D19*
X236700000Y-92710000D03*
D13*
X249400000Y-92710000D03*
D16*
X167215000Y-67310000D03*
D17*
X174415000Y-67310000D03*
D12*
X267970000Y-55880000D03*
D10*
X208192500Y-138430000D03*
D11*
X203112500Y-138430000D03*
X198032500Y-138430000D03*
X192952500Y-138430000D03*
X187872500Y-138430000D03*
X182792500Y-138430000D03*
X177712500Y-138430000D03*
M02*
