M48
; DRILL file {KiCad 6.0.9-8da3e8f707~116~ubuntu22.04.1} date So 04 Dez 2022 14:53:36 CET
; FORMAT={-:-/ absolute / metric / decimal}
; #@! TF.CreationDate,2022-12-04T14:53:36+01:00
; #@! TF.GenerationSoftware,Kicad,Pcbnew,6.0.9-8da3e8f707~116~ubuntu22.04.1
; #@! TF.FileFunction,Plated,1,2,PTH
FMAT,2
METRIC
; #@! TA.AperFunction,Plated,PTH,ComponentDrill
T1C0.500
; #@! TA.AperFunction,Plated,PTH,ViaDrill
T2C0.800
; #@! TA.AperFunction,Plated,PTH,ViaDrill
T3C1.000
; #@! TA.AperFunction,Plated,PTH,ComponentDrill
T4C1.100
; #@! TA.AperFunction,Plated,PTH,ComponentDrill
T5C1.800
; #@! TA.AperFunction,Plated,PTH,ComponentDrill
T6C1.900
; #@! TA.AperFunction,Plated,PTH,ComponentDrill
T7C4.500
%
G90
G05
T1
X223.52Y-127.0
X227.33Y-127.0
T2
X161.544Y-52.832
X164.338Y-61.468
X167.64Y-62.865
X168.148Y-52.832
X168.656Y-57.912
X169.545Y-62.865
X179.07Y-53.594
X192.532Y-53.34
X202.946Y-53.34
X203.2Y-114.3
X203.835Y-119.38
X210.566Y-61.214
X210.566Y-93.98
X210.82Y-70.104
X211.074Y-80.264
X213.614Y-61.214
X214.884Y-93.98
X216.154Y-79.756
X216.408Y-53.34
X216.916Y-90.424
X217.17Y-94.234
X217.932Y-63.246
X218.44Y-87.376
X218.694Y-53.34
X221.234Y-53.34
X221.234Y-62.992
X221.234Y-68.072
X221.234Y-73.406
X221.234Y-80.772
X221.234Y-85.852
X224.028Y-53.34
X224.536Y-64.516
X224.536Y-84.074
X229.108Y-55.118
X229.108Y-58.166
X230.632Y-74.168
X231.14Y-81.28
X231.394Y-64.516
X232.41Y-88.392
X233.172Y-94.996
X236.728Y-71.12
X236.728Y-84.074
X236.728Y-86.868
X236.982Y-75.184
X242.062Y-54.61
X242.062Y-58.166
X242.189Y-114.681
X242.57Y-60.96
X248.92Y-114.935
X249.555Y-113.03
X249.936Y-106.934
X250.19Y-110.236
X250.444Y-141.732
X250.952Y-137.668
X252.73Y-132.334
X253.746Y-127.254
X255.27Y-121.92
X255.524Y-53.34
X256.54Y-116.84
X257.556Y-112.014
X258.064Y-141.986
X260.858Y-53.34
X261.62Y-107.696
X262.128Y-127.762
X263.652Y-141.732
X263.906Y-98.552
X264.16Y-53.34
X264.668Y-73.66
X265.176Y-86.106
X265.176Y-103.886
X267.462Y-116.078
X267.462Y-126.238
X270.256Y-101.854
X270.51Y-74.168
X270.51Y-110.998
X270.51Y-122.936
X270.764Y-62.484
X270.764Y-86.868
X270.764Y-132.842
X270.764Y-141.986
X271.018Y-52.832
T3
X162.306Y-63.246
X162.306Y-74.168
X162.306Y-78.613
X162.56Y-106.934
X162.56Y-127.0
X162.56Y-130.81
X162.56Y-134.62
X162.687Y-91.694
X162.687Y-122.809
X163.068Y-96.647
X163.068Y-112.141
X167.64Y-123.825
X167.894Y-92.075
X168.148Y-107.442
X168.275Y-74.549
X168.275Y-95.504
X168.275Y-110.363
X168.529Y-78.359
X168.91Y-132.08
X170.18Y-140.97
X172.72Y-135.89
X172.72Y-140.97
X174.879Y-125.476
X175.641Y-128.778
X180.467Y-125.476
X184.023Y-98.425
X184.023Y-102.997
X184.15Y-105.791
X184.277Y-80.01
X184.404Y-85.725
X184.404Y-88.392
X184.658Y-68.072
X184.658Y-70.739
X184.785Y-62.992
X184.912Y-125.095
X190.373Y-101.727
X190.373Y-118.237
X190.5Y-66.294
X190.627Y-69.215
X190.627Y-83.693
X190.69Y-105.219
X190.754Y-87.122
X192.532Y-116.078
X192.659Y-81.28
X192.659Y-99.314
X194.183Y-118.237
X195.326Y-115.189
X198.374Y-114.935
X214.122Y-112.395
X214.249Y-105.791
X214.884Y-109.474
X219.075Y-108.585
X224.79Y-112.395
X228.092Y-109.093
X230.124Y-106.934
X231.14Y-109.728
X233.68Y-112.395
X236.347Y-106.807
X239.268Y-112.141
X242.443Y-73.787
X243.84Y-84.201
X244.602Y-58.42
X245.11Y-112.649
X263.525Y-117.191
X263.525Y-121.92
X263.603Y-126.045
T4
X207.645Y-58.42
X207.645Y-90.465
X210.185Y-58.42
X210.185Y-90.465
X212.725Y-58.42
X212.725Y-90.465
X217.17Y-119.38
X217.17Y-134.62
X219.71Y-119.38
X219.71Y-121.92
X219.71Y-134.62
X221.615Y-76.685
X222.25Y-119.38
X222.25Y-134.62
X224.155Y-76.685
X224.79Y-119.38
X224.79Y-121.92
X224.79Y-134.62
X226.695Y-76.685
X227.33Y-119.38
X227.33Y-121.92
X227.33Y-134.62
X229.87Y-119.38
X229.87Y-121.92
X229.87Y-134.62
X232.41Y-119.38
X232.41Y-134.62
X234.95Y-119.38
X234.95Y-134.62
X237.49Y-119.38
X237.49Y-134.62
X239.055Y-104.14
X239.055Y-106.68
X239.055Y-109.22
X240.03Y-119.38
X240.03Y-134.62
X242.57Y-119.38
X242.57Y-134.62
X245.11Y-119.38
X245.11Y-134.62
X247.65Y-119.38
X247.65Y-134.62
X250.19Y-119.38
X250.19Y-121.92
X250.19Y-124.46
X250.19Y-127.0
X250.19Y-129.54
X250.19Y-132.08
X250.19Y-134.62
T5
X177.713Y-138.43
X182.792Y-138.43
X187.873Y-138.43
X192.952Y-138.43
X198.032Y-138.43
X203.112Y-138.43
X208.192Y-138.43
X220.345Y-56.515
X222.885Y-101.6
X222.885Y-106.68
X225.425Y-56.515
X233.045Y-56.515
X238.125Y-56.515
X257.683Y-133.35
X257.683Y-138.43
T6
X236.49Y-67.31
X236.49Y-80.01
X236.7Y-92.71
X249.19Y-67.31
X249.19Y-80.01
X249.4Y-92.71
T7
X167.215Y-67.31
X167.215Y-84.455
X167.425Y-101.197
X167.425Y-116.438
X174.415Y-67.31
X174.415Y-84.455
X174.625Y-101.197
X174.625Y-116.438
X258.5Y-67.31
X258.5Y-92.71
X258.71Y-80.01
X265.7Y-67.31
X265.7Y-92.71
X265.91Y-80.01
T0
M30
