G04 #@! TF.GenerationSoftware,KiCad,Pcbnew,6.0.9-8da3e8f707~116~ubuntu22.04.1*
G04 #@! TF.CreationDate,2022-12-04T14:58:13+01:00*
G04 #@! TF.ProjectId,24V_board,3234565f-626f-4617-9264-2e6b69636164,rev?*
G04 #@! TF.SameCoordinates,Original*
G04 #@! TF.FileFunction,Legend,Top*
G04 #@! TF.FilePolarity,Positive*
%FSLAX46Y46*%
G04 Gerber Fmt 4.6, Leading zero omitted, Abs format (unit mm)*
G04 Created by KiCad (PCBNEW 6.0.9-8da3e8f707~116~ubuntu22.04.1) date 2022-12-04 14:58:13*
%MOMM*%
%LPD*%
G01*
G04 APERTURE LIST*
G04 Aperture macros list*
%AMRoundRect*
0 Rectangle with rounded corners*
0 $1 Rounding radius*
0 $2 $3 $4 $5 $6 $7 $8 $9 X,Y pos of 4 corners*
0 Add a 4 corners polygon primitive as box body*
4,1,4,$2,$3,$4,$5,$6,$7,$8,$9,$2,$3,0*
0 Add four circle primitives for the rounded corners*
1,1,$1+$1,$2,$3*
1,1,$1+$1,$4,$5*
1,1,$1+$1,$6,$7*
1,1,$1+$1,$8,$9*
0 Add four rect primitives between the rounded corners*
20,1,$1+$1,$2,$3,$4,$5,0*
20,1,$1+$1,$4,$5,$6,$7,0*
20,1,$1+$1,$6,$7,$8,$9,0*
20,1,$1+$1,$8,$9,$2,$3,0*%
G04 Aperture macros list end*
%ADD10C,0.300000*%
%ADD11C,0.150000*%
%ADD12C,0.120000*%
%ADD13O,3.500000X3.500000*%
%ADD14R,2.000000X1.905000*%
%ADD15O,2.000000X1.905000*%
%ADD16RoundRect,1.500000X1.500000X-1.500000X1.500000X1.500000X-1.500000X1.500000X-1.500000X-1.500000X0*%
%ADD17C,6.000000*%
%ADD18RoundRect,0.250000X0.450000X-0.350000X0.450000X0.350000X-0.450000X0.350000X-0.450000X-0.350000X0*%
%ADD19C,3.200000*%
%ADD20R,3.000000X3.000000*%
%ADD21C,3.000000*%
%ADD22R,1.700000X1.700000*%
%ADD23O,1.700000X1.700000*%
%ADD24RoundRect,0.250000X-0.350000X-0.450000X0.350000X-0.450000X0.350000X0.450000X-0.350000X0.450000X0*%
G04 APERTURE END LIST*
D10*
X137470000Y-55605071D02*
X137470000Y-54105071D01*
X138327142Y-55605071D01*
X138327142Y-54105071D01*
X139255714Y-55605071D02*
X139112857Y-55533642D01*
X139041428Y-55462214D01*
X138970000Y-55319357D01*
X138970000Y-54890785D01*
X139041428Y-54747928D01*
X139112857Y-54676500D01*
X139255714Y-54605071D01*
X139470000Y-54605071D01*
X139612857Y-54676500D01*
X139684285Y-54747928D01*
X139755714Y-54890785D01*
X139755714Y-55319357D01*
X139684285Y-55462214D01*
X139612857Y-55533642D01*
X139470000Y-55605071D01*
X139255714Y-55605071D01*
X140184285Y-54605071D02*
X140755714Y-54605071D01*
X140398571Y-54105071D02*
X140398571Y-55390785D01*
X140470000Y-55533642D01*
X140612857Y-55605071D01*
X140755714Y-55605071D01*
X141898571Y-55605071D02*
X141898571Y-54819357D01*
X141827142Y-54676500D01*
X141684285Y-54605071D01*
X141398571Y-54605071D01*
X141255714Y-54676500D01*
X141898571Y-55533642D02*
X141755714Y-55605071D01*
X141398571Y-55605071D01*
X141255714Y-55533642D01*
X141184285Y-55390785D01*
X141184285Y-55247928D01*
X141255714Y-55105071D01*
X141398571Y-55033642D01*
X141755714Y-55033642D01*
X141898571Y-54962214D01*
X143255714Y-54605071D02*
X143255714Y-55605071D01*
X142612857Y-54605071D02*
X142612857Y-55390785D01*
X142684285Y-55533642D01*
X142827142Y-55605071D01*
X143041428Y-55605071D01*
X143184285Y-55533642D01*
X143255714Y-55462214D01*
X143898571Y-55533642D02*
X144041428Y-55605071D01*
X144327142Y-55605071D01*
X144470000Y-55533642D01*
X144541428Y-55390785D01*
X144541428Y-55319357D01*
X144470000Y-55176500D01*
X144327142Y-55105071D01*
X144112857Y-55105071D01*
X143970000Y-55033642D01*
X143898571Y-54890785D01*
X143898571Y-54819357D01*
X143970000Y-54676500D01*
X144112857Y-54605071D01*
X144327142Y-54605071D01*
X144470000Y-54676500D01*
X135755714Y-56520071D02*
X136255714Y-58020071D01*
X136755714Y-56520071D01*
X137827142Y-57948642D02*
X137684285Y-58020071D01*
X137398571Y-58020071D01*
X137255714Y-57948642D01*
X137184285Y-57805785D01*
X137184285Y-57234357D01*
X137255714Y-57091500D01*
X137398571Y-57020071D01*
X137684285Y-57020071D01*
X137827142Y-57091500D01*
X137898571Y-57234357D01*
X137898571Y-57377214D01*
X137184285Y-57520071D01*
X138541428Y-58020071D02*
X138541428Y-57020071D01*
X138541428Y-57305785D02*
X138612857Y-57162928D01*
X138684285Y-57091500D01*
X138827142Y-57020071D01*
X138970000Y-57020071D01*
X139398571Y-57948642D02*
X139541428Y-58020071D01*
X139827142Y-58020071D01*
X139970000Y-57948642D01*
X140041428Y-57805785D01*
X140041428Y-57734357D01*
X139970000Y-57591500D01*
X139827142Y-57520071D01*
X139612857Y-57520071D01*
X139470000Y-57448642D01*
X139398571Y-57305785D01*
X139398571Y-57234357D01*
X139470000Y-57091500D01*
X139612857Y-57020071D01*
X139827142Y-57020071D01*
X139970000Y-57091500D01*
X140684285Y-58020071D02*
X140684285Y-57020071D01*
X140684285Y-56520071D02*
X140612857Y-56591500D01*
X140684285Y-56662928D01*
X140755714Y-56591500D01*
X140684285Y-56520071D01*
X140684285Y-56662928D01*
X141612857Y-58020071D02*
X141470000Y-57948642D01*
X141398571Y-57877214D01*
X141327142Y-57734357D01*
X141327142Y-57305785D01*
X141398571Y-57162928D01*
X141470000Y-57091500D01*
X141612857Y-57020071D01*
X141827142Y-57020071D01*
X141970000Y-57091500D01*
X142041428Y-57162928D01*
X142112857Y-57305785D01*
X142112857Y-57734357D01*
X142041428Y-57877214D01*
X141970000Y-57948642D01*
X141827142Y-58020071D01*
X141612857Y-58020071D01*
X142755714Y-57020071D02*
X142755714Y-58020071D01*
X142755714Y-57162928D02*
X142827142Y-57091500D01*
X142970000Y-57020071D01*
X143184285Y-57020071D01*
X143327142Y-57091500D01*
X143398571Y-57234357D01*
X143398571Y-58020071D01*
X146041428Y-58020071D02*
X145184285Y-58020071D01*
X145612857Y-58020071D02*
X145612857Y-56520071D01*
X145470000Y-56734357D01*
X145327142Y-56877214D01*
X145184285Y-56948642D01*
X161452857Y-44366571D02*
X161452857Y-42866571D01*
X162310000Y-44366571D02*
X161667142Y-43509428D01*
X162310000Y-42866571D02*
X161452857Y-43723714D01*
X163595714Y-43366571D02*
X163595714Y-44366571D01*
X163238571Y-42795142D02*
X162881428Y-43866571D01*
X163810000Y-43866571D01*
X160259142Y-67480571D02*
X160259142Y-65980571D01*
X160616285Y-65980571D01*
X160830571Y-66052000D01*
X160973428Y-66194857D01*
X161044857Y-66337714D01*
X161116285Y-66623428D01*
X161116285Y-66837714D01*
X161044857Y-67123428D01*
X160973428Y-67266285D01*
X160830571Y-67409142D01*
X160616285Y-67480571D01*
X160259142Y-67480571D01*
X162402000Y-67480571D02*
X162402000Y-66694857D01*
X162330571Y-66552000D01*
X162187714Y-66480571D01*
X161902000Y-66480571D01*
X161759142Y-66552000D01*
X162402000Y-67409142D02*
X162259142Y-67480571D01*
X161902000Y-67480571D01*
X161759142Y-67409142D01*
X161687714Y-67266285D01*
X161687714Y-67123428D01*
X161759142Y-66980571D01*
X161902000Y-66909142D01*
X162259142Y-66909142D01*
X162402000Y-66837714D01*
X163116285Y-67480571D02*
X163116285Y-66480571D01*
X163116285Y-66766285D02*
X163187714Y-66623428D01*
X163259142Y-66552000D01*
X163402000Y-66480571D01*
X163544857Y-66480571D01*
X164044857Y-67480571D02*
X164044857Y-66480571D01*
X164044857Y-65980571D02*
X163973428Y-66052000D01*
X164044857Y-66123428D01*
X164116285Y-66052000D01*
X164044857Y-65980571D01*
X164044857Y-66123428D01*
X164973428Y-67480571D02*
X164830571Y-67409142D01*
X164759142Y-67337714D01*
X164687714Y-67194857D01*
X164687714Y-66766285D01*
X164759142Y-66623428D01*
X164830571Y-66552000D01*
X164973428Y-66480571D01*
X165187714Y-66480571D01*
X165330571Y-66552000D01*
X165402000Y-66623428D01*
X165473428Y-66766285D01*
X165473428Y-67194857D01*
X165402000Y-67337714D01*
X165330571Y-67409142D01*
X165187714Y-67480571D01*
X164973428Y-67480571D01*
X168044857Y-67480571D02*
X167187714Y-67480571D01*
X167616285Y-67480571D02*
X167616285Y-65980571D01*
X167473428Y-66194857D01*
X167330571Y-66337714D01*
X167187714Y-66409142D01*
X168759142Y-67480571D02*
X169044857Y-67480571D01*
X169187714Y-67409142D01*
X169259142Y-67337714D01*
X169402000Y-67123428D01*
X169473428Y-66837714D01*
X169473428Y-66266285D01*
X169402000Y-66123428D01*
X169330571Y-66052000D01*
X169187714Y-65980571D01*
X168902000Y-65980571D01*
X168759142Y-66052000D01*
X168687714Y-66123428D01*
X168616285Y-66266285D01*
X168616285Y-66623428D01*
X168687714Y-66766285D01*
X168759142Y-66837714D01*
X168902000Y-66909142D01*
X169187714Y-66909142D01*
X169330571Y-66837714D01*
X169402000Y-66766285D01*
X169473428Y-66623428D01*
X170116285Y-67337714D02*
X170187714Y-67409142D01*
X170116285Y-67480571D01*
X170044857Y-67409142D01*
X170116285Y-67337714D01*
X170116285Y-67480571D01*
X171616285Y-67480571D02*
X170759142Y-67480571D01*
X171187714Y-67480571D02*
X171187714Y-65980571D01*
X171044857Y-66194857D01*
X170902000Y-66337714D01*
X170759142Y-66409142D01*
X173044857Y-67480571D02*
X172187714Y-67480571D01*
X172616285Y-67480571D02*
X172616285Y-65980571D01*
X172473428Y-66194857D01*
X172330571Y-66337714D01*
X172187714Y-66409142D01*
X173687714Y-67337714D02*
X173759142Y-67409142D01*
X173687714Y-67480571D01*
X173616285Y-67409142D01*
X173687714Y-67337714D01*
X173687714Y-67480571D01*
X174330571Y-66123428D02*
X174402000Y-66052000D01*
X174544857Y-65980571D01*
X174902000Y-65980571D01*
X175044857Y-66052000D01*
X175116285Y-66123428D01*
X175187714Y-66266285D01*
X175187714Y-66409142D01*
X175116285Y-66623428D01*
X174259142Y-67480571D01*
X175187714Y-67480571D01*
X175759142Y-66123428D02*
X175830571Y-66052000D01*
X175973428Y-65980571D01*
X176330571Y-65980571D01*
X176473428Y-66052000D01*
X176544857Y-66123428D01*
X176616285Y-66266285D01*
X176616285Y-66409142D01*
X176544857Y-66623428D01*
X175687714Y-67480571D01*
X176616285Y-67480571D01*
X142402857Y-40048571D02*
X142402857Y-38548571D01*
X143260000Y-40048571D02*
X142617142Y-39191428D01*
X143260000Y-38548571D02*
X142402857Y-39405714D01*
X144617142Y-38548571D02*
X143902857Y-38548571D01*
X143831428Y-39262857D01*
X143902857Y-39191428D01*
X144045714Y-39120000D01*
X144402857Y-39120000D01*
X144545714Y-39191428D01*
X144617142Y-39262857D01*
X144688571Y-39405714D01*
X144688571Y-39762857D01*
X144617142Y-39905714D01*
X144545714Y-39977142D01*
X144402857Y-40048571D01*
X144045714Y-40048571D01*
X143902857Y-39977142D01*
X143831428Y-39905714D01*
X174914857Y-62400571D02*
X174914857Y-60900571D01*
X175772000Y-62400571D02*
X175129142Y-61543428D01*
X175772000Y-60900571D02*
X174914857Y-61757714D01*
X176343428Y-61043428D02*
X176414857Y-60972000D01*
X176557714Y-60900571D01*
X176914857Y-60900571D01*
X177057714Y-60972000D01*
X177129142Y-61043428D01*
X177200571Y-61186285D01*
X177200571Y-61329142D01*
X177129142Y-61543428D01*
X176272000Y-62400571D01*
X177200571Y-62400571D01*
X145196857Y-64432571D02*
X145196857Y-62932571D01*
X146054000Y-64432571D02*
X145411142Y-63575428D01*
X146054000Y-62932571D02*
X145196857Y-63789714D01*
X147482571Y-64432571D02*
X146625428Y-64432571D01*
X147054000Y-64432571D02*
X147054000Y-62932571D01*
X146911142Y-63146857D01*
X146768285Y-63289714D01*
X146625428Y-63361142D01*
X179486857Y-39032571D02*
X179486857Y-37532571D01*
X180344000Y-39032571D02*
X179701142Y-38175428D01*
X180344000Y-37532571D02*
X179486857Y-38389714D01*
X180844000Y-37532571D02*
X181772571Y-37532571D01*
X181272571Y-38104000D01*
X181486857Y-38104000D01*
X181629714Y-38175428D01*
X181701142Y-38246857D01*
X181772571Y-38389714D01*
X181772571Y-38746857D01*
X181701142Y-38889714D01*
X181629714Y-38961142D01*
X181486857Y-39032571D01*
X181058285Y-39032571D01*
X180915428Y-38961142D01*
X180844000Y-38889714D01*
D11*
X161917619Y-49415238D02*
X161870000Y-49510476D01*
X161774761Y-49605714D01*
X161631904Y-49748571D01*
X161584285Y-49843809D01*
X161584285Y-49939047D01*
X161822380Y-49891428D02*
X161774761Y-49986666D01*
X161679523Y-50081904D01*
X161489047Y-50129523D01*
X161155714Y-50129523D01*
X160965238Y-50081904D01*
X160870000Y-49986666D01*
X160822380Y-49891428D01*
X160822380Y-49700952D01*
X160870000Y-49605714D01*
X160965238Y-49510476D01*
X161155714Y-49462857D01*
X161489047Y-49462857D01*
X161679523Y-49510476D01*
X161774761Y-49605714D01*
X161822380Y-49700952D01*
X161822380Y-49891428D01*
X161822380Y-48510476D02*
X161822380Y-49081904D01*
X161822380Y-48796190D02*
X160822380Y-48796190D01*
X160965238Y-48891428D01*
X161060476Y-48986666D01*
X161108095Y-49081904D01*
X169380571Y-36051904D02*
X169428190Y-35909047D01*
X169475809Y-35861428D01*
X169571047Y-35813809D01*
X169713904Y-35813809D01*
X169809142Y-35861428D01*
X169856761Y-35909047D01*
X169904380Y-36004285D01*
X169904380Y-36385238D01*
X168904380Y-36385238D01*
X168904380Y-36051904D01*
X168952000Y-35956666D01*
X168999619Y-35909047D01*
X169094857Y-35861428D01*
X169190095Y-35861428D01*
X169285333Y-35909047D01*
X169332952Y-35956666D01*
X169380571Y-36051904D01*
X169380571Y-36385238D01*
X169618666Y-35432857D02*
X169618666Y-34956666D01*
X169904380Y-35528095D02*
X168904380Y-35194761D01*
X169904380Y-34861428D01*
X169856761Y-34575714D02*
X169904380Y-34432857D01*
X169904380Y-34194761D01*
X169856761Y-34099523D01*
X169809142Y-34051904D01*
X169713904Y-34004285D01*
X169618666Y-34004285D01*
X169523428Y-34051904D01*
X169475809Y-34099523D01*
X169428190Y-34194761D01*
X169380571Y-34385238D01*
X169332952Y-34480476D01*
X169285333Y-34528095D01*
X169190095Y-34575714D01*
X169094857Y-34575714D01*
X168999619Y-34528095D01*
X168952000Y-34480476D01*
X168904380Y-34385238D01*
X168904380Y-34147142D01*
X168952000Y-34004285D01*
X169380571Y-33575714D02*
X169380571Y-33242380D01*
X169904380Y-33099523D02*
X169904380Y-33575714D01*
X168904380Y-33575714D01*
X168904380Y-33099523D01*
X169904380Y-32147142D02*
X169904380Y-32718571D01*
X169904380Y-32432857D02*
X168904380Y-32432857D01*
X169047238Y-32528095D01*
X169142476Y-32623333D01*
X169190095Y-32718571D01*
X157712380Y-35500000D02*
X156712380Y-35500000D01*
X157712380Y-35023809D02*
X156712380Y-35023809D01*
X157712380Y-34452380D01*
X156712380Y-34452380D01*
X157712380Y-33452380D02*
X157712380Y-34023809D01*
X157712380Y-33738095D02*
X156712380Y-33738095D01*
X156855238Y-33833333D01*
X156950476Y-33928571D01*
X156998095Y-34023809D01*
X171522380Y-56046666D02*
X171046190Y-56380000D01*
X171522380Y-56618095D02*
X170522380Y-56618095D01*
X170522380Y-56237142D01*
X170570000Y-56141904D01*
X170617619Y-56094285D01*
X170712857Y-56046666D01*
X170855714Y-56046666D01*
X170950952Y-56094285D01*
X170998571Y-56141904D01*
X171046190Y-56237142D01*
X171046190Y-56618095D01*
X170617619Y-55665714D02*
X170570000Y-55618095D01*
X170522380Y-55522857D01*
X170522380Y-55284761D01*
X170570000Y-55189523D01*
X170617619Y-55141904D01*
X170712857Y-55094285D01*
X170808095Y-55094285D01*
X170950952Y-55141904D01*
X171522380Y-55713333D01*
X171522380Y-55094285D01*
X184404095Y-36520380D02*
X184404095Y-35520380D01*
X184404095Y-35996571D02*
X184975523Y-35996571D01*
X184975523Y-36520380D02*
X184975523Y-35520380D01*
X185880285Y-35853714D02*
X185880285Y-36520380D01*
X185642190Y-35472761D02*
X185404095Y-36187047D01*
X186023142Y-36187047D01*
X146462761Y-55157619D02*
X146367523Y-55110000D01*
X146272285Y-55014761D01*
X146129428Y-54871904D01*
X146034190Y-54824285D01*
X145938952Y-54824285D01*
X145986571Y-55062380D02*
X145891333Y-55014761D01*
X145796095Y-54919523D01*
X145748476Y-54729047D01*
X145748476Y-54395714D01*
X145796095Y-54205238D01*
X145891333Y-54110000D01*
X145986571Y-54062380D01*
X146177047Y-54062380D01*
X146272285Y-54110000D01*
X146367523Y-54205238D01*
X146415142Y-54395714D01*
X146415142Y-54729047D01*
X146367523Y-54919523D01*
X146272285Y-55014761D01*
X146177047Y-55062380D01*
X145986571Y-55062380D01*
X146796095Y-54157619D02*
X146843714Y-54110000D01*
X146938952Y-54062380D01*
X147177047Y-54062380D01*
X147272285Y-54110000D01*
X147319904Y-54157619D01*
X147367523Y-54252857D01*
X147367523Y-54348095D01*
X147319904Y-54490952D01*
X146748476Y-55062380D01*
X147367523Y-55062380D01*
X139192095Y-36520380D02*
X139192095Y-35520380D01*
X139192095Y-35996571D02*
X139763523Y-35996571D01*
X139763523Y-36520380D02*
X139763523Y-35520380D01*
X140144476Y-35520380D02*
X140763523Y-35520380D01*
X140430190Y-35901333D01*
X140573047Y-35901333D01*
X140668285Y-35948952D01*
X140715904Y-35996571D01*
X140763523Y-36091809D01*
X140763523Y-36329904D01*
X140715904Y-36425142D01*
X140668285Y-36472761D01*
X140573047Y-36520380D01*
X140287333Y-36520380D01*
X140192095Y-36472761D01*
X140144476Y-36425142D01*
X158448761Y-63952380D02*
X158448761Y-62952380D01*
X159020190Y-63952380D01*
X159020190Y-62952380D01*
X159686857Y-62952380D02*
X159877333Y-62952380D01*
X159972571Y-63000000D01*
X160067809Y-63095238D01*
X160115428Y-63285714D01*
X160115428Y-63619047D01*
X160067809Y-63809523D01*
X159972571Y-63904761D01*
X159877333Y-63952380D01*
X159686857Y-63952380D01*
X159591619Y-63904761D01*
X159496380Y-63809523D01*
X159448761Y-63619047D01*
X159448761Y-63285714D01*
X159496380Y-63095238D01*
X159591619Y-63000000D01*
X159686857Y-62952380D01*
X160401142Y-62952380D02*
X160972571Y-62952380D01*
X160686857Y-63952380D02*
X160686857Y-62952380D01*
X161258285Y-63666666D02*
X161734476Y-63666666D01*
X161163047Y-63952380D02*
X161496380Y-62952380D01*
X161829714Y-63952380D01*
X162163047Y-62952380D02*
X162163047Y-63761904D01*
X162210666Y-63857142D01*
X162258285Y-63904761D01*
X162353523Y-63952380D01*
X162544000Y-63952380D01*
X162639238Y-63904761D01*
X162686857Y-63857142D01*
X162734476Y-63761904D01*
X162734476Y-62952380D01*
X163163047Y-63904761D02*
X163305904Y-63952380D01*
X163544000Y-63952380D01*
X163639238Y-63904761D01*
X163686857Y-63857142D01*
X163734476Y-63761904D01*
X163734476Y-63666666D01*
X163686857Y-63571428D01*
X163639238Y-63523809D01*
X163544000Y-63476190D01*
X163353523Y-63428571D01*
X163258285Y-63380952D01*
X163210666Y-63333333D01*
X163163047Y-63238095D01*
X163163047Y-63142857D01*
X163210666Y-63047619D01*
X163258285Y-63000000D01*
X163353523Y-62952380D01*
X163591619Y-62952380D01*
X163734476Y-63000000D01*
X164686857Y-63952380D02*
X164115428Y-63952380D01*
X164401142Y-63952380D02*
X164401142Y-62952380D01*
X164305904Y-63095238D01*
X164210666Y-63190476D01*
X164115428Y-63238095D01*
X184658095Y-59752380D02*
X184658095Y-58752380D01*
X184658095Y-59228571D02*
X185229523Y-59228571D01*
X185229523Y-59752380D02*
X185229523Y-58752380D01*
X185658095Y-58847619D02*
X185705714Y-58800000D01*
X185800952Y-58752380D01*
X186039047Y-58752380D01*
X186134285Y-58800000D01*
X186181904Y-58847619D01*
X186229523Y-58942857D01*
X186229523Y-59038095D01*
X186181904Y-59180952D01*
X185610476Y-59752380D01*
X186229523Y-59752380D01*
X172212095Y-65218761D02*
X172354952Y-65266380D01*
X172593047Y-65266380D01*
X172688285Y-65218761D01*
X172735904Y-65171142D01*
X172783523Y-65075904D01*
X172783523Y-64980666D01*
X172735904Y-64885428D01*
X172688285Y-64837809D01*
X172593047Y-64790190D01*
X172402571Y-64742571D01*
X172307333Y-64694952D01*
X172259714Y-64647333D01*
X172212095Y-64552095D01*
X172212095Y-64456857D01*
X172259714Y-64361619D01*
X172307333Y-64314000D01*
X172402571Y-64266380D01*
X172640666Y-64266380D01*
X172783523Y-64314000D01*
X173735904Y-65266380D02*
X173164476Y-65266380D01*
X173450190Y-65266380D02*
X173450190Y-64266380D01*
X173354952Y-64409238D01*
X173259714Y-64504476D01*
X173164476Y-64552095D01*
X180427333Y-55698380D02*
X180094000Y-55222190D01*
X179855904Y-55698380D02*
X179855904Y-54698380D01*
X180236857Y-54698380D01*
X180332095Y-54746000D01*
X180379714Y-54793619D01*
X180427333Y-54888857D01*
X180427333Y-55031714D01*
X180379714Y-55126952D01*
X180332095Y-55174571D01*
X180236857Y-55222190D01*
X179855904Y-55222190D01*
X181379714Y-55698380D02*
X180808285Y-55698380D01*
X181094000Y-55698380D02*
X181094000Y-54698380D01*
X180998761Y-54841238D01*
X180903523Y-54936476D01*
X180808285Y-54984095D01*
X138938095Y-59752380D02*
X138938095Y-58752380D01*
X138938095Y-59228571D02*
X139509523Y-59228571D01*
X139509523Y-59752380D02*
X139509523Y-58752380D01*
X140509523Y-59752380D02*
X139938095Y-59752380D01*
X140223809Y-59752380D02*
X140223809Y-58752380D01*
X140128571Y-58895238D01*
X140033333Y-58990476D01*
X139938095Y-59038095D01*
X144726666Y-36285714D02*
X144726666Y-35809523D01*
X145012380Y-36380952D02*
X144012380Y-36047619D01*
X145012380Y-35714285D01*
X145012380Y-34809523D02*
X144536190Y-35142857D01*
X145012380Y-35380952D02*
X144012380Y-35380952D01*
X144012380Y-35000000D01*
X144060000Y-34904761D01*
X144107619Y-34857142D01*
X144202857Y-34809523D01*
X144345714Y-34809523D01*
X144440952Y-34857142D01*
X144488571Y-34904761D01*
X144536190Y-35000000D01*
X144536190Y-35380952D01*
X145012380Y-34380952D02*
X144012380Y-34380952D01*
X144726666Y-34047619D01*
X144012380Y-33714285D01*
X145012380Y-33714285D01*
X145012380Y-32714285D02*
X145012380Y-33285714D01*
X145012380Y-33000000D02*
X144012380Y-33000000D01*
X144155238Y-33095238D01*
X144250476Y-33190476D01*
X144298095Y-33285714D01*
D12*
X164910000Y-53380000D02*
X164910000Y-43140000D01*
X164910000Y-43140000D02*
X180800000Y-43140000D01*
X180800000Y-53380000D02*
X180800000Y-43140000D01*
X180800000Y-50800000D02*
X183340000Y-50800000D01*
X164910000Y-53380000D02*
X180800000Y-53380000D01*
X180800000Y-48260000D02*
X183340000Y-48260000D01*
X180800000Y-45720000D02*
X183340000Y-45720000D01*
X178902000Y-39290000D02*
X178902000Y-26440000D01*
X170602000Y-39290000D02*
X173152000Y-42140000D01*
X173152000Y-42140000D02*
X176302000Y-42140000D01*
X170602000Y-26440000D02*
X170602000Y-39290000D01*
X176302000Y-42140000D02*
X178902000Y-39290000D01*
X178902000Y-26440000D02*
X170602000Y-26440000D01*
X160960000Y-42350000D02*
X164110000Y-42350000D01*
X164110000Y-42350000D02*
X166710000Y-39500000D01*
X158410000Y-26650000D02*
X158410000Y-39500000D01*
X166710000Y-26650000D02*
X158410000Y-26650000D01*
X158410000Y-39500000D02*
X160960000Y-42350000D01*
X166710000Y-39500000D02*
X166710000Y-26650000D01*
X171985000Y-56107064D02*
X171985000Y-55652936D01*
X173455000Y-56107064D02*
X173455000Y-55652936D01*
X152860000Y-45720000D02*
X155400000Y-45720000D01*
X152860000Y-48260000D02*
X155400000Y-48260000D01*
X136970000Y-53380000D02*
X152860000Y-53380000D01*
X136970000Y-43140000D02*
X152860000Y-43140000D01*
X152860000Y-50800000D02*
X155400000Y-50800000D01*
X136970000Y-53380000D02*
X136970000Y-43140000D01*
X152860000Y-53380000D02*
X152860000Y-43140000D01*
X147946324Y-59965251D02*
X147946324Y-67585251D01*
X147946324Y-61235251D02*
X158106324Y-61235251D01*
X158106324Y-59965251D02*
X147946324Y-59965251D01*
X158106324Y-67585251D02*
X158106324Y-59965251D01*
X147946324Y-67585251D02*
X158106324Y-67585251D01*
X174304000Y-63814000D02*
X172974000Y-63814000D01*
X174304000Y-61214000D02*
X171644000Y-61214000D01*
X174304000Y-62484000D02*
X174304000Y-63814000D01*
X174304000Y-58614000D02*
X171644000Y-58614000D01*
X171644000Y-61214000D02*
X171644000Y-58614000D01*
X174304000Y-61214000D02*
X174304000Y-58614000D01*
X180366936Y-57631000D02*
X180821064Y-57631000D01*
X180366936Y-56161000D02*
X180821064Y-56161000D01*
X154010000Y-39500000D02*
X154010000Y-26650000D01*
X148260000Y-42350000D02*
X151410000Y-42350000D01*
X145710000Y-39500000D02*
X148260000Y-42350000D01*
X151410000Y-42350000D02*
X154010000Y-39500000D01*
X145710000Y-26650000D02*
X145710000Y-39500000D01*
X154010000Y-26650000D02*
X145710000Y-26650000D01*
%LPC*%
D13*
X167830000Y-48260000D03*
D14*
X184490000Y-50800000D03*
D15*
X184490000Y-48260000D03*
X184490000Y-45720000D03*
D16*
X174752000Y-37890000D03*
D17*
X174752000Y-30690000D03*
D16*
X162560000Y-38100000D03*
D17*
X162560000Y-30900000D03*
D18*
X172720000Y-56880000D03*
X172720000Y-54880000D03*
D19*
X185420000Y-30480000D03*
D13*
X139890000Y-48260000D03*
D14*
X156550000Y-50800000D03*
D15*
X156550000Y-48260000D03*
X156550000Y-45720000D03*
D19*
X139700000Y-30480000D03*
D20*
X155566324Y-63775251D03*
D21*
X150486324Y-63775251D03*
D19*
X185420000Y-63500000D03*
D22*
X172974000Y-62484000D03*
D23*
X172974000Y-59944000D03*
D24*
X179594000Y-56896000D03*
X181594000Y-56896000D03*
D19*
X139700000Y-63500000D03*
D16*
X149860000Y-38100000D03*
D17*
X149860000Y-30900000D03*
M02*
