G04 #@! TF.GenerationSoftware,KiCad,Pcbnew,6.0.9-8da3e8f707~116~ubuntu22.04.1*
G04 #@! TF.CreationDate,2022-12-04T14:58:13+01:00*
G04 #@! TF.ProjectId,24V_board,3234565f-626f-4617-9264-2e6b69636164,rev?*
G04 #@! TF.SameCoordinates,Original*
G04 #@! TF.FileFunction,Copper,L1,Top*
G04 #@! TF.FilePolarity,Positive*
%FSLAX46Y46*%
G04 Gerber Fmt 4.6, Leading zero omitted, Abs format (unit mm)*
G04 Created by KiCad (PCBNEW 6.0.9-8da3e8f707~116~ubuntu22.04.1) date 2022-12-04 14:58:13*
%MOMM*%
%LPD*%
G01*
G04 APERTURE LIST*
G04 Aperture macros list*
%AMRoundRect*
0 Rectangle with rounded corners*
0 $1 Rounding radius*
0 $2 $3 $4 $5 $6 $7 $8 $9 X,Y pos of 4 corners*
0 Add a 4 corners polygon primitive as box body*
4,1,4,$2,$3,$4,$5,$6,$7,$8,$9,$2,$3,0*
0 Add four circle primitives for the rounded corners*
1,1,$1+$1,$2,$3*
1,1,$1+$1,$4,$5*
1,1,$1+$1,$6,$7*
1,1,$1+$1,$8,$9*
0 Add four rect primitives between the rounded corners*
20,1,$1+$1,$2,$3,$4,$5,0*
20,1,$1+$1,$4,$5,$6,$7,0*
20,1,$1+$1,$6,$7,$8,$9,0*
20,1,$1+$1,$8,$9,$2,$3,0*%
G04 Aperture macros list end*
G04 #@! TA.AperFunction,ComponentPad*
%ADD10R,2.000000X1.905000*%
G04 #@! TD*
G04 #@! TA.AperFunction,ComponentPad*
%ADD11O,2.000000X1.905000*%
G04 #@! TD*
G04 #@! TA.AperFunction,ComponentPad*
%ADD12RoundRect,1.500000X1.500000X-1.500000X1.500000X1.500000X-1.500000X1.500000X-1.500000X-1.500000X0*%
G04 #@! TD*
G04 #@! TA.AperFunction,ComponentPad*
%ADD13C,6.000000*%
G04 #@! TD*
G04 #@! TA.AperFunction,SMDPad,CuDef*
%ADD14RoundRect,0.250000X0.450000X-0.350000X0.450000X0.350000X-0.450000X0.350000X-0.450000X-0.350000X0*%
G04 #@! TD*
G04 #@! TA.AperFunction,ComponentPad*
%ADD15R,3.000000X3.000000*%
G04 #@! TD*
G04 #@! TA.AperFunction,ComponentPad*
%ADD16C,3.000000*%
G04 #@! TD*
G04 #@! TA.AperFunction,ComponentPad*
%ADD17R,1.700000X1.700000*%
G04 #@! TD*
G04 #@! TA.AperFunction,ComponentPad*
%ADD18O,1.700000X1.700000*%
G04 #@! TD*
G04 #@! TA.AperFunction,SMDPad,CuDef*
%ADD19RoundRect,0.250000X-0.350000X-0.450000X0.350000X-0.450000X0.350000X0.450000X-0.350000X0.450000X0*%
G04 #@! TD*
G04 APERTURE END LIST*
D10*
X184490000Y-50800000D03*
D11*
X184490000Y-48260000D03*
X184490000Y-45720000D03*
D12*
X174752000Y-37890000D03*
D13*
X174752000Y-30690000D03*
D12*
X162560000Y-38100000D03*
D13*
X162560000Y-30900000D03*
D14*
X172720000Y-56880000D03*
X172720000Y-54880000D03*
D10*
X156550000Y-50800000D03*
D11*
X156550000Y-48260000D03*
X156550000Y-45720000D03*
D15*
X155566324Y-63775251D03*
D16*
X150486324Y-63775251D03*
D17*
X172974000Y-62484000D03*
D18*
X172974000Y-59944000D03*
D19*
X179594000Y-56896000D03*
X181594000Y-56896000D03*
D12*
X149860000Y-38100000D03*
D13*
X149860000Y-30900000D03*
G04 #@! TA.AperFunction,Conductor*
G36*
X141445864Y-26498881D02*
G01*
X144410549Y-26663586D01*
X144477456Y-26687336D01*
X144520901Y-26743488D01*
X144529502Y-26785576D01*
X144774543Y-34871924D01*
X144780000Y-35052000D01*
X144793391Y-35051657D01*
X144793393Y-35051657D01*
X146810616Y-34999933D01*
X146879227Y-35018183D01*
X146927080Y-35070629D01*
X146938982Y-35140621D01*
X146908939Y-35208556D01*
X146755314Y-35385281D01*
X146750024Y-35392300D01*
X146601876Y-35620428D01*
X146597613Y-35628118D01*
X146482655Y-35874647D01*
X146479504Y-35882857D01*
X146399978Y-36142977D01*
X146397999Y-36151547D01*
X146355315Y-36421044D01*
X146354601Y-36428128D01*
X146352060Y-36486331D01*
X146352000Y-36489083D01*
X146352000Y-37581885D01*
X146356475Y-37597124D01*
X146357865Y-37598329D01*
X146365548Y-37600000D01*
X153349884Y-37600000D01*
X153365123Y-37595525D01*
X153366328Y-37594135D01*
X153367999Y-37586452D01*
X153367999Y-36489086D01*
X153367939Y-36486328D01*
X153365399Y-36428145D01*
X153364683Y-36421028D01*
X153322001Y-36151547D01*
X153320022Y-36142977D01*
X153240496Y-35882857D01*
X153237345Y-35874647D01*
X153122387Y-35628118D01*
X153118124Y-35620428D01*
X152969976Y-35392300D01*
X152964686Y-35385281D01*
X152786217Y-35179976D01*
X152780024Y-35173783D01*
X152659460Y-35068978D01*
X152621172Y-35009191D01*
X152621284Y-34938195D01*
X152659763Y-34878530D01*
X152724390Y-34849139D01*
X152738894Y-34847926D01*
X154560126Y-34801228D01*
X154628737Y-34819478D01*
X154676590Y-34871924D01*
X154689312Y-34923872D01*
X154939523Y-44431888D01*
X154940000Y-44450000D01*
X155402314Y-44450000D01*
X155470435Y-44470002D01*
X155516928Y-44523658D01*
X155527032Y-44593932D01*
X155497538Y-44658512D01*
X155487113Y-44669194D01*
X155434519Y-44717050D01*
X155427494Y-44724583D01*
X155285055Y-44904944D01*
X155279350Y-44913531D01*
X155168284Y-45114725D01*
X155164056Y-45124134D01*
X155136155Y-45202924D01*
X155135383Y-45217004D01*
X155141095Y-45220000D01*
X157952575Y-45220000D01*
X157966106Y-45216027D01*
X157967110Y-45209045D01*
X157950102Y-45157012D01*
X157946105Y-45147503D01*
X157839989Y-44943656D01*
X157834495Y-44934931D01*
X157696507Y-44751148D01*
X157689664Y-44743441D01*
X157609771Y-44667094D01*
X157574341Y-44605570D01*
X157577798Y-44534658D01*
X157619044Y-44476871D01*
X157684984Y-44450557D01*
X157696822Y-44450000D01*
X158878000Y-44450000D01*
X158946121Y-44470002D01*
X158992614Y-44523658D01*
X159004000Y-44576000D01*
X159004000Y-46610000D01*
X158983998Y-46678121D01*
X158930342Y-46724614D01*
X158878000Y-46736000D01*
X157916313Y-46736000D01*
X157848192Y-46715998D01*
X157801699Y-46662342D01*
X157791595Y-46592068D01*
X157813758Y-46540477D01*
X157812083Y-46539364D01*
X157820650Y-46526469D01*
X157931716Y-46325275D01*
X157935944Y-46315866D01*
X157963845Y-46237076D01*
X157964617Y-46222996D01*
X157958905Y-46220000D01*
X155147425Y-46220000D01*
X155133894Y-46223973D01*
X155132890Y-46230955D01*
X155149898Y-46282988D01*
X155153895Y-46292497D01*
X155260011Y-46496344D01*
X155265505Y-46505069D01*
X155287488Y-46534347D01*
X155312394Y-46600832D01*
X155297402Y-46670227D01*
X155247271Y-46720501D01*
X155186728Y-46736000D01*
X154178000Y-46736000D01*
X154178000Y-48894262D01*
X154157998Y-48962383D01*
X154104342Y-49008876D01*
X154050274Y-49020250D01*
X147128483Y-48925431D01*
X142225546Y-48858268D01*
X142157707Y-48837335D01*
X142111953Y-48783047D01*
X142103694Y-48707698D01*
X142133180Y-48559465D01*
X142133181Y-48559459D01*
X142133983Y-48555426D01*
X142146644Y-48362263D01*
X142153076Y-48264119D01*
X142153346Y-48260000D01*
X142151992Y-48239340D01*
X142134253Y-47968686D01*
X142134252Y-47968679D01*
X142133983Y-47964574D01*
X142076224Y-47674203D01*
X142071081Y-47659050D01*
X141982385Y-47397761D01*
X141982384Y-47397760D01*
X141981059Y-47393855D01*
X141850115Y-47128327D01*
X141685633Y-46882162D01*
X141682919Y-46879068D01*
X141682915Y-46879062D01*
X141493136Y-46662662D01*
X141490427Y-46659573D01*
X141354625Y-46540477D01*
X141270938Y-46467085D01*
X141270932Y-46467081D01*
X141267838Y-46464367D01*
X141264412Y-46462078D01*
X141264407Y-46462074D01*
X141025106Y-46302179D01*
X141021673Y-46299885D01*
X141017974Y-46298061D01*
X141017969Y-46298058D01*
X140859682Y-46220000D01*
X140756145Y-46168941D01*
X140752239Y-46167615D01*
X140479710Y-46075104D01*
X140479706Y-46075103D01*
X140475797Y-46073776D01*
X140471753Y-46072972D01*
X140471747Y-46072970D01*
X140189465Y-46016820D01*
X140189459Y-46016819D01*
X140185426Y-46016017D01*
X140181321Y-46015748D01*
X140181314Y-46015747D01*
X139894119Y-45996924D01*
X139890000Y-45996654D01*
X139885881Y-45996924D01*
X139598686Y-46015747D01*
X139598679Y-46015748D01*
X139594574Y-46016017D01*
X139590541Y-46016819D01*
X139590535Y-46016820D01*
X139308253Y-46072970D01*
X139308247Y-46072972D01*
X139304203Y-46073776D01*
X139300294Y-46075103D01*
X139300290Y-46075104D01*
X139027761Y-46167615D01*
X139023855Y-46168941D01*
X138920318Y-46220000D01*
X138762031Y-46298058D01*
X138762026Y-46298061D01*
X138758327Y-46299885D01*
X138754894Y-46302179D01*
X138515593Y-46462074D01*
X138515588Y-46462078D01*
X138512162Y-46464367D01*
X138509068Y-46467081D01*
X138509062Y-46467085D01*
X138425375Y-46540477D01*
X138289573Y-46659573D01*
X138286864Y-46662662D01*
X138097085Y-46879062D01*
X138097081Y-46879068D01*
X138094367Y-46882162D01*
X137929885Y-47128327D01*
X137798941Y-47393855D01*
X137797616Y-47397760D01*
X137797615Y-47397761D01*
X137708920Y-47659050D01*
X137703776Y-47674203D01*
X137646017Y-47964574D01*
X137645748Y-47968679D01*
X137645747Y-47968686D01*
X137628008Y-48239340D01*
X137626654Y-48260000D01*
X137626924Y-48264119D01*
X137633357Y-48362263D01*
X137646017Y-48555426D01*
X137646819Y-48559459D01*
X137646820Y-48559465D01*
X137663534Y-48643488D01*
X137657206Y-48714202D01*
X137613652Y-48770270D01*
X137546700Y-48793889D01*
X137538231Y-48794058D01*
X137251238Y-48790127D01*
X135758885Y-48769683D01*
X135691045Y-48748750D01*
X135645291Y-48694462D01*
X135634619Y-48645111D01*
X135626927Y-47960535D01*
X135534235Y-39710915D01*
X146352001Y-39710915D01*
X146352061Y-39713672D01*
X146354601Y-39771855D01*
X146355317Y-39778972D01*
X146397999Y-40048453D01*
X146399978Y-40057023D01*
X146479504Y-40317143D01*
X146482655Y-40325353D01*
X146597613Y-40571882D01*
X146601876Y-40579572D01*
X146750024Y-40807700D01*
X146755314Y-40814719D01*
X146933783Y-41020024D01*
X146939976Y-41026217D01*
X147145281Y-41204686D01*
X147152300Y-41209976D01*
X147380428Y-41358124D01*
X147388118Y-41362387D01*
X147634647Y-41477345D01*
X147642857Y-41480496D01*
X147902977Y-41560022D01*
X147911547Y-41562001D01*
X148181044Y-41604685D01*
X148188128Y-41605399D01*
X148246331Y-41607940D01*
X148249083Y-41608000D01*
X149341885Y-41608000D01*
X149357124Y-41603525D01*
X149358329Y-41602135D01*
X149360000Y-41594452D01*
X149360000Y-41589884D01*
X150360000Y-41589884D01*
X150364475Y-41605123D01*
X150365865Y-41606328D01*
X150373548Y-41607999D01*
X151470915Y-41607999D01*
X151473672Y-41607939D01*
X151531855Y-41605399D01*
X151538972Y-41604683D01*
X151808453Y-41562001D01*
X151817023Y-41560022D01*
X152077143Y-41480496D01*
X152085353Y-41477345D01*
X152331882Y-41362387D01*
X152339572Y-41358124D01*
X152567700Y-41209976D01*
X152574719Y-41204686D01*
X152780024Y-41026217D01*
X152786217Y-41020024D01*
X152964686Y-40814719D01*
X152969976Y-40807700D01*
X153118124Y-40579572D01*
X153122387Y-40571882D01*
X153237345Y-40325353D01*
X153240496Y-40317143D01*
X153320022Y-40057023D01*
X153322001Y-40048453D01*
X153364685Y-39778956D01*
X153365399Y-39771872D01*
X153367940Y-39713669D01*
X153368000Y-39710917D01*
X153368000Y-38618115D01*
X153363525Y-38602876D01*
X153362135Y-38601671D01*
X153354452Y-38600000D01*
X150378115Y-38600000D01*
X150362876Y-38604475D01*
X150361671Y-38605865D01*
X150360000Y-38613548D01*
X150360000Y-41589884D01*
X149360000Y-41589884D01*
X149360000Y-38618115D01*
X149355525Y-38602876D01*
X149354135Y-38601671D01*
X149346452Y-38600000D01*
X146370116Y-38600000D01*
X146354877Y-38604475D01*
X146353672Y-38605865D01*
X146352001Y-38613548D01*
X146352001Y-39710915D01*
X135534235Y-39710915D01*
X135432008Y-30612703D01*
X137590743Y-30612703D01*
X137628268Y-30897734D01*
X137704129Y-31175036D01*
X137816923Y-31439476D01*
X137964561Y-31686161D01*
X138144313Y-31910528D01*
X138352851Y-32108423D01*
X138586317Y-32276186D01*
X138590112Y-32278195D01*
X138590113Y-32278196D01*
X138611869Y-32289715D01*
X138840392Y-32410712D01*
X139110373Y-32509511D01*
X139391264Y-32570755D01*
X139419841Y-32573004D01*
X139614282Y-32588307D01*
X139614291Y-32588307D01*
X139616739Y-32588500D01*
X139772271Y-32588500D01*
X139774407Y-32588354D01*
X139774418Y-32588354D01*
X139982548Y-32574165D01*
X139982554Y-32574164D01*
X139986825Y-32573873D01*
X139991020Y-32573004D01*
X139991022Y-32573004D01*
X140127583Y-32544724D01*
X140268342Y-32515574D01*
X140539343Y-32419607D01*
X140794812Y-32287750D01*
X140798313Y-32285289D01*
X140798317Y-32285287D01*
X140912418Y-32205095D01*
X141030023Y-32122441D01*
X141240622Y-31926740D01*
X141422713Y-31704268D01*
X141572927Y-31459142D01*
X141688483Y-31195898D01*
X141767244Y-30919406D01*
X141807751Y-30634784D01*
X141807845Y-30616951D01*
X141809235Y-30351583D01*
X141809235Y-30351576D01*
X141809257Y-30347297D01*
X141771732Y-30062266D01*
X141695871Y-29784964D01*
X141583077Y-29520524D01*
X141435439Y-29273839D01*
X141255687Y-29049472D01*
X141047149Y-28851577D01*
X140813683Y-28683814D01*
X140791843Y-28672250D01*
X140768654Y-28659972D01*
X140559608Y-28549288D01*
X140289627Y-28450489D01*
X140008736Y-28389245D01*
X139977685Y-28386801D01*
X139785718Y-28371693D01*
X139785709Y-28371693D01*
X139783261Y-28371500D01*
X139627729Y-28371500D01*
X139625593Y-28371646D01*
X139625582Y-28371646D01*
X139417452Y-28385835D01*
X139417446Y-28385836D01*
X139413175Y-28386127D01*
X139408980Y-28386996D01*
X139408978Y-28386996D01*
X139272416Y-28415277D01*
X139131658Y-28444426D01*
X138860657Y-28540393D01*
X138605188Y-28672250D01*
X138601687Y-28674711D01*
X138601683Y-28674713D01*
X138591594Y-28681804D01*
X138369977Y-28837559D01*
X138159378Y-29033260D01*
X137977287Y-29255732D01*
X137827073Y-29500858D01*
X137711517Y-29764102D01*
X137632756Y-30040594D01*
X137592249Y-30325216D01*
X137592227Y-30329505D01*
X137592226Y-30329512D01*
X137590765Y-30608417D01*
X137590743Y-30612703D01*
X135432008Y-30612703D01*
X135383513Y-26296693D01*
X135402748Y-26228352D01*
X135455878Y-26181260D01*
X135516494Y-26169472D01*
X141445864Y-26498881D01*
G37*
G04 #@! TD.AperFunction*
G04 #@! TA.AperFunction,Conductor*
G36*
X159536670Y-35072002D02*
G01*
X159583163Y-35125658D01*
X159593267Y-35195932D01*
X159563642Y-35260664D01*
X159455314Y-35385281D01*
X159450024Y-35392300D01*
X159301876Y-35620428D01*
X159297613Y-35628118D01*
X159182655Y-35874647D01*
X159179504Y-35882857D01*
X159099978Y-36142977D01*
X159097999Y-36151547D01*
X159055315Y-36421044D01*
X159054601Y-36428128D01*
X159052060Y-36486331D01*
X159052000Y-36489083D01*
X159052000Y-37581885D01*
X159056475Y-37597124D01*
X159057865Y-37598329D01*
X159065548Y-37600000D01*
X166049884Y-37600000D01*
X166065123Y-37595525D01*
X166066328Y-37594135D01*
X166067999Y-37586452D01*
X166067999Y-36489086D01*
X166067939Y-36486328D01*
X166065399Y-36428145D01*
X166064683Y-36421028D01*
X166022001Y-36151547D01*
X166020022Y-36142977D01*
X165940496Y-35882857D01*
X165937345Y-35874647D01*
X165822387Y-35628118D01*
X165818124Y-35620428D01*
X165669976Y-35392300D01*
X165664686Y-35385281D01*
X165556358Y-35260664D01*
X165526762Y-35196130D01*
X165536754Y-35125840D01*
X165583162Y-35072110D01*
X165651451Y-35052000D01*
X169043359Y-35052000D01*
X169111480Y-35072002D01*
X169157973Y-35125658D01*
X169169240Y-35172527D01*
X169665546Y-46587563D01*
X169648522Y-46656488D01*
X169596936Y-46705268D01*
X169527168Y-46718415D01*
X169461367Y-46691755D01*
X169444933Y-46676113D01*
X169433143Y-46662669D01*
X169433136Y-46662662D01*
X169430427Y-46659573D01*
X169249838Y-46501200D01*
X169210938Y-46467085D01*
X169210932Y-46467081D01*
X169207838Y-46464367D01*
X169204412Y-46462078D01*
X169204407Y-46462074D01*
X168965106Y-46302179D01*
X168961673Y-46299885D01*
X168957974Y-46298061D01*
X168957969Y-46298058D01*
X168821687Y-46230852D01*
X168696145Y-46168941D01*
X168692239Y-46167615D01*
X168419710Y-46075104D01*
X168419706Y-46075103D01*
X168415797Y-46073776D01*
X168411753Y-46072972D01*
X168411747Y-46072970D01*
X168129465Y-46016820D01*
X168129459Y-46016819D01*
X168125426Y-46016017D01*
X168121321Y-46015748D01*
X168121314Y-46015747D01*
X167834119Y-45996924D01*
X167830000Y-45996654D01*
X167825881Y-45996924D01*
X167538686Y-46015747D01*
X167538679Y-46015748D01*
X167534574Y-46016017D01*
X167530541Y-46016819D01*
X167530535Y-46016820D01*
X167248253Y-46072970D01*
X167248247Y-46072972D01*
X167244203Y-46073776D01*
X167240294Y-46075103D01*
X167240290Y-46075104D01*
X166967761Y-46167615D01*
X166963855Y-46168941D01*
X166838313Y-46230852D01*
X166702031Y-46298058D01*
X166702026Y-46298061D01*
X166698327Y-46299885D01*
X166694894Y-46302179D01*
X166455593Y-46462074D01*
X166455588Y-46462078D01*
X166452162Y-46464367D01*
X166449068Y-46467081D01*
X166449062Y-46467085D01*
X166410162Y-46501200D01*
X166229573Y-46659573D01*
X166226864Y-46662662D01*
X166037085Y-46879062D01*
X166037081Y-46879068D01*
X166034367Y-46882162D01*
X165869885Y-47128327D01*
X165868061Y-47132026D01*
X165868058Y-47132031D01*
X165812841Y-47244000D01*
X165738941Y-47393855D01*
X165643776Y-47674203D01*
X165642972Y-47678247D01*
X165642970Y-47678253D01*
X165626710Y-47760000D01*
X165586017Y-47964574D01*
X165566654Y-48260000D01*
X165586017Y-48555426D01*
X165586819Y-48559459D01*
X165586820Y-48559465D01*
X165630106Y-48777076D01*
X165643776Y-48845797D01*
X165645103Y-48849706D01*
X165645104Y-48849710D01*
X165708458Y-49036344D01*
X165738941Y-49126145D01*
X165740765Y-49129843D01*
X165865240Y-49382253D01*
X165869885Y-49391673D01*
X165872179Y-49395106D01*
X166009616Y-49600795D01*
X166034367Y-49637838D01*
X166037081Y-49640932D01*
X166037085Y-49640938D01*
X166121491Y-49737184D01*
X166229573Y-49860427D01*
X166232662Y-49863136D01*
X166449062Y-50052915D01*
X166449068Y-50052919D01*
X166452162Y-50055633D01*
X166455588Y-50057922D01*
X166455593Y-50057926D01*
X166639405Y-50180744D01*
X166698327Y-50220115D01*
X166702026Y-50221939D01*
X166702031Y-50221942D01*
X166838313Y-50289148D01*
X166963855Y-50351059D01*
X166967760Y-50352384D01*
X166967761Y-50352385D01*
X167240290Y-50444896D01*
X167240294Y-50444897D01*
X167244203Y-50446224D01*
X167248247Y-50447028D01*
X167248253Y-50447030D01*
X167530535Y-50503180D01*
X167530541Y-50503181D01*
X167534574Y-50503983D01*
X167538679Y-50504252D01*
X167538686Y-50504253D01*
X167825881Y-50523076D01*
X167830000Y-50523346D01*
X167834119Y-50523076D01*
X168121314Y-50504253D01*
X168121321Y-50504252D01*
X168125426Y-50503983D01*
X168129459Y-50503181D01*
X168129465Y-50503180D01*
X168411747Y-50447030D01*
X168411753Y-50447028D01*
X168415797Y-50446224D01*
X168419706Y-50444897D01*
X168419710Y-50444896D01*
X168692239Y-50352385D01*
X168692240Y-50352384D01*
X168696145Y-50351059D01*
X168821687Y-50289148D01*
X168957969Y-50221942D01*
X168957974Y-50221939D01*
X168961673Y-50220115D01*
X169020595Y-50180744D01*
X169204407Y-50057926D01*
X169204412Y-50057922D01*
X169207838Y-50055633D01*
X169210932Y-50052919D01*
X169210938Y-50052915D01*
X169427338Y-49863136D01*
X169430427Y-49860427D01*
X169538509Y-49737184D01*
X169622915Y-49640938D01*
X169622919Y-49640932D01*
X169625633Y-49637838D01*
X169650385Y-49600795D01*
X169787821Y-49395106D01*
X169790115Y-49391673D01*
X169794761Y-49382253D01*
X169919235Y-49129843D01*
X169921059Y-49126145D01*
X169951542Y-49036344D01*
X170014896Y-48849710D01*
X170014897Y-48849706D01*
X170016224Y-48845797D01*
X170029894Y-48777076D01*
X170073180Y-48559465D01*
X170073181Y-48559459D01*
X170073983Y-48555426D01*
X170093346Y-48260000D01*
X170073983Y-47964574D01*
X170033291Y-47760000D01*
X170017030Y-47678253D01*
X170017028Y-47678247D01*
X170016224Y-47674203D01*
X169921059Y-47393855D01*
X169847159Y-47244000D01*
X169791942Y-47132031D01*
X169791939Y-47132026D01*
X169790115Y-47128327D01*
X169658935Y-46932002D01*
X169637720Y-46864249D01*
X169656503Y-46795782D01*
X169709320Y-46748339D01*
X169763700Y-46736000D01*
X183340361Y-46736000D01*
X183408482Y-46756002D01*
X183427412Y-46770906D01*
X183519912Y-46859301D01*
X183557351Y-46884840D01*
X183602352Y-46939751D01*
X183610523Y-47010275D01*
X183579269Y-47074022D01*
X183554790Y-47094716D01*
X183552674Y-47096085D01*
X183544502Y-47102378D01*
X183374520Y-47257050D01*
X183367494Y-47264583D01*
X183225055Y-47444944D01*
X183219350Y-47453531D01*
X183108284Y-47654725D01*
X183104056Y-47664134D01*
X183076155Y-47742924D01*
X183075383Y-47757004D01*
X183081095Y-47760000D01*
X185892575Y-47760000D01*
X185906106Y-47756027D01*
X185907110Y-47749045D01*
X185890102Y-47697012D01*
X185886105Y-47687503D01*
X185779989Y-47483656D01*
X185774495Y-47474931D01*
X185636507Y-47291148D01*
X185629664Y-47283441D01*
X185463509Y-47124661D01*
X185455502Y-47118177D01*
X185422644Y-47095763D01*
X185377641Y-47040852D01*
X185369468Y-46970328D01*
X185400722Y-46906580D01*
X185425204Y-46885884D01*
X185427631Y-46884314D01*
X185427635Y-46884311D01*
X185431977Y-46881502D01*
X185450938Y-46864249D01*
X185555829Y-46768806D01*
X185619675Y-46737754D01*
X185640628Y-46736000D01*
X189371225Y-46736000D01*
X189439346Y-46756002D01*
X189485839Y-46809658D01*
X189496454Y-46848086D01*
X189722454Y-48882086D01*
X189710097Y-48951999D01*
X189661904Y-49004132D01*
X189597225Y-49022000D01*
X185995399Y-49022000D01*
X185927278Y-49001998D01*
X185880785Y-48948342D01*
X185870681Y-48878068D01*
X185876626Y-48853941D01*
X185903845Y-48777076D01*
X185904617Y-48762996D01*
X185898905Y-48760000D01*
X183087425Y-48760000D01*
X183073894Y-48763973D01*
X183072890Y-48770955D01*
X183089898Y-48822988D01*
X183093893Y-48832492D01*
X183096666Y-48837819D01*
X183110379Y-48907478D01*
X183084254Y-48973494D01*
X183026586Y-49014905D01*
X182984903Y-49022000D01*
X180340000Y-49022000D01*
X180340000Y-55604170D01*
X180319998Y-55672291D01*
X180266342Y-55718784D01*
X180196068Y-55728888D01*
X180174332Y-55723763D01*
X180106146Y-55701146D01*
X180097325Y-55702782D01*
X180094000Y-55715021D01*
X180094000Y-58075546D01*
X180098204Y-58089864D01*
X180105577Y-58091072D01*
X180106602Y-58090851D01*
X180174125Y-58068324D01*
X180245074Y-58065740D01*
X180306158Y-58101924D01*
X180337982Y-58165389D01*
X180340000Y-58187848D01*
X180340000Y-60580000D01*
X180319998Y-60648121D01*
X180266342Y-60694614D01*
X180214000Y-60706000D01*
X177164000Y-60706000D01*
X177095879Y-60685998D01*
X177049386Y-60632342D01*
X177038000Y-60580000D01*
X177038000Y-57405290D01*
X178486927Y-57405290D01*
X178496257Y-57495206D01*
X178499149Y-57508600D01*
X178550588Y-57662784D01*
X178556761Y-57675962D01*
X178642063Y-57813807D01*
X178651099Y-57825208D01*
X178765829Y-57939739D01*
X178777240Y-57948751D01*
X178915243Y-58033816D01*
X178928424Y-58039963D01*
X179081854Y-58090854D01*
X179090675Y-58089218D01*
X179094000Y-58076979D01*
X179094000Y-57414115D01*
X179089525Y-57398876D01*
X179088135Y-57397671D01*
X179080452Y-57396000D01*
X178504116Y-57396000D01*
X178488877Y-57400475D01*
X178487672Y-57401865D01*
X178486927Y-57405290D01*
X177038000Y-57405290D01*
X177038000Y-56382477D01*
X178487348Y-56382477D01*
X178490475Y-56393124D01*
X178491865Y-56394329D01*
X178499548Y-56396000D01*
X179075885Y-56396000D01*
X179091124Y-56391525D01*
X179092329Y-56390135D01*
X179094000Y-56382452D01*
X179094000Y-55716454D01*
X179089796Y-55702136D01*
X179082423Y-55700928D01*
X179081401Y-55701148D01*
X178927216Y-55752588D01*
X178914038Y-55758761D01*
X178776193Y-55844063D01*
X178764792Y-55853099D01*
X178650261Y-55967829D01*
X178641249Y-55979240D01*
X178556184Y-56117243D01*
X178550037Y-56130424D01*
X178498862Y-56284710D01*
X178495995Y-56298086D01*
X178487348Y-56382477D01*
X177038000Y-56382477D01*
X177038000Y-55372000D01*
X160400000Y-55372000D01*
X160331879Y-55351998D01*
X160285386Y-55298342D01*
X160274000Y-55246000D01*
X160274000Y-54367854D01*
X171525146Y-54367854D01*
X171526782Y-54376675D01*
X171539021Y-54380000D01*
X172201885Y-54380000D01*
X172217124Y-54375525D01*
X172218329Y-54374135D01*
X172220000Y-54366452D01*
X172220000Y-54361885D01*
X173220000Y-54361885D01*
X173224475Y-54377124D01*
X173225865Y-54378329D01*
X173233548Y-54380000D01*
X173899546Y-54380000D01*
X173913864Y-54375796D01*
X173915072Y-54368423D01*
X173914852Y-54367401D01*
X173863412Y-54213216D01*
X173857239Y-54200038D01*
X173771937Y-54062193D01*
X173762901Y-54050792D01*
X173648171Y-53936261D01*
X173636760Y-53927249D01*
X173498757Y-53842184D01*
X173485576Y-53836037D01*
X173331290Y-53784862D01*
X173317914Y-53781995D01*
X173233523Y-53773348D01*
X173222876Y-53776475D01*
X173221671Y-53777865D01*
X173220000Y-53785548D01*
X173220000Y-54361885D01*
X172220000Y-54361885D01*
X172220000Y-53790116D01*
X172215525Y-53774877D01*
X172214135Y-53773672D01*
X172210710Y-53772927D01*
X172120794Y-53782257D01*
X172107400Y-53785149D01*
X171953216Y-53836588D01*
X171940038Y-53842761D01*
X171802193Y-53928063D01*
X171790792Y-53937099D01*
X171676261Y-54051829D01*
X171667249Y-54063240D01*
X171582184Y-54201243D01*
X171576037Y-54214424D01*
X171525146Y-54367854D01*
X160274000Y-54367854D01*
X160274000Y-49530000D01*
X158009413Y-49530000D01*
X157941292Y-49509998D01*
X157920318Y-49493095D01*
X157918642Y-49491419D01*
X157913261Y-49484239D01*
X157796705Y-49396885D01*
X157776317Y-49389242D01*
X157719553Y-49346599D01*
X157694854Y-49280038D01*
X157710062Y-49210689D01*
X157721666Y-49193168D01*
X157814945Y-49075056D01*
X157820650Y-49066469D01*
X157931716Y-48865275D01*
X157935944Y-48855866D01*
X157963845Y-48777076D01*
X157964617Y-48762996D01*
X157958905Y-48760000D01*
X155147425Y-48760000D01*
X155133894Y-48763973D01*
X155132890Y-48770955D01*
X155149898Y-48822988D01*
X155153895Y-48832497D01*
X155260011Y-49036344D01*
X155265500Y-49045061D01*
X155378902Y-49196099D01*
X155403807Y-49262584D01*
X155388814Y-49331980D01*
X155338684Y-49382253D01*
X155322375Y-49389732D01*
X155303295Y-49396885D01*
X155186739Y-49484239D01*
X155181358Y-49491419D01*
X155179682Y-49493095D01*
X155117370Y-49527121D01*
X155090587Y-49530000D01*
X154812000Y-49530000D01*
X154743879Y-49509998D01*
X154697386Y-49456342D01*
X154686000Y-49404000D01*
X154686000Y-47370000D01*
X154706002Y-47301879D01*
X154759658Y-47255386D01*
X154812000Y-47244000D01*
X155183687Y-47244000D01*
X155251808Y-47264002D01*
X155298301Y-47317658D01*
X155308405Y-47387932D01*
X155286242Y-47439523D01*
X155287917Y-47440636D01*
X155279350Y-47453531D01*
X155168284Y-47654725D01*
X155164056Y-47664134D01*
X155136155Y-47742924D01*
X155135383Y-47757004D01*
X155141095Y-47760000D01*
X157952575Y-47760000D01*
X157966106Y-47756027D01*
X157967110Y-47749045D01*
X157950102Y-47697012D01*
X157946105Y-47687503D01*
X157839989Y-47483656D01*
X157834495Y-47474931D01*
X157812512Y-47445653D01*
X157787606Y-47379168D01*
X157802598Y-47309773D01*
X157852729Y-47259499D01*
X157913272Y-47244000D01*
X160528000Y-47244000D01*
X160528000Y-43180000D01*
X155824124Y-43180000D01*
X155756003Y-43159998D01*
X155709510Y-43106342D01*
X155698185Y-43057936D01*
X155593591Y-39710915D01*
X159052001Y-39710915D01*
X159052061Y-39713672D01*
X159054601Y-39771855D01*
X159055317Y-39778972D01*
X159097999Y-40048453D01*
X159099978Y-40057023D01*
X159179504Y-40317143D01*
X159182655Y-40325353D01*
X159297613Y-40571882D01*
X159301876Y-40579572D01*
X159450024Y-40807700D01*
X159455314Y-40814719D01*
X159633783Y-41020024D01*
X159639976Y-41026217D01*
X159845281Y-41204686D01*
X159852300Y-41209976D01*
X160080428Y-41358124D01*
X160088118Y-41362387D01*
X160334647Y-41477345D01*
X160342857Y-41480496D01*
X160602977Y-41560022D01*
X160611547Y-41562001D01*
X160881044Y-41604685D01*
X160888128Y-41605399D01*
X160946331Y-41607940D01*
X160949083Y-41608000D01*
X162041885Y-41608000D01*
X162057124Y-41603525D01*
X162058329Y-41602135D01*
X162060000Y-41594452D01*
X162060000Y-41589884D01*
X163060000Y-41589884D01*
X163064475Y-41605123D01*
X163065865Y-41606328D01*
X163073548Y-41607999D01*
X164170915Y-41607999D01*
X164173672Y-41607939D01*
X164231855Y-41605399D01*
X164238972Y-41604683D01*
X164508453Y-41562001D01*
X164517023Y-41560022D01*
X164777143Y-41480496D01*
X164785353Y-41477345D01*
X165031882Y-41362387D01*
X165039572Y-41358124D01*
X165267700Y-41209976D01*
X165274719Y-41204686D01*
X165480024Y-41026217D01*
X165486217Y-41020024D01*
X165664686Y-40814719D01*
X165669976Y-40807700D01*
X165818124Y-40579572D01*
X165822387Y-40571882D01*
X165937345Y-40325353D01*
X165940496Y-40317143D01*
X166020022Y-40057023D01*
X166022001Y-40048453D01*
X166064685Y-39778956D01*
X166065399Y-39771872D01*
X166067940Y-39713669D01*
X166068000Y-39710917D01*
X166068000Y-38618115D01*
X166063525Y-38602876D01*
X166062135Y-38601671D01*
X166054452Y-38600000D01*
X163078115Y-38600000D01*
X163062876Y-38604475D01*
X163061671Y-38605865D01*
X163060000Y-38613548D01*
X163060000Y-41589884D01*
X162060000Y-41589884D01*
X162060000Y-38618115D01*
X162055525Y-38602876D01*
X162054135Y-38601671D01*
X162046452Y-38600000D01*
X159070116Y-38600000D01*
X159054877Y-38604475D01*
X159053672Y-38605865D01*
X159052001Y-38613548D01*
X159052001Y-39710915D01*
X155593591Y-39710915D01*
X155452060Y-35181934D01*
X155469925Y-35113223D01*
X155522102Y-35065077D01*
X155577999Y-35052000D01*
X159468549Y-35052000D01*
X159536670Y-35072002D01*
G37*
G04 #@! TD.AperFunction*
G04 #@! TA.AperFunction,Conductor*
G36*
X189933621Y-50566002D02*
G01*
X189980114Y-50619658D01*
X189991500Y-50672000D01*
X189991500Y-67691500D01*
X189971498Y-67759621D01*
X189917842Y-67806114D01*
X189865500Y-67817500D01*
X154304000Y-67817500D01*
X154235879Y-67797498D01*
X154189386Y-67743842D01*
X154178000Y-67691500D01*
X154178000Y-65909251D01*
X154198002Y-65841130D01*
X154251658Y-65794637D01*
X154304000Y-65783251D01*
X155048209Y-65783251D01*
X155063448Y-65778776D01*
X155064653Y-65777386D01*
X155066324Y-65769703D01*
X155066324Y-65765135D01*
X156066324Y-65765135D01*
X156070799Y-65780374D01*
X156072189Y-65781579D01*
X156079872Y-65783250D01*
X157110993Y-65783250D01*
X157117814Y-65782880D01*
X157168676Y-65777356D01*
X157183928Y-65773730D01*
X157304378Y-65728575D01*
X157319973Y-65720037D01*
X157422048Y-65643536D01*
X157434609Y-65630975D01*
X157511110Y-65528900D01*
X157519648Y-65513305D01*
X157564802Y-65392857D01*
X157568429Y-65377602D01*
X157573955Y-65326737D01*
X157574324Y-65319923D01*
X157574324Y-64293366D01*
X157569849Y-64278127D01*
X157568459Y-64276922D01*
X157560776Y-64275251D01*
X156084439Y-64275251D01*
X156069200Y-64279726D01*
X156067995Y-64281116D01*
X156066324Y-64288799D01*
X156066324Y-65765135D01*
X155066324Y-65765135D01*
X155066324Y-63401251D01*
X155072955Y-63378669D01*
X171616001Y-63378669D01*
X171616371Y-63385490D01*
X171621895Y-63436352D01*
X171625521Y-63451604D01*
X171670676Y-63572054D01*
X171679214Y-63587649D01*
X171755715Y-63689724D01*
X171768276Y-63702285D01*
X171870351Y-63778786D01*
X171885946Y-63787324D01*
X172006394Y-63832478D01*
X172021649Y-63836105D01*
X172072514Y-63841631D01*
X172079328Y-63842000D01*
X172455885Y-63842000D01*
X172471124Y-63837525D01*
X172472329Y-63836135D01*
X172474000Y-63828452D01*
X172474000Y-63823884D01*
X173474000Y-63823884D01*
X173478475Y-63839123D01*
X173479865Y-63840328D01*
X173487548Y-63841999D01*
X173868669Y-63841999D01*
X173875490Y-63841629D01*
X173926352Y-63836105D01*
X173941604Y-63832479D01*
X174062054Y-63787324D01*
X174077649Y-63778786D01*
X174179724Y-63702285D01*
X174192285Y-63689724D01*
X174235020Y-63632703D01*
X183310743Y-63632703D01*
X183348268Y-63917734D01*
X183424129Y-64195036D01*
X183425813Y-64198984D01*
X183466071Y-64293366D01*
X183536923Y-64459476D01*
X183684561Y-64706161D01*
X183864313Y-64930528D01*
X184072851Y-65128423D01*
X184306317Y-65296186D01*
X184310112Y-65298195D01*
X184310113Y-65298196D01*
X184331869Y-65309715D01*
X184560392Y-65430712D01*
X184830373Y-65529511D01*
X185111264Y-65590755D01*
X185139841Y-65593004D01*
X185334282Y-65608307D01*
X185334291Y-65608307D01*
X185336739Y-65608500D01*
X185492271Y-65608500D01*
X185494407Y-65608354D01*
X185494418Y-65608354D01*
X185702548Y-65594165D01*
X185702554Y-65594164D01*
X185706825Y-65593873D01*
X185711020Y-65593004D01*
X185711022Y-65593004D01*
X185847583Y-65564724D01*
X185988342Y-65535574D01*
X186259343Y-65439607D01*
X186514812Y-65307750D01*
X186518313Y-65305289D01*
X186518317Y-65305287D01*
X186632418Y-65225095D01*
X186750023Y-65142441D01*
X186960622Y-64946740D01*
X187142713Y-64724268D01*
X187292927Y-64479142D01*
X187380465Y-64279726D01*
X187406757Y-64219830D01*
X187408483Y-64215898D01*
X187487244Y-63939406D01*
X187527751Y-63654784D01*
X187527845Y-63636951D01*
X187529235Y-63371583D01*
X187529235Y-63371576D01*
X187529257Y-63367297D01*
X187491732Y-63082266D01*
X187415871Y-62804964D01*
X187303077Y-62540524D01*
X187155439Y-62293839D01*
X186975687Y-62069472D01*
X186767149Y-61871577D01*
X186533683Y-61703814D01*
X186511843Y-61692250D01*
X186488654Y-61679972D01*
X186279608Y-61569288D01*
X186009627Y-61470489D01*
X185728736Y-61409245D01*
X185697685Y-61406801D01*
X185505718Y-61391693D01*
X185505709Y-61391693D01*
X185503261Y-61391500D01*
X185347729Y-61391500D01*
X185345593Y-61391646D01*
X185345582Y-61391646D01*
X185137452Y-61405835D01*
X185137446Y-61405836D01*
X185133175Y-61406127D01*
X185128980Y-61406996D01*
X185128978Y-61406996D01*
X184992416Y-61435277D01*
X184851658Y-61464426D01*
X184580657Y-61560393D01*
X184325188Y-61692250D01*
X184321687Y-61694711D01*
X184321683Y-61694713D01*
X184254398Y-61742002D01*
X184089977Y-61857559D01*
X184074892Y-61871577D01*
X183896664Y-62037197D01*
X183879378Y-62053260D01*
X183697287Y-62275732D01*
X183547073Y-62520858D01*
X183431517Y-62784102D01*
X183352756Y-63060594D01*
X183312249Y-63345216D01*
X183312227Y-63349505D01*
X183312226Y-63349512D01*
X183310979Y-63587649D01*
X183310743Y-63632703D01*
X174235020Y-63632703D01*
X174268786Y-63587649D01*
X174277324Y-63572054D01*
X174322478Y-63451606D01*
X174326105Y-63436351D01*
X174331631Y-63385486D01*
X174332000Y-63378672D01*
X174332000Y-63002115D01*
X174327525Y-62986876D01*
X174326135Y-62985671D01*
X174318452Y-62984000D01*
X173492115Y-62984000D01*
X173476876Y-62988475D01*
X173475671Y-62989865D01*
X173474000Y-62997548D01*
X173474000Y-63823884D01*
X172474000Y-63823884D01*
X172474000Y-63002115D01*
X172469525Y-62986876D01*
X172468135Y-62985671D01*
X172460452Y-62984000D01*
X171634116Y-62984000D01*
X171618877Y-62988475D01*
X171617672Y-62989865D01*
X171616001Y-62997548D01*
X171616001Y-63378669D01*
X155072955Y-63378669D01*
X155086326Y-63333130D01*
X155139982Y-63286637D01*
X155192324Y-63275251D01*
X157556208Y-63275251D01*
X157571447Y-63270776D01*
X157572652Y-63269386D01*
X157574323Y-63261703D01*
X157574323Y-62230582D01*
X157573953Y-62223761D01*
X157568429Y-62172899D01*
X157564803Y-62157647D01*
X157519648Y-62037197D01*
X157511110Y-62021603D01*
X157437635Y-61923565D01*
X157412787Y-61857059D01*
X157427840Y-61787676D01*
X157478014Y-61737446D01*
X157538461Y-61722000D01*
X171490000Y-61722000D01*
X171558121Y-61742002D01*
X171604614Y-61795658D01*
X171616000Y-61848000D01*
X171616000Y-61965885D01*
X171620475Y-61981124D01*
X171621865Y-61982329D01*
X171629548Y-61984000D01*
X174313884Y-61984000D01*
X174329123Y-61979525D01*
X174330328Y-61978135D01*
X174331999Y-61970452D01*
X174331999Y-61848000D01*
X174352001Y-61779879D01*
X174405657Y-61733386D01*
X174457999Y-61722000D01*
X181102000Y-61722000D01*
X181102000Y-58075546D01*
X182094000Y-58075546D01*
X182098204Y-58089864D01*
X182105577Y-58091072D01*
X182106599Y-58090852D01*
X182260784Y-58039412D01*
X182273962Y-58033239D01*
X182411807Y-57947937D01*
X182423208Y-57938901D01*
X182537739Y-57824171D01*
X182546751Y-57812760D01*
X182631816Y-57674757D01*
X182637963Y-57661576D01*
X182689138Y-57507290D01*
X182692005Y-57493914D01*
X182700652Y-57409523D01*
X182697525Y-57398876D01*
X182696135Y-57397671D01*
X182688452Y-57396000D01*
X182112115Y-57396000D01*
X182096876Y-57400475D01*
X182095671Y-57401865D01*
X182094000Y-57409548D01*
X182094000Y-58075546D01*
X181102000Y-58075546D01*
X181102000Y-56377885D01*
X182094000Y-56377885D01*
X182098475Y-56393124D01*
X182099865Y-56394329D01*
X182107548Y-56396000D01*
X182683884Y-56396000D01*
X182699123Y-56391525D01*
X182700328Y-56390135D01*
X182701073Y-56386710D01*
X182691743Y-56296794D01*
X182688851Y-56283400D01*
X182637412Y-56129216D01*
X182631239Y-56116038D01*
X182545937Y-55978193D01*
X182536901Y-55966792D01*
X182422171Y-55852261D01*
X182410760Y-55843249D01*
X182272757Y-55758184D01*
X182259576Y-55752037D01*
X182106146Y-55701146D01*
X182097325Y-55702782D01*
X182094000Y-55715021D01*
X182094000Y-56377885D01*
X181102000Y-56377885D01*
X181102000Y-51797169D01*
X182982001Y-51797169D01*
X182982371Y-51803990D01*
X182987895Y-51854852D01*
X182991521Y-51870104D01*
X183036676Y-51990554D01*
X183045214Y-52006149D01*
X183121715Y-52108224D01*
X183134276Y-52120785D01*
X183236351Y-52197286D01*
X183251946Y-52205824D01*
X183372394Y-52250978D01*
X183387649Y-52254605D01*
X183438514Y-52260131D01*
X183445328Y-52260500D01*
X183971885Y-52260500D01*
X183987124Y-52256025D01*
X183988329Y-52254635D01*
X183990000Y-52246952D01*
X183990000Y-52242384D01*
X184990000Y-52242384D01*
X184994475Y-52257623D01*
X184995865Y-52258828D01*
X185003548Y-52260499D01*
X185534669Y-52260499D01*
X185541490Y-52260129D01*
X185592352Y-52254605D01*
X185607604Y-52250979D01*
X185728054Y-52205824D01*
X185743649Y-52197286D01*
X185845724Y-52120785D01*
X185858285Y-52108224D01*
X185934786Y-52006149D01*
X185943324Y-51990554D01*
X185988478Y-51870106D01*
X185992105Y-51854851D01*
X185997631Y-51803986D01*
X185998000Y-51797172D01*
X185998000Y-51318115D01*
X185993525Y-51302876D01*
X185992135Y-51301671D01*
X185984452Y-51300000D01*
X185008115Y-51300000D01*
X184992876Y-51304475D01*
X184991671Y-51305865D01*
X184990000Y-51313548D01*
X184990000Y-52242384D01*
X183990000Y-52242384D01*
X183990000Y-51318115D01*
X183985525Y-51302876D01*
X183984135Y-51301671D01*
X183976452Y-51300000D01*
X183000116Y-51300000D01*
X182984877Y-51304475D01*
X182983672Y-51305865D01*
X182982001Y-51313548D01*
X182982001Y-51797169D01*
X181102000Y-51797169D01*
X181102000Y-50672000D01*
X181122002Y-50603879D01*
X181175658Y-50557386D01*
X181228000Y-50546000D01*
X189865500Y-50546000D01*
X189933621Y-50566002D01*
G37*
G04 #@! TD.AperFunction*
G04 #@! TA.AperFunction,Conductor*
G36*
X189933621Y-26182502D02*
G01*
X189980114Y-26236158D01*
X189991500Y-26288500D01*
X189991500Y-45594000D01*
X189971498Y-45662121D01*
X189917842Y-45708614D01*
X189865500Y-45720000D01*
X186123264Y-45720000D01*
X186055143Y-45699998D01*
X186008650Y-45646342D01*
X185998714Y-45613059D01*
X185963890Y-45385484D01*
X185961501Y-45375457D01*
X185890102Y-45157012D01*
X185886105Y-45147503D01*
X185779989Y-44943656D01*
X185774495Y-44934931D01*
X185636507Y-44751148D01*
X185629664Y-44743441D01*
X185463509Y-44584661D01*
X185455499Y-44578174D01*
X185265653Y-44448670D01*
X185256679Y-44443571D01*
X185048231Y-44346813D01*
X185038544Y-44343250D01*
X185007459Y-44334629D01*
X184993356Y-44334842D01*
X184990000Y-44342493D01*
X184990000Y-45720000D01*
X183990000Y-45720000D01*
X183990000Y-44345827D01*
X183986027Y-44332296D01*
X183976947Y-44330991D01*
X183975230Y-44331422D01*
X183965479Y-44334742D01*
X183754711Y-44426385D01*
X183745636Y-44431251D01*
X183552673Y-44556085D01*
X183544502Y-44562378D01*
X183374520Y-44717050D01*
X183367494Y-44724583D01*
X183225055Y-44904944D01*
X183219350Y-44913531D01*
X183108286Y-45114722D01*
X183104056Y-45124134D01*
X183027341Y-45340768D01*
X183024707Y-45350739D01*
X182984405Y-45576995D01*
X182983436Y-45587246D01*
X182983335Y-45595536D01*
X182962504Y-45663408D01*
X182908286Y-45709243D01*
X182857344Y-45720000D01*
X170306000Y-45720000D01*
X170237879Y-45699998D01*
X170191386Y-45646342D01*
X170180000Y-45594000D01*
X170180000Y-39500915D01*
X171244001Y-39500915D01*
X171244061Y-39503672D01*
X171246601Y-39561855D01*
X171247317Y-39568972D01*
X171289999Y-39838453D01*
X171291978Y-39847023D01*
X171371504Y-40107143D01*
X171374655Y-40115353D01*
X171489613Y-40361882D01*
X171493876Y-40369572D01*
X171642024Y-40597700D01*
X171647314Y-40604719D01*
X171825783Y-40810024D01*
X171831976Y-40816217D01*
X172037281Y-40994686D01*
X172044300Y-40999976D01*
X172272428Y-41148124D01*
X172280118Y-41152387D01*
X172526647Y-41267345D01*
X172534857Y-41270496D01*
X172794977Y-41350022D01*
X172803547Y-41352001D01*
X173073044Y-41394685D01*
X173080128Y-41395399D01*
X173138331Y-41397940D01*
X173141083Y-41398000D01*
X174233885Y-41398000D01*
X174249124Y-41393525D01*
X174250329Y-41392135D01*
X174252000Y-41384452D01*
X174252000Y-41379884D01*
X175252000Y-41379884D01*
X175256475Y-41395123D01*
X175257865Y-41396328D01*
X175265548Y-41397999D01*
X176362915Y-41397999D01*
X176365672Y-41397939D01*
X176423855Y-41395399D01*
X176430972Y-41394683D01*
X176700453Y-41352001D01*
X176709023Y-41350022D01*
X176969143Y-41270496D01*
X176977353Y-41267345D01*
X177223882Y-41152387D01*
X177231572Y-41148124D01*
X177459700Y-40999976D01*
X177466719Y-40994686D01*
X177672024Y-40816217D01*
X177678217Y-40810024D01*
X177856686Y-40604719D01*
X177861976Y-40597700D01*
X178010124Y-40369572D01*
X178014387Y-40361882D01*
X178129345Y-40115353D01*
X178132496Y-40107143D01*
X178212022Y-39847023D01*
X178214001Y-39838453D01*
X178256685Y-39568956D01*
X178257399Y-39561872D01*
X178259940Y-39503669D01*
X178260000Y-39500917D01*
X178260000Y-38408115D01*
X178255525Y-38392876D01*
X178254135Y-38391671D01*
X178246452Y-38390000D01*
X175270115Y-38390000D01*
X175254876Y-38394475D01*
X175253671Y-38395865D01*
X175252000Y-38403548D01*
X175252000Y-41379884D01*
X174252000Y-41379884D01*
X174252000Y-38408115D01*
X174247525Y-38392876D01*
X174246135Y-38391671D01*
X174238452Y-38390000D01*
X171262116Y-38390000D01*
X171246877Y-38394475D01*
X171245672Y-38395865D01*
X171244001Y-38403548D01*
X171244001Y-39500915D01*
X170180000Y-39500915D01*
X170180000Y-35686000D01*
X170200002Y-35617879D01*
X170253658Y-35571386D01*
X170306000Y-35560000D01*
X171235729Y-35560000D01*
X171303850Y-35580002D01*
X171350343Y-35633658D01*
X171360447Y-35703932D01*
X171356223Y-35722839D01*
X171291978Y-35932977D01*
X171289999Y-35941547D01*
X171247315Y-36211044D01*
X171246601Y-36218128D01*
X171244060Y-36276331D01*
X171244000Y-36279083D01*
X171244000Y-37371885D01*
X171248475Y-37387124D01*
X171249865Y-37388329D01*
X171257548Y-37390000D01*
X178241884Y-37390000D01*
X178257123Y-37385525D01*
X178258328Y-37384135D01*
X178259999Y-37376452D01*
X178259999Y-36279086D01*
X178259939Y-36276328D01*
X178257399Y-36218145D01*
X178256683Y-36211028D01*
X178214001Y-35941547D01*
X178212022Y-35932977D01*
X178147777Y-35722839D01*
X178146988Y-35651847D01*
X178184706Y-35591698D01*
X178248955Y-35561489D01*
X178268271Y-35560000D01*
X180340000Y-35560000D01*
X180340000Y-30612703D01*
X183310743Y-30612703D01*
X183348268Y-30897734D01*
X183424129Y-31175036D01*
X183425813Y-31178984D01*
X183528812Y-31420459D01*
X183536923Y-31439476D01*
X183684561Y-31686161D01*
X183864313Y-31910528D01*
X184072851Y-32108423D01*
X184306317Y-32276186D01*
X184310112Y-32278195D01*
X184310113Y-32278196D01*
X184331869Y-32289715D01*
X184560392Y-32410712D01*
X184830373Y-32509511D01*
X185111264Y-32570755D01*
X185139841Y-32573004D01*
X185334282Y-32588307D01*
X185334291Y-32588307D01*
X185336739Y-32588500D01*
X185492271Y-32588500D01*
X185494407Y-32588354D01*
X185494418Y-32588354D01*
X185702548Y-32574165D01*
X185702554Y-32574164D01*
X185706825Y-32573873D01*
X185711020Y-32573004D01*
X185711022Y-32573004D01*
X185847583Y-32544724D01*
X185988342Y-32515574D01*
X186259343Y-32419607D01*
X186514812Y-32287750D01*
X186518313Y-32285289D01*
X186518317Y-32285287D01*
X186632418Y-32205095D01*
X186750023Y-32122441D01*
X186960622Y-31926740D01*
X187142713Y-31704268D01*
X187292927Y-31459142D01*
X187408483Y-31195898D01*
X187487244Y-30919406D01*
X187527751Y-30634784D01*
X187527845Y-30616951D01*
X187529235Y-30351583D01*
X187529235Y-30351576D01*
X187529257Y-30347297D01*
X187491732Y-30062266D01*
X187415871Y-29784964D01*
X187303077Y-29520524D01*
X187155439Y-29273839D01*
X186975687Y-29049472D01*
X186767149Y-28851577D01*
X186533683Y-28683814D01*
X186511843Y-28672250D01*
X186422461Y-28624925D01*
X186279608Y-28549288D01*
X186009627Y-28450489D01*
X185728736Y-28389245D01*
X185697685Y-28386801D01*
X185505718Y-28371693D01*
X185505709Y-28371693D01*
X185503261Y-28371500D01*
X185347729Y-28371500D01*
X185345593Y-28371646D01*
X185345582Y-28371646D01*
X185137452Y-28385835D01*
X185137446Y-28385836D01*
X185133175Y-28386127D01*
X185128980Y-28386996D01*
X185128978Y-28386996D01*
X184992416Y-28415277D01*
X184851658Y-28444426D01*
X184580657Y-28540393D01*
X184325188Y-28672250D01*
X184321687Y-28674711D01*
X184321683Y-28674713D01*
X184311594Y-28681804D01*
X184089977Y-28837559D01*
X183879378Y-29033260D01*
X183697287Y-29255732D01*
X183547073Y-29500858D01*
X183431517Y-29764102D01*
X183352756Y-30040594D01*
X183312249Y-30325216D01*
X183312227Y-30329505D01*
X183312226Y-30329512D01*
X183310765Y-30608417D01*
X183310743Y-30612703D01*
X180340000Y-30612703D01*
X180340000Y-26288500D01*
X180360002Y-26220379D01*
X180413658Y-26173886D01*
X180466000Y-26162500D01*
X189865500Y-26162500D01*
X189933621Y-26182502D01*
G37*
G04 #@! TD.AperFunction*
G04 #@! TA.AperFunction,Conductor*
G36*
X157050000Y-52242384D02*
G01*
X157054475Y-52257623D01*
X157055865Y-52258828D01*
X157063548Y-52260499D01*
X157594669Y-52260499D01*
X157601490Y-52260129D01*
X157652352Y-52254605D01*
X157675293Y-52249151D01*
X157675748Y-52251065D01*
X157736149Y-52246639D01*
X157798520Y-52280557D01*
X157832653Y-52342810D01*
X157835144Y-52380270D01*
X157500167Y-56400002D01*
X157480000Y-56642000D01*
X157495756Y-56642219D01*
X157495757Y-56642219D01*
X159787390Y-56674047D01*
X173220000Y-56860611D01*
X173220000Y-57969884D01*
X173224475Y-57985123D01*
X173225865Y-57986328D01*
X173229290Y-57987073D01*
X173319206Y-57977743D01*
X173332600Y-57974851D01*
X173486784Y-57923412D01*
X173499962Y-57917239D01*
X173637807Y-57831937D01*
X173649208Y-57822901D01*
X173763739Y-57708171D01*
X173772751Y-57696760D01*
X173857816Y-57558757D01*
X173863963Y-57545576D01*
X173915138Y-57391290D01*
X173918005Y-57377914D01*
X173927672Y-57283562D01*
X173928000Y-57277146D01*
X173927999Y-56998206D01*
X173948001Y-56930086D01*
X174001656Y-56883593D01*
X174055746Y-56872219D01*
X175643751Y-56894274D01*
X175711586Y-56915220D01*
X175757329Y-56969516D01*
X175768000Y-57020262D01*
X175768000Y-60326000D01*
X175747998Y-60394121D01*
X175694342Y-60440614D01*
X175642000Y-60452000D01*
X174274537Y-60452000D01*
X174239567Y-60444221D01*
X174236666Y-60444000D01*
X171729381Y-60444000D01*
X171719518Y-60446896D01*
X171684020Y-60452000D01*
X159892000Y-60452000D01*
X159823879Y-60431998D01*
X159777386Y-60378342D01*
X159766000Y-60326000D01*
X159766000Y-59441513D01*
X171714376Y-59441513D01*
X171718193Y-59444000D01*
X172455885Y-59444000D01*
X172471124Y-59439525D01*
X172472329Y-59438135D01*
X172474000Y-59430452D01*
X172474000Y-59425885D01*
X173474000Y-59425885D01*
X173478475Y-59441124D01*
X173479865Y-59442329D01*
X173487548Y-59444000D01*
X174219376Y-59444000D01*
X174232907Y-59440027D01*
X174233617Y-59435089D01*
X174176972Y-59304814D01*
X174172105Y-59295739D01*
X174056426Y-59116926D01*
X174050136Y-59108757D01*
X173906806Y-58951240D01*
X173899273Y-58944215D01*
X173732139Y-58812222D01*
X173723552Y-58806517D01*
X173537114Y-58703597D01*
X173527705Y-58699369D01*
X173491076Y-58686398D01*
X173476996Y-58685626D01*
X173474000Y-58691337D01*
X173474000Y-59425885D01*
X172474000Y-59425885D01*
X172474000Y-58696766D01*
X172470027Y-58683235D01*
X172463045Y-58682231D01*
X172450868Y-58686212D01*
X172441359Y-58690209D01*
X172252463Y-58788542D01*
X172243738Y-58794036D01*
X172073433Y-58921905D01*
X172065726Y-58928748D01*
X171918590Y-59082717D01*
X171912104Y-59090727D01*
X171792098Y-59266649D01*
X171787000Y-59275623D01*
X171716469Y-59427570D01*
X171714376Y-59441513D01*
X159766000Y-59441513D01*
X159766000Y-58928000D01*
X147066000Y-58928000D01*
X147066000Y-67691500D01*
X147045998Y-67759621D01*
X146992342Y-67806114D01*
X146940000Y-67817500D01*
X135508500Y-67817500D01*
X135440379Y-67797498D01*
X135393886Y-67743842D01*
X135382500Y-67691500D01*
X135382500Y-63632703D01*
X137590743Y-63632703D01*
X137628268Y-63917734D01*
X137704129Y-64195036D01*
X137705813Y-64198984D01*
X137773268Y-64357128D01*
X137816923Y-64459476D01*
X137964561Y-64706161D01*
X138144313Y-64930528D01*
X138352851Y-65128423D01*
X138586317Y-65296186D01*
X138590112Y-65298195D01*
X138590113Y-65298196D01*
X138611869Y-65309715D01*
X138840392Y-65430712D01*
X139110373Y-65529511D01*
X139391264Y-65590755D01*
X139419841Y-65593004D01*
X139614282Y-65608307D01*
X139614291Y-65608307D01*
X139616739Y-65608500D01*
X139772271Y-65608500D01*
X139774407Y-65608354D01*
X139774418Y-65608354D01*
X139982548Y-65594165D01*
X139982554Y-65594164D01*
X139986825Y-65593873D01*
X139991020Y-65593004D01*
X139991022Y-65593004D01*
X140201168Y-65549485D01*
X140268342Y-65535574D01*
X140539343Y-65439607D01*
X140794812Y-65307750D01*
X140798313Y-65305289D01*
X140798317Y-65305287D01*
X140912417Y-65225096D01*
X141030023Y-65142441D01*
X141240622Y-64946740D01*
X141422713Y-64724268D01*
X141572927Y-64479142D01*
X141688483Y-64215898D01*
X141767244Y-63939406D01*
X141807751Y-63654784D01*
X141807845Y-63636951D01*
X141809235Y-63371583D01*
X141809235Y-63371576D01*
X141809257Y-63367297D01*
X141771732Y-63082266D01*
X141695871Y-62804964D01*
X141583077Y-62540524D01*
X141508527Y-62415960D01*
X141437643Y-62297521D01*
X141437640Y-62297517D01*
X141435439Y-62293839D01*
X141255687Y-62069472D01*
X141132289Y-61952372D01*
X141050258Y-61874527D01*
X141050255Y-61874525D01*
X141047149Y-61871577D01*
X140813683Y-61703814D01*
X140791843Y-61692250D01*
X140768654Y-61679972D01*
X140559608Y-61569288D01*
X140289627Y-61470489D01*
X140008736Y-61409245D01*
X139977685Y-61406801D01*
X139785718Y-61391693D01*
X139785709Y-61391693D01*
X139783261Y-61391500D01*
X139627729Y-61391500D01*
X139625593Y-61391646D01*
X139625582Y-61391646D01*
X139417452Y-61405835D01*
X139417446Y-61405836D01*
X139413175Y-61406127D01*
X139408980Y-61406996D01*
X139408978Y-61406996D01*
X139272416Y-61435277D01*
X139131658Y-61464426D01*
X138860657Y-61560393D01*
X138605188Y-61692250D01*
X138601687Y-61694711D01*
X138601683Y-61694713D01*
X138591594Y-61701804D01*
X138369977Y-61857559D01*
X138159378Y-62053260D01*
X137977287Y-62275732D01*
X137827073Y-62520858D01*
X137711517Y-62784102D01*
X137632756Y-63060594D01*
X137592249Y-63345216D01*
X137592227Y-63349505D01*
X137592226Y-63349512D01*
X137591015Y-63580705D01*
X137590743Y-63632703D01*
X135382500Y-63632703D01*
X135382500Y-57391577D01*
X171524928Y-57391577D01*
X171525148Y-57392599D01*
X171576588Y-57546784D01*
X171582761Y-57559962D01*
X171668063Y-57697807D01*
X171677099Y-57709208D01*
X171791829Y-57823739D01*
X171803240Y-57832751D01*
X171941243Y-57917816D01*
X171954424Y-57923963D01*
X172108710Y-57975138D01*
X172122086Y-57978005D01*
X172206477Y-57986652D01*
X172217124Y-57983525D01*
X172218329Y-57982135D01*
X172220000Y-57974452D01*
X172220000Y-57398115D01*
X172215525Y-57382876D01*
X172214135Y-57381671D01*
X172206452Y-57380000D01*
X171540454Y-57380000D01*
X171526136Y-57384204D01*
X171524928Y-57391577D01*
X135382500Y-57391577D01*
X135382500Y-51797169D01*
X155042001Y-51797169D01*
X155042371Y-51803990D01*
X155047895Y-51854852D01*
X155051521Y-51870104D01*
X155096676Y-51990554D01*
X155105214Y-52006149D01*
X155181715Y-52108224D01*
X155194276Y-52120785D01*
X155296351Y-52197286D01*
X155311946Y-52205824D01*
X155432394Y-52250978D01*
X155447649Y-52254605D01*
X155498514Y-52260131D01*
X155505328Y-52260500D01*
X156031885Y-52260500D01*
X156047124Y-52256025D01*
X156048329Y-52254635D01*
X156050000Y-52246952D01*
X156050000Y-51318115D01*
X156045525Y-51302876D01*
X156044135Y-51301671D01*
X156036452Y-51300000D01*
X155060116Y-51300000D01*
X155044877Y-51304475D01*
X155043672Y-51305865D01*
X155042001Y-51313548D01*
X155042001Y-51797169D01*
X135382500Y-51797169D01*
X135382500Y-50672000D01*
X135402502Y-50603879D01*
X135456158Y-50557386D01*
X135508500Y-50546000D01*
X157050000Y-50546000D01*
X157050000Y-52242384D01*
G37*
G04 #@! TD.AperFunction*
M02*
