G04 #@! TF.GenerationSoftware,KiCad,Pcbnew,6.0.9-8da3e8f707~116~ubuntu22.04.1*
G04 #@! TF.CreationDate,2022-12-04T14:58:13+01:00*
G04 #@! TF.ProjectId,24V_board,3234565f-626f-4617-9264-2e6b69636164,rev?*
G04 #@! TF.SameCoordinates,Original*
G04 #@! TF.FileFunction,Copper,L2,Bot*
G04 #@! TF.FilePolarity,Positive*
%FSLAX46Y46*%
G04 Gerber Fmt 4.6, Leading zero omitted, Abs format (unit mm)*
G04 Created by KiCad (PCBNEW 6.0.9-8da3e8f707~116~ubuntu22.04.1) date 2022-12-04 14:58:13*
%MOMM*%
%LPD*%
G01*
G04 APERTURE LIST*
G04 Aperture macros list*
%AMRoundRect*
0 Rectangle with rounded corners*
0 $1 Rounding radius*
0 $2 $3 $4 $5 $6 $7 $8 $9 X,Y pos of 4 corners*
0 Add a 4 corners polygon primitive as box body*
4,1,4,$2,$3,$4,$5,$6,$7,$8,$9,$2,$3,0*
0 Add four circle primitives for the rounded corners*
1,1,$1+$1,$2,$3*
1,1,$1+$1,$4,$5*
1,1,$1+$1,$6,$7*
1,1,$1+$1,$8,$9*
0 Add four rect primitives between the rounded corners*
20,1,$1+$1,$2,$3,$4,$5,0*
20,1,$1+$1,$4,$5,$6,$7,0*
20,1,$1+$1,$6,$7,$8,$9,0*
20,1,$1+$1,$8,$9,$2,$3,0*%
G04 Aperture macros list end*
G04 #@! TA.AperFunction,ComponentPad*
%ADD10R,2.000000X1.905000*%
G04 #@! TD*
G04 #@! TA.AperFunction,ComponentPad*
%ADD11O,2.000000X1.905000*%
G04 #@! TD*
G04 #@! TA.AperFunction,ComponentPad*
%ADD12RoundRect,1.500000X1.500000X-1.500000X1.500000X1.500000X-1.500000X1.500000X-1.500000X-1.500000X0*%
G04 #@! TD*
G04 #@! TA.AperFunction,ComponentPad*
%ADD13C,6.000000*%
G04 #@! TD*
G04 #@! TA.AperFunction,ComponentPad*
%ADD14R,3.000000X3.000000*%
G04 #@! TD*
G04 #@! TA.AperFunction,ComponentPad*
%ADD15C,3.000000*%
G04 #@! TD*
G04 #@! TA.AperFunction,ComponentPad*
%ADD16R,1.700000X1.700000*%
G04 #@! TD*
G04 #@! TA.AperFunction,ComponentPad*
%ADD17O,1.700000X1.700000*%
G04 #@! TD*
G04 APERTURE END LIST*
D10*
X184490000Y-50800000D03*
D11*
X184490000Y-48260000D03*
X184490000Y-45720000D03*
D12*
X174752000Y-37890000D03*
D13*
X174752000Y-30690000D03*
D12*
X162560000Y-38100000D03*
D13*
X162560000Y-30900000D03*
D10*
X156550000Y-50800000D03*
D11*
X156550000Y-48260000D03*
X156550000Y-45720000D03*
D14*
X155566324Y-63775251D03*
D15*
X150486324Y-63775251D03*
D16*
X172974000Y-62484000D03*
D17*
X172974000Y-59944000D03*
D12*
X149860000Y-38100000D03*
D13*
X149860000Y-30900000D03*
G04 #@! TA.AperFunction,Conductor*
G36*
X189933621Y-26182502D02*
G01*
X189980114Y-26236158D01*
X189991500Y-26288500D01*
X189991500Y-67691500D01*
X189971498Y-67759621D01*
X189917842Y-67806114D01*
X189865500Y-67817500D01*
X135508500Y-67817500D01*
X135440379Y-67797498D01*
X135393886Y-67743842D01*
X135382500Y-67691500D01*
X135382500Y-63632703D01*
X137590743Y-63632703D01*
X137628268Y-63917734D01*
X137704129Y-64195036D01*
X137705813Y-64198984D01*
X137774920Y-64361001D01*
X137816923Y-64459476D01*
X137964561Y-64706161D01*
X138144313Y-64930528D01*
X138352851Y-65128423D01*
X138586317Y-65296186D01*
X138590112Y-65298195D01*
X138590113Y-65298196D01*
X138611869Y-65309715D01*
X138840392Y-65430712D01*
X138864699Y-65439607D01*
X139006979Y-65491674D01*
X139110373Y-65529511D01*
X139391264Y-65590755D01*
X139419841Y-65593004D01*
X139614282Y-65608307D01*
X139614291Y-65608307D01*
X139616739Y-65608500D01*
X139772271Y-65608500D01*
X139774407Y-65608354D01*
X139774418Y-65608354D01*
X139982548Y-65594165D01*
X139982554Y-65594164D01*
X139986825Y-65593873D01*
X139991020Y-65593004D01*
X139991022Y-65593004D01*
X140127583Y-65564724D01*
X140268342Y-65535574D01*
X140357351Y-65504054D01*
X149470248Y-65504054D01*
X149476216Y-65512026D01*
X149531586Y-65546760D01*
X149539140Y-65550811D01*
X149780844Y-65659945D01*
X149788875Y-65662931D01*
X150043156Y-65738253D01*
X150051508Y-65740120D01*
X150313664Y-65780235D01*
X150322198Y-65780951D01*
X150587369Y-65785118D01*
X150595920Y-65784669D01*
X150859207Y-65752808D01*
X150867608Y-65751206D01*
X151124148Y-65683904D01*
X151132250Y-65681177D01*
X151377273Y-65579685D01*
X151384941Y-65575879D01*
X151492320Y-65513132D01*
X151501996Y-65502877D01*
X151498678Y-65494712D01*
X151327351Y-65323385D01*
X153557824Y-65323385D01*
X153564579Y-65385567D01*
X153615709Y-65521956D01*
X153703063Y-65638512D01*
X153819619Y-65725866D01*
X153956008Y-65776996D01*
X154018190Y-65783751D01*
X157114458Y-65783751D01*
X157176640Y-65776996D01*
X157313029Y-65725866D01*
X157429585Y-65638512D01*
X157516939Y-65521956D01*
X157568069Y-65385567D01*
X157574824Y-65323385D01*
X157574824Y-62227117D01*
X157568069Y-62164935D01*
X157516939Y-62028546D01*
X157429585Y-61911990D01*
X157313029Y-61824636D01*
X157176640Y-61773506D01*
X157114458Y-61766751D01*
X154018190Y-61766751D01*
X153956008Y-61773506D01*
X153819619Y-61824636D01*
X153703063Y-61911990D01*
X153615709Y-62028546D01*
X153564579Y-62164935D01*
X153557824Y-62227117D01*
X153557824Y-65323385D01*
X151327351Y-65323385D01*
X150499136Y-64495170D01*
X150485192Y-64487556D01*
X150483359Y-64487687D01*
X150476744Y-64491938D01*
X149477008Y-65491674D01*
X149470248Y-65504054D01*
X140357351Y-65504054D01*
X140539343Y-65439607D01*
X140794812Y-65307750D01*
X140798313Y-65305289D01*
X140798317Y-65305287D01*
X140912417Y-65225096D01*
X141030023Y-65142441D01*
X141240622Y-64946740D01*
X141422713Y-64724268D01*
X141572927Y-64479142D01*
X141628390Y-64352795D01*
X141686757Y-64219830D01*
X141688483Y-64215898D01*
X141725535Y-64085828D01*
X141766068Y-63943534D01*
X141767244Y-63939406D01*
X141792997Y-63758455D01*
X148473989Y-63758455D01*
X148489256Y-64023220D01*
X148490329Y-64031721D01*
X148541389Y-64291973D01*
X148543600Y-64300225D01*
X148629508Y-64551145D01*
X148632823Y-64559030D01*
X148748489Y-64789006D01*
X148754223Y-64793666D01*
X148767943Y-64786525D01*
X149766405Y-63788063D01*
X149772783Y-63776383D01*
X151198629Y-63776383D01*
X151198760Y-63778216D01*
X151203011Y-63784831D01*
X152203213Y-64785033D01*
X152215593Y-64791793D01*
X152221857Y-64787104D01*
X152314286Y-64616871D01*
X152317854Y-64609078D01*
X152411595Y-64361001D01*
X152414072Y-64352795D01*
X152473278Y-64094289D01*
X152474618Y-64085828D01*
X152498355Y-63819867D01*
X152498601Y-63814928D01*
X152498990Y-63777736D01*
X152498847Y-63772770D01*
X152480686Y-63506374D01*
X152479525Y-63497900D01*
X152425743Y-63238195D01*
X152423444Y-63229960D01*
X152334912Y-62979956D01*
X152331515Y-62972106D01*
X152225801Y-62767289D01*
X152216064Y-62757087D01*
X152209224Y-62759458D01*
X151206243Y-63762439D01*
X151198629Y-63776383D01*
X149772783Y-63776383D01*
X149774019Y-63774119D01*
X149773888Y-63772286D01*
X149769637Y-63765671D01*
X148768785Y-62764819D01*
X148756405Y-62758059D01*
X148750381Y-62762569D01*
X148649649Y-62952818D01*
X148646163Y-62960646D01*
X148555024Y-63209697D01*
X148552635Y-63217921D01*
X148496136Y-63477046D01*
X148494887Y-63485501D01*
X148474078Y-63749904D01*
X148473989Y-63758455D01*
X141792997Y-63758455D01*
X141807751Y-63654784D01*
X141807845Y-63636951D01*
X141809235Y-63371583D01*
X141809235Y-63371576D01*
X141809257Y-63367297D01*
X141771732Y-63082266D01*
X141695871Y-62804964D01*
X141583077Y-62540524D01*
X141435439Y-62293839D01*
X141255687Y-62069472D01*
X141232596Y-62047559D01*
X149470659Y-62047559D01*
X149474202Y-62056022D01*
X150473512Y-63055332D01*
X150487456Y-63062946D01*
X150489289Y-63062815D01*
X150495904Y-63058564D01*
X151495317Y-62059151D01*
X151502077Y-62046771D01*
X151496350Y-62039121D01*
X151422446Y-61993833D01*
X151414876Y-61989875D01*
X151172028Y-61883273D01*
X151163968Y-61880371D01*
X150908916Y-61807718D01*
X150900538Y-61805936D01*
X150637980Y-61768569D01*
X150629435Y-61767942D01*
X150364232Y-61766553D01*
X150355698Y-61767090D01*
X150092757Y-61801707D01*
X150084359Y-61803400D01*
X149828562Y-61873378D01*
X149820467Y-61876197D01*
X149576523Y-61980248D01*
X149568900Y-61984132D01*
X149480230Y-62037200D01*
X149470659Y-62047559D01*
X141232596Y-62047559D01*
X141097302Y-61919170D01*
X141050258Y-61874527D01*
X141050255Y-61874525D01*
X141047149Y-61871577D01*
X140813683Y-61703814D01*
X140791843Y-61692250D01*
X140768654Y-61679972D01*
X140559608Y-61569288D01*
X140289627Y-61470489D01*
X140008736Y-61409245D01*
X139977685Y-61406801D01*
X139785718Y-61391693D01*
X139785709Y-61391693D01*
X139783261Y-61391500D01*
X139627729Y-61391500D01*
X139625593Y-61391646D01*
X139625582Y-61391646D01*
X139417452Y-61405835D01*
X139417446Y-61405836D01*
X139413175Y-61406127D01*
X139408980Y-61406996D01*
X139408978Y-61406996D01*
X139272416Y-61435277D01*
X139131658Y-61464426D01*
X138860657Y-61560393D01*
X138605188Y-61692250D01*
X138601687Y-61694711D01*
X138601683Y-61694713D01*
X138591594Y-61701804D01*
X138369977Y-61857559D01*
X138317193Y-61906609D01*
X138176661Y-62037200D01*
X138159378Y-62053260D01*
X137977287Y-62275732D01*
X137827073Y-62520858D01*
X137711517Y-62784102D01*
X137632756Y-63060594D01*
X137592249Y-63345216D01*
X137592227Y-63349505D01*
X137592226Y-63349512D01*
X137590765Y-63628417D01*
X137590743Y-63632703D01*
X135382500Y-63632703D01*
X135382500Y-59910695D01*
X171611251Y-59910695D01*
X171611548Y-59915848D01*
X171611548Y-59915851D01*
X171617011Y-60010590D01*
X171624110Y-60133715D01*
X171625247Y-60138761D01*
X171625248Y-60138767D01*
X171645119Y-60226939D01*
X171673222Y-60351639D01*
X171757266Y-60558616D01*
X171873987Y-60749088D01*
X172020250Y-60917938D01*
X172024230Y-60921242D01*
X172028981Y-60925187D01*
X172068616Y-60984090D01*
X172070113Y-61055071D01*
X172032997Y-61115593D01*
X171992724Y-61140112D01*
X171877295Y-61183385D01*
X171760739Y-61270739D01*
X171673385Y-61387295D01*
X171622255Y-61523684D01*
X171615500Y-61585866D01*
X171615500Y-63382134D01*
X171622255Y-63444316D01*
X171673385Y-63580705D01*
X171760739Y-63697261D01*
X171877295Y-63784615D01*
X172013684Y-63835745D01*
X172075866Y-63842500D01*
X173872134Y-63842500D01*
X173934316Y-63835745D01*
X174070705Y-63784615D01*
X174187261Y-63697261D01*
X174235645Y-63632703D01*
X183310743Y-63632703D01*
X183348268Y-63917734D01*
X183424129Y-64195036D01*
X183425813Y-64198984D01*
X183494920Y-64361001D01*
X183536923Y-64459476D01*
X183684561Y-64706161D01*
X183864313Y-64930528D01*
X184072851Y-65128423D01*
X184306317Y-65296186D01*
X184310112Y-65298195D01*
X184310113Y-65298196D01*
X184331869Y-65309715D01*
X184560392Y-65430712D01*
X184584699Y-65439607D01*
X184726979Y-65491674D01*
X184830373Y-65529511D01*
X185111264Y-65590755D01*
X185139841Y-65593004D01*
X185334282Y-65608307D01*
X185334291Y-65608307D01*
X185336739Y-65608500D01*
X185492271Y-65608500D01*
X185494407Y-65608354D01*
X185494418Y-65608354D01*
X185702548Y-65594165D01*
X185702554Y-65594164D01*
X185706825Y-65593873D01*
X185711020Y-65593004D01*
X185711022Y-65593004D01*
X185847583Y-65564724D01*
X185988342Y-65535574D01*
X186259343Y-65439607D01*
X186514812Y-65307750D01*
X186518313Y-65305289D01*
X186518317Y-65305287D01*
X186632418Y-65225095D01*
X186750023Y-65142441D01*
X186960622Y-64946740D01*
X187142713Y-64724268D01*
X187292927Y-64479142D01*
X187348390Y-64352795D01*
X187406757Y-64219830D01*
X187408483Y-64215898D01*
X187445535Y-64085828D01*
X187486068Y-63943534D01*
X187487244Y-63939406D01*
X187527751Y-63654784D01*
X187527845Y-63636951D01*
X187529235Y-63371583D01*
X187529235Y-63371576D01*
X187529257Y-63367297D01*
X187491732Y-63082266D01*
X187415871Y-62804964D01*
X187303077Y-62540524D01*
X187155439Y-62293839D01*
X186975687Y-62069472D01*
X186817302Y-61919170D01*
X186770258Y-61874527D01*
X186770255Y-61874525D01*
X186767149Y-61871577D01*
X186533683Y-61703814D01*
X186511843Y-61692250D01*
X186488654Y-61679972D01*
X186279608Y-61569288D01*
X186009627Y-61470489D01*
X185728736Y-61409245D01*
X185697685Y-61406801D01*
X185505718Y-61391693D01*
X185505709Y-61391693D01*
X185503261Y-61391500D01*
X185347729Y-61391500D01*
X185345593Y-61391646D01*
X185345582Y-61391646D01*
X185137452Y-61405835D01*
X185137446Y-61405836D01*
X185133175Y-61406127D01*
X185128980Y-61406996D01*
X185128978Y-61406996D01*
X184992416Y-61435277D01*
X184851658Y-61464426D01*
X184580657Y-61560393D01*
X184325188Y-61692250D01*
X184321687Y-61694711D01*
X184321683Y-61694713D01*
X184311594Y-61701804D01*
X184089977Y-61857559D01*
X184037193Y-61906609D01*
X183896661Y-62037200D01*
X183879378Y-62053260D01*
X183697287Y-62275732D01*
X183547073Y-62520858D01*
X183431517Y-62784102D01*
X183352756Y-63060594D01*
X183312249Y-63345216D01*
X183312227Y-63349505D01*
X183312226Y-63349512D01*
X183310765Y-63628417D01*
X183310743Y-63632703D01*
X174235645Y-63632703D01*
X174274615Y-63580705D01*
X174325745Y-63444316D01*
X174332500Y-63382134D01*
X174332500Y-61585866D01*
X174325745Y-61523684D01*
X174274615Y-61387295D01*
X174187261Y-61270739D01*
X174070705Y-61183385D01*
X174058132Y-61178672D01*
X173952203Y-61138960D01*
X173895439Y-61096318D01*
X173870739Y-61029756D01*
X173885947Y-60960408D01*
X173907493Y-60931727D01*
X174008435Y-60831137D01*
X174012096Y-60827489D01*
X174071594Y-60744689D01*
X174139435Y-60650277D01*
X174142453Y-60646077D01*
X174241430Y-60445811D01*
X174306370Y-60232069D01*
X174335529Y-60010590D01*
X174337156Y-59944000D01*
X174318852Y-59721361D01*
X174264431Y-59504702D01*
X174175354Y-59299840D01*
X174054014Y-59112277D01*
X173903670Y-58947051D01*
X173899619Y-58943852D01*
X173899615Y-58943848D01*
X173732414Y-58811800D01*
X173732410Y-58811798D01*
X173728359Y-58808598D01*
X173532789Y-58700638D01*
X173527920Y-58698914D01*
X173527916Y-58698912D01*
X173327087Y-58627795D01*
X173327083Y-58627794D01*
X173322212Y-58626069D01*
X173317119Y-58625162D01*
X173317116Y-58625161D01*
X173107373Y-58587800D01*
X173107367Y-58587799D01*
X173102284Y-58586894D01*
X173028452Y-58585992D01*
X172884081Y-58584228D01*
X172884079Y-58584228D01*
X172878911Y-58584165D01*
X172658091Y-58617955D01*
X172445756Y-58687357D01*
X172247607Y-58790507D01*
X172243474Y-58793610D01*
X172243471Y-58793612D01*
X172219247Y-58811800D01*
X172068965Y-58924635D01*
X171914629Y-59086138D01*
X171788743Y-59270680D01*
X171694688Y-59473305D01*
X171634989Y-59688570D01*
X171611251Y-59910695D01*
X135382500Y-59910695D01*
X135382500Y-48260000D01*
X137626654Y-48260000D01*
X137626924Y-48264119D01*
X137633357Y-48362263D01*
X137646017Y-48555426D01*
X137646819Y-48559459D01*
X137646820Y-48559465D01*
X137700256Y-48828101D01*
X137703776Y-48845797D01*
X137705103Y-48849706D01*
X137705104Y-48849710D01*
X137781692Y-49075330D01*
X137798941Y-49126145D01*
X137833528Y-49196281D01*
X137907750Y-49346787D01*
X137929885Y-49391673D01*
X137932179Y-49395106D01*
X138075234Y-49609203D01*
X138094367Y-49637838D01*
X138097081Y-49640932D01*
X138097085Y-49640938D01*
X138236024Y-49799366D01*
X138289573Y-49860427D01*
X138292662Y-49863136D01*
X138509062Y-50052915D01*
X138509068Y-50052919D01*
X138512162Y-50055633D01*
X138515588Y-50057922D01*
X138515593Y-50057926D01*
X138699405Y-50180744D01*
X138758327Y-50220115D01*
X138762026Y-50221939D01*
X138762031Y-50221942D01*
X138898313Y-50289148D01*
X139023855Y-50351059D01*
X139027760Y-50352384D01*
X139027761Y-50352385D01*
X139300290Y-50444896D01*
X139300294Y-50444897D01*
X139304203Y-50446224D01*
X139308247Y-50447028D01*
X139308253Y-50447030D01*
X139590535Y-50503180D01*
X139590541Y-50503181D01*
X139594574Y-50503983D01*
X139598679Y-50504252D01*
X139598686Y-50504253D01*
X139885881Y-50523076D01*
X139890000Y-50523346D01*
X139894119Y-50523076D01*
X140181314Y-50504253D01*
X140181321Y-50504252D01*
X140185426Y-50503983D01*
X140189459Y-50503181D01*
X140189465Y-50503180D01*
X140471747Y-50447030D01*
X140471753Y-50447028D01*
X140475797Y-50446224D01*
X140479706Y-50444897D01*
X140479710Y-50444896D01*
X140752239Y-50352385D01*
X140752240Y-50352384D01*
X140756145Y-50351059D01*
X140881687Y-50289148D01*
X141017969Y-50221942D01*
X141017974Y-50221939D01*
X141021673Y-50220115D01*
X141080595Y-50180744D01*
X141264407Y-50057926D01*
X141264412Y-50057922D01*
X141267838Y-50055633D01*
X141270932Y-50052919D01*
X141270938Y-50052915D01*
X141487338Y-49863136D01*
X141490427Y-49860427D01*
X141543976Y-49799366D01*
X141682915Y-49640938D01*
X141682919Y-49640932D01*
X141685633Y-49637838D01*
X141704767Y-49609203D01*
X141847821Y-49395106D01*
X141850115Y-49391673D01*
X141872251Y-49346787D01*
X141946472Y-49196281D01*
X141981059Y-49126145D01*
X141998308Y-49075330D01*
X142074896Y-48849710D01*
X142074897Y-48849706D01*
X142076224Y-48845797D01*
X142079744Y-48828101D01*
X142133180Y-48559465D01*
X142133181Y-48559459D01*
X142133983Y-48555426D01*
X142146644Y-48362263D01*
X155040064Y-48362263D01*
X155076404Y-48599744D01*
X155113094Y-48711997D01*
X155149434Y-48823183D01*
X155149437Y-48823189D01*
X155151042Y-48828101D01*
X155153429Y-48832687D01*
X155153431Y-48832691D01*
X155160254Y-48845797D01*
X155261975Y-49041200D01*
X155378415Y-49196283D01*
X155403320Y-49262765D01*
X155388328Y-49332161D01*
X155338198Y-49382435D01*
X155321885Y-49389915D01*
X155311707Y-49393731D01*
X155311704Y-49393733D01*
X155303295Y-49396885D01*
X155186739Y-49484239D01*
X155099385Y-49600795D01*
X155048255Y-49737184D01*
X155041500Y-49799366D01*
X155041500Y-51800634D01*
X155048255Y-51862816D01*
X155099385Y-51999205D01*
X155186739Y-52115761D01*
X155303295Y-52203115D01*
X155439684Y-52254245D01*
X155501866Y-52261000D01*
X157598134Y-52261000D01*
X157660316Y-52254245D01*
X157796705Y-52203115D01*
X157913261Y-52115761D01*
X158000615Y-51999205D01*
X158051745Y-51862816D01*
X158058500Y-51800634D01*
X158058500Y-49799366D01*
X158051745Y-49737184D01*
X158000615Y-49600795D01*
X157913261Y-49484239D01*
X157796705Y-49396885D01*
X157776811Y-49389427D01*
X157720047Y-49346787D01*
X157695346Y-49280226D01*
X157710553Y-49210877D01*
X157722158Y-49193353D01*
X157815367Y-49075330D01*
X157815370Y-49075325D01*
X157818568Y-49071276D01*
X157832885Y-49045342D01*
X157932177Y-48865474D01*
X157932179Y-48865470D01*
X157934674Y-48860950D01*
X157938655Y-48849710D01*
X158013144Y-48639360D01*
X158013145Y-48639356D01*
X158014870Y-48634485D01*
X158020183Y-48604659D01*
X158056095Y-48403052D01*
X158056096Y-48403046D01*
X158057001Y-48397963D01*
X158058687Y-48260000D01*
X165566654Y-48260000D01*
X165566924Y-48264119D01*
X165573357Y-48362263D01*
X165586017Y-48555426D01*
X165586819Y-48559459D01*
X165586820Y-48559465D01*
X165640256Y-48828101D01*
X165643776Y-48845797D01*
X165645103Y-48849706D01*
X165645104Y-48849710D01*
X165721692Y-49075330D01*
X165738941Y-49126145D01*
X165773528Y-49196281D01*
X165847750Y-49346787D01*
X165869885Y-49391673D01*
X165872179Y-49395106D01*
X166015234Y-49609203D01*
X166034367Y-49637838D01*
X166037081Y-49640932D01*
X166037085Y-49640938D01*
X166176024Y-49799366D01*
X166229573Y-49860427D01*
X166232662Y-49863136D01*
X166449062Y-50052915D01*
X166449068Y-50052919D01*
X166452162Y-50055633D01*
X166455588Y-50057922D01*
X166455593Y-50057926D01*
X166639405Y-50180744D01*
X166698327Y-50220115D01*
X166702026Y-50221939D01*
X166702031Y-50221942D01*
X166838313Y-50289148D01*
X166963855Y-50351059D01*
X166967760Y-50352384D01*
X166967761Y-50352385D01*
X167240290Y-50444896D01*
X167240294Y-50444897D01*
X167244203Y-50446224D01*
X167248247Y-50447028D01*
X167248253Y-50447030D01*
X167530535Y-50503180D01*
X167530541Y-50503181D01*
X167534574Y-50503983D01*
X167538679Y-50504252D01*
X167538686Y-50504253D01*
X167825881Y-50523076D01*
X167830000Y-50523346D01*
X167834119Y-50523076D01*
X168121314Y-50504253D01*
X168121321Y-50504252D01*
X168125426Y-50503983D01*
X168129459Y-50503181D01*
X168129465Y-50503180D01*
X168411747Y-50447030D01*
X168411753Y-50447028D01*
X168415797Y-50446224D01*
X168419706Y-50444897D01*
X168419710Y-50444896D01*
X168692239Y-50352385D01*
X168692240Y-50352384D01*
X168696145Y-50351059D01*
X168821687Y-50289148D01*
X168957969Y-50221942D01*
X168957974Y-50221939D01*
X168961673Y-50220115D01*
X169020595Y-50180744D01*
X169204407Y-50057926D01*
X169204412Y-50057922D01*
X169207838Y-50055633D01*
X169210932Y-50052919D01*
X169210938Y-50052915D01*
X169427338Y-49863136D01*
X169430427Y-49860427D01*
X169483976Y-49799366D01*
X169622915Y-49640938D01*
X169622919Y-49640932D01*
X169625633Y-49637838D01*
X169644767Y-49609203D01*
X169787821Y-49395106D01*
X169790115Y-49391673D01*
X169812251Y-49346787D01*
X169886472Y-49196281D01*
X169921059Y-49126145D01*
X169938308Y-49075330D01*
X170014896Y-48849710D01*
X170014897Y-48849706D01*
X170016224Y-48845797D01*
X170019744Y-48828101D01*
X170073180Y-48559465D01*
X170073181Y-48559459D01*
X170073983Y-48555426D01*
X170086644Y-48362263D01*
X182980064Y-48362263D01*
X183016404Y-48599744D01*
X183053094Y-48711997D01*
X183089434Y-48823183D01*
X183089437Y-48823189D01*
X183091042Y-48828101D01*
X183093429Y-48832687D01*
X183093431Y-48832691D01*
X183100254Y-48845797D01*
X183201975Y-49041200D01*
X183318415Y-49196283D01*
X183343320Y-49262765D01*
X183328328Y-49332161D01*
X183278198Y-49382435D01*
X183261885Y-49389915D01*
X183251707Y-49393731D01*
X183251704Y-49393733D01*
X183243295Y-49396885D01*
X183126739Y-49484239D01*
X183039385Y-49600795D01*
X182988255Y-49737184D01*
X182981500Y-49799366D01*
X182981500Y-51800634D01*
X182988255Y-51862816D01*
X183039385Y-51999205D01*
X183126739Y-52115761D01*
X183243295Y-52203115D01*
X183379684Y-52254245D01*
X183441866Y-52261000D01*
X185538134Y-52261000D01*
X185600316Y-52254245D01*
X185736705Y-52203115D01*
X185853261Y-52115761D01*
X185940615Y-51999205D01*
X185991745Y-51862816D01*
X185998500Y-51800634D01*
X185998500Y-49799366D01*
X185991745Y-49737184D01*
X185940615Y-49600795D01*
X185853261Y-49484239D01*
X185736705Y-49396885D01*
X185716811Y-49389427D01*
X185660047Y-49346787D01*
X185635346Y-49280226D01*
X185650553Y-49210877D01*
X185662158Y-49193353D01*
X185755367Y-49075330D01*
X185755370Y-49075325D01*
X185758568Y-49071276D01*
X185772885Y-49045342D01*
X185872177Y-48865474D01*
X185872179Y-48865470D01*
X185874674Y-48860950D01*
X185878655Y-48849710D01*
X185953144Y-48639360D01*
X185953145Y-48639356D01*
X185954870Y-48634485D01*
X185960183Y-48604659D01*
X185996095Y-48403052D01*
X185996096Y-48403046D01*
X185997001Y-48397963D01*
X185999936Y-48157737D01*
X185963596Y-47920256D01*
X185926906Y-47808003D01*
X185890566Y-47696817D01*
X185890563Y-47696811D01*
X185888958Y-47691899D01*
X185881855Y-47678253D01*
X185780416Y-47483393D01*
X185778025Y-47478800D01*
X185633777Y-47286680D01*
X185460088Y-47120699D01*
X185423097Y-47095465D01*
X185378096Y-47040556D01*
X185369925Y-46970032D01*
X185401179Y-46906284D01*
X185425660Y-46885589D01*
X185427635Y-46884311D01*
X185431977Y-46881502D01*
X185609670Y-46719814D01*
X185670347Y-46642983D01*
X185755367Y-46535330D01*
X185755370Y-46535325D01*
X185758568Y-46531276D01*
X185772885Y-46505342D01*
X185872177Y-46325474D01*
X185872179Y-46325470D01*
X185874674Y-46320950D01*
X185881322Y-46302179D01*
X185953144Y-46099360D01*
X185953145Y-46099356D01*
X185954870Y-46094485D01*
X185955778Y-46089389D01*
X185996095Y-45863052D01*
X185996096Y-45863046D01*
X185997001Y-45857963D01*
X185999936Y-45617737D01*
X185963596Y-45380256D01*
X185926906Y-45268003D01*
X185890566Y-45156817D01*
X185890563Y-45156811D01*
X185888958Y-45151899D01*
X185778025Y-44938800D01*
X185633777Y-44746680D01*
X185460088Y-44580699D01*
X185261622Y-44445314D01*
X185256939Y-44443140D01*
X185256935Y-44443138D01*
X185048405Y-44346342D01*
X185048401Y-44346341D01*
X185043710Y-44344163D01*
X184812202Y-44279960D01*
X184807065Y-44279411D01*
X184619407Y-44259356D01*
X184619399Y-44259356D01*
X184616072Y-44259000D01*
X184381598Y-44259000D01*
X184379025Y-44259212D01*
X184379014Y-44259212D01*
X184278054Y-44267513D01*
X184203063Y-44273678D01*
X183970056Y-44332206D01*
X183841229Y-44388221D01*
X183754474Y-44425943D01*
X183754471Y-44425945D01*
X183749737Y-44428003D01*
X183548023Y-44558498D01*
X183370330Y-44720186D01*
X183346141Y-44750815D01*
X183224633Y-44904670D01*
X183224630Y-44904675D01*
X183221432Y-44908724D01*
X183218939Y-44913240D01*
X183218937Y-44913243D01*
X183107823Y-45114526D01*
X183105326Y-45119050D01*
X183025130Y-45345515D01*
X183024223Y-45350608D01*
X183024222Y-45350611D01*
X183018942Y-45380256D01*
X182982999Y-45582037D01*
X182980064Y-45822263D01*
X183016404Y-46059744D01*
X183051661Y-46167615D01*
X183089434Y-46283183D01*
X183089437Y-46283189D01*
X183091042Y-46288101D01*
X183093429Y-46292687D01*
X183093431Y-46292691D01*
X183105605Y-46316077D01*
X183201975Y-46501200D01*
X183346223Y-46693320D01*
X183519912Y-46859301D01*
X183556903Y-46884535D01*
X183601904Y-46939444D01*
X183610075Y-47009968D01*
X183578821Y-47073716D01*
X183554340Y-47094411D01*
X183552707Y-47095468D01*
X183548023Y-47098498D01*
X183370330Y-47260186D01*
X183346141Y-47290815D01*
X183224633Y-47444670D01*
X183224630Y-47444675D01*
X183221432Y-47448724D01*
X183218939Y-47453240D01*
X183218937Y-47453243D01*
X183107823Y-47654526D01*
X183105326Y-47659050D01*
X183103602Y-47663919D01*
X183103600Y-47663923D01*
X183095319Y-47687309D01*
X183025130Y-47885515D01*
X183024223Y-47890608D01*
X183024222Y-47890611D01*
X183018942Y-47920256D01*
X182982999Y-48122037D01*
X182980064Y-48362263D01*
X170086644Y-48362263D01*
X170093076Y-48264119D01*
X170093346Y-48260000D01*
X170086982Y-48162907D01*
X170074253Y-47968686D01*
X170074252Y-47968679D01*
X170073983Y-47964574D01*
X170057288Y-47880640D01*
X170017030Y-47678253D01*
X170017028Y-47678247D01*
X170016224Y-47674203D01*
X170012735Y-47663923D01*
X169922385Y-47397761D01*
X169922384Y-47397760D01*
X169921059Y-47393855D01*
X169790115Y-47128327D01*
X169711030Y-47009968D01*
X169627926Y-46885593D01*
X169627922Y-46885588D01*
X169625633Y-46882162D01*
X169622919Y-46879068D01*
X169622915Y-46879062D01*
X169433136Y-46662662D01*
X169430427Y-46659573D01*
X169244601Y-46496607D01*
X169210938Y-46467085D01*
X169210932Y-46467081D01*
X169207838Y-46464367D01*
X169204412Y-46462078D01*
X169204407Y-46462074D01*
X168965106Y-46302179D01*
X168961673Y-46299885D01*
X168957974Y-46298061D01*
X168957969Y-46298058D01*
X168821687Y-46230852D01*
X168696145Y-46168941D01*
X168692239Y-46167615D01*
X168419710Y-46075104D01*
X168419706Y-46075103D01*
X168415797Y-46073776D01*
X168411753Y-46072972D01*
X168411747Y-46072970D01*
X168129465Y-46016820D01*
X168129459Y-46016819D01*
X168125426Y-46016017D01*
X168121321Y-46015748D01*
X168121314Y-46015747D01*
X167834119Y-45996924D01*
X167830000Y-45996654D01*
X167825881Y-45996924D01*
X167538686Y-46015747D01*
X167538679Y-46015748D01*
X167534574Y-46016017D01*
X167530541Y-46016819D01*
X167530535Y-46016820D01*
X167248253Y-46072970D01*
X167248247Y-46072972D01*
X167244203Y-46073776D01*
X167240294Y-46075103D01*
X167240290Y-46075104D01*
X166967761Y-46167615D01*
X166963855Y-46168941D01*
X166838313Y-46230852D01*
X166702031Y-46298058D01*
X166702026Y-46298061D01*
X166698327Y-46299885D01*
X166694894Y-46302179D01*
X166455593Y-46462074D01*
X166455588Y-46462078D01*
X166452162Y-46464367D01*
X166449068Y-46467081D01*
X166449062Y-46467085D01*
X166415399Y-46496607D01*
X166229573Y-46659573D01*
X166226864Y-46662662D01*
X166037085Y-46879062D01*
X166037081Y-46879068D01*
X166034367Y-46882162D01*
X166032078Y-46885588D01*
X166032074Y-46885593D01*
X165948970Y-47009968D01*
X165869885Y-47128327D01*
X165738941Y-47393855D01*
X165737616Y-47397760D01*
X165737615Y-47397761D01*
X165647266Y-47663923D01*
X165643776Y-47674203D01*
X165642972Y-47678247D01*
X165642970Y-47678253D01*
X165602713Y-47880640D01*
X165586017Y-47964574D01*
X165585748Y-47968679D01*
X165585747Y-47968686D01*
X165573018Y-48162907D01*
X165566654Y-48260000D01*
X158058687Y-48260000D01*
X158059936Y-48157737D01*
X158023596Y-47920256D01*
X157986906Y-47808003D01*
X157950566Y-47696817D01*
X157950563Y-47696811D01*
X157948958Y-47691899D01*
X157941855Y-47678253D01*
X157840416Y-47483393D01*
X157838025Y-47478800D01*
X157693777Y-47286680D01*
X157520088Y-47120699D01*
X157483097Y-47095465D01*
X157438096Y-47040556D01*
X157429925Y-46970032D01*
X157461179Y-46906284D01*
X157485660Y-46885589D01*
X157487635Y-46884311D01*
X157491977Y-46881502D01*
X157669670Y-46719814D01*
X157730347Y-46642983D01*
X157815367Y-46535330D01*
X157815370Y-46535325D01*
X157818568Y-46531276D01*
X157832885Y-46505342D01*
X157932177Y-46325474D01*
X157932179Y-46325470D01*
X157934674Y-46320950D01*
X157941322Y-46302179D01*
X158013144Y-46099360D01*
X158013145Y-46099356D01*
X158014870Y-46094485D01*
X158015778Y-46089389D01*
X158056095Y-45863052D01*
X158056096Y-45863046D01*
X158057001Y-45857963D01*
X158059936Y-45617737D01*
X158023596Y-45380256D01*
X157986906Y-45268003D01*
X157950566Y-45156817D01*
X157950563Y-45156811D01*
X157948958Y-45151899D01*
X157838025Y-44938800D01*
X157693777Y-44746680D01*
X157520088Y-44580699D01*
X157321622Y-44445314D01*
X157316939Y-44443140D01*
X157316935Y-44443138D01*
X157108405Y-44346342D01*
X157108401Y-44346341D01*
X157103710Y-44344163D01*
X156872202Y-44279960D01*
X156867065Y-44279411D01*
X156679407Y-44259356D01*
X156679399Y-44259356D01*
X156676072Y-44259000D01*
X156441598Y-44259000D01*
X156439025Y-44259212D01*
X156439014Y-44259212D01*
X156338054Y-44267513D01*
X156263063Y-44273678D01*
X156030056Y-44332206D01*
X155901229Y-44388221D01*
X155814474Y-44425943D01*
X155814471Y-44425945D01*
X155809737Y-44428003D01*
X155608023Y-44558498D01*
X155430330Y-44720186D01*
X155406141Y-44750815D01*
X155284633Y-44904670D01*
X155284630Y-44904675D01*
X155281432Y-44908724D01*
X155278939Y-44913240D01*
X155278937Y-44913243D01*
X155167823Y-45114526D01*
X155165326Y-45119050D01*
X155085130Y-45345515D01*
X155084223Y-45350608D01*
X155084222Y-45350611D01*
X155078942Y-45380256D01*
X155042999Y-45582037D01*
X155040064Y-45822263D01*
X155076404Y-46059744D01*
X155111661Y-46167615D01*
X155149434Y-46283183D01*
X155149437Y-46283189D01*
X155151042Y-46288101D01*
X155153429Y-46292687D01*
X155153431Y-46292691D01*
X155165605Y-46316077D01*
X155261975Y-46501200D01*
X155406223Y-46693320D01*
X155579912Y-46859301D01*
X155616903Y-46884535D01*
X155661904Y-46939444D01*
X155670075Y-47009968D01*
X155638821Y-47073716D01*
X155614340Y-47094411D01*
X155612707Y-47095468D01*
X155608023Y-47098498D01*
X155430330Y-47260186D01*
X155406141Y-47290815D01*
X155284633Y-47444670D01*
X155284630Y-47444675D01*
X155281432Y-47448724D01*
X155278939Y-47453240D01*
X155278937Y-47453243D01*
X155167823Y-47654526D01*
X155165326Y-47659050D01*
X155163602Y-47663919D01*
X155163600Y-47663923D01*
X155155319Y-47687309D01*
X155085130Y-47885515D01*
X155084223Y-47890608D01*
X155084222Y-47890611D01*
X155078942Y-47920256D01*
X155042999Y-48122037D01*
X155040064Y-48362263D01*
X142146644Y-48362263D01*
X142153076Y-48264119D01*
X142153346Y-48260000D01*
X142146982Y-48162907D01*
X142134253Y-47968686D01*
X142134252Y-47968679D01*
X142133983Y-47964574D01*
X142117288Y-47880640D01*
X142077030Y-47678253D01*
X142077028Y-47678247D01*
X142076224Y-47674203D01*
X142072735Y-47663923D01*
X141982385Y-47397761D01*
X141982384Y-47397760D01*
X141981059Y-47393855D01*
X141850115Y-47128327D01*
X141771030Y-47009968D01*
X141687926Y-46885593D01*
X141687922Y-46885588D01*
X141685633Y-46882162D01*
X141682919Y-46879068D01*
X141682915Y-46879062D01*
X141493136Y-46662662D01*
X141490427Y-46659573D01*
X141304601Y-46496607D01*
X141270938Y-46467085D01*
X141270932Y-46467081D01*
X141267838Y-46464367D01*
X141264412Y-46462078D01*
X141264407Y-46462074D01*
X141025106Y-46302179D01*
X141021673Y-46299885D01*
X141017974Y-46298061D01*
X141017969Y-46298058D01*
X140881687Y-46230852D01*
X140756145Y-46168941D01*
X140752239Y-46167615D01*
X140479710Y-46075104D01*
X140479706Y-46075103D01*
X140475797Y-46073776D01*
X140471753Y-46072972D01*
X140471747Y-46072970D01*
X140189465Y-46016820D01*
X140189459Y-46016819D01*
X140185426Y-46016017D01*
X140181321Y-46015748D01*
X140181314Y-46015747D01*
X139894119Y-45996924D01*
X139890000Y-45996654D01*
X139885881Y-45996924D01*
X139598686Y-46015747D01*
X139598679Y-46015748D01*
X139594574Y-46016017D01*
X139590541Y-46016819D01*
X139590535Y-46016820D01*
X139308253Y-46072970D01*
X139308247Y-46072972D01*
X139304203Y-46073776D01*
X139300294Y-46075103D01*
X139300290Y-46075104D01*
X139027761Y-46167615D01*
X139023855Y-46168941D01*
X138898313Y-46230852D01*
X138762031Y-46298058D01*
X138762026Y-46298061D01*
X138758327Y-46299885D01*
X138754894Y-46302179D01*
X138515593Y-46462074D01*
X138515588Y-46462078D01*
X138512162Y-46464367D01*
X138509068Y-46467081D01*
X138509062Y-46467085D01*
X138475399Y-46496607D01*
X138289573Y-46659573D01*
X138286864Y-46662662D01*
X138097085Y-46879062D01*
X138097081Y-46879068D01*
X138094367Y-46882162D01*
X138092078Y-46885588D01*
X138092074Y-46885593D01*
X138008970Y-47009968D01*
X137929885Y-47128327D01*
X137798941Y-47393855D01*
X137797616Y-47397760D01*
X137797615Y-47397761D01*
X137707266Y-47663923D01*
X137703776Y-47674203D01*
X137702972Y-47678247D01*
X137702970Y-47678253D01*
X137662713Y-47880640D01*
X137646017Y-47964574D01*
X137645748Y-47968679D01*
X137645747Y-47968686D01*
X137633018Y-48162907D01*
X137626654Y-48260000D01*
X135382500Y-48260000D01*
X135382500Y-36487663D01*
X146351500Y-36487663D01*
X146351501Y-39712336D01*
X146354257Y-39775480D01*
X146354815Y-39779002D01*
X146397509Y-40048571D01*
X146397511Y-40048578D01*
X146398198Y-40052918D01*
X146480325Y-40321540D01*
X146482185Y-40325529D01*
X146482187Y-40325534D01*
X146597174Y-40572126D01*
X146597177Y-40572132D01*
X146599036Y-40576118D01*
X146752023Y-40811697D01*
X146936308Y-41023692D01*
X147148303Y-41207977D01*
X147151994Y-41210374D01*
X147151998Y-41210377D01*
X147240442Y-41267813D01*
X147383882Y-41360964D01*
X147387868Y-41362823D01*
X147387874Y-41362826D01*
X147634466Y-41477813D01*
X147634471Y-41477815D01*
X147638460Y-41479675D01*
X147642673Y-41480963D01*
X147642678Y-41480965D01*
X147805486Y-41530741D01*
X147907082Y-41561802D01*
X147911422Y-41562489D01*
X147911429Y-41562491D01*
X148169709Y-41603397D01*
X148184520Y-41605743D01*
X148188081Y-41605898D01*
X148188086Y-41605899D01*
X148246287Y-41608440D01*
X148246291Y-41608440D01*
X148247663Y-41608500D01*
X149858829Y-41608500D01*
X151472336Y-41608499D01*
X151473705Y-41608439D01*
X151473716Y-41608439D01*
X151531914Y-41605899D01*
X151531920Y-41605898D01*
X151535480Y-41605743D01*
X151608955Y-41594106D01*
X151808571Y-41562491D01*
X151808578Y-41562489D01*
X151812918Y-41561802D01*
X151914514Y-41530741D01*
X152077322Y-41480965D01*
X152077327Y-41480963D01*
X152081540Y-41479675D01*
X152085529Y-41477815D01*
X152085534Y-41477813D01*
X152332126Y-41362826D01*
X152332132Y-41362823D01*
X152336118Y-41360964D01*
X152479558Y-41267813D01*
X152568002Y-41210377D01*
X152568006Y-41210374D01*
X152571697Y-41207977D01*
X152783692Y-41023692D01*
X152967977Y-40811697D01*
X153120964Y-40576118D01*
X153122823Y-40572132D01*
X153122826Y-40572126D01*
X153237813Y-40325534D01*
X153237815Y-40325529D01*
X153239675Y-40321540D01*
X153321802Y-40052918D01*
X153322489Y-40048578D01*
X153322491Y-40048571D01*
X153365185Y-39779003D01*
X153365185Y-39779002D01*
X153365743Y-39775480D01*
X153368500Y-39712337D01*
X153368499Y-36487664D01*
X153368499Y-36487663D01*
X159051500Y-36487663D01*
X159051501Y-39712336D01*
X159054257Y-39775480D01*
X159054815Y-39779002D01*
X159097509Y-40048571D01*
X159097511Y-40048578D01*
X159098198Y-40052918D01*
X159180325Y-40321540D01*
X159182185Y-40325529D01*
X159182187Y-40325534D01*
X159297174Y-40572126D01*
X159297177Y-40572132D01*
X159299036Y-40576118D01*
X159452023Y-40811697D01*
X159636308Y-41023692D01*
X159848303Y-41207977D01*
X159851994Y-41210374D01*
X159851998Y-41210377D01*
X159940442Y-41267813D01*
X160083882Y-41360964D01*
X160087868Y-41362823D01*
X160087874Y-41362826D01*
X160334466Y-41477813D01*
X160334471Y-41477815D01*
X160338460Y-41479675D01*
X160342673Y-41480963D01*
X160342678Y-41480965D01*
X160505486Y-41530741D01*
X160607082Y-41561802D01*
X160611422Y-41562489D01*
X160611429Y-41562491D01*
X160869709Y-41603397D01*
X160884520Y-41605743D01*
X160888081Y-41605898D01*
X160888086Y-41605899D01*
X160946287Y-41608440D01*
X160946291Y-41608440D01*
X160947663Y-41608500D01*
X162558829Y-41608500D01*
X164172336Y-41608499D01*
X164173705Y-41608439D01*
X164173716Y-41608439D01*
X164231914Y-41605899D01*
X164231920Y-41605898D01*
X164235480Y-41605743D01*
X164308955Y-41594106D01*
X164508571Y-41562491D01*
X164508578Y-41562489D01*
X164512918Y-41561802D01*
X164614514Y-41530741D01*
X164777322Y-41480965D01*
X164777327Y-41480963D01*
X164781540Y-41479675D01*
X164785529Y-41477815D01*
X164785534Y-41477813D01*
X165032126Y-41362826D01*
X165032132Y-41362823D01*
X165036118Y-41360964D01*
X165179558Y-41267813D01*
X165268002Y-41210377D01*
X165268006Y-41210374D01*
X165271697Y-41207977D01*
X165483692Y-41023692D01*
X165667977Y-40811697D01*
X165820964Y-40576118D01*
X165822823Y-40572132D01*
X165822826Y-40572126D01*
X165937813Y-40325534D01*
X165937815Y-40325529D01*
X165939675Y-40321540D01*
X166021802Y-40052918D01*
X166022489Y-40048578D01*
X166022491Y-40048571D01*
X166065185Y-39779003D01*
X166065185Y-39779002D01*
X166065743Y-39775480D01*
X166068500Y-39712337D01*
X166068499Y-36487664D01*
X166065743Y-36424520D01*
X166042484Y-36277663D01*
X171243500Y-36277663D01*
X171243501Y-39502336D01*
X171246257Y-39565480D01*
X171246815Y-39569002D01*
X171289509Y-39838571D01*
X171289511Y-39838578D01*
X171290198Y-39842918D01*
X171372325Y-40111540D01*
X171374185Y-40115529D01*
X171374187Y-40115534D01*
X171489174Y-40362126D01*
X171489177Y-40362132D01*
X171491036Y-40366118D01*
X171493437Y-40369815D01*
X171629813Y-40579815D01*
X171644023Y-40601697D01*
X171828308Y-40813692D01*
X172040303Y-40997977D01*
X172043994Y-41000374D01*
X172043998Y-41000377D01*
X172084335Y-41026572D01*
X172275882Y-41150964D01*
X172279868Y-41152823D01*
X172279874Y-41152826D01*
X172526466Y-41267813D01*
X172526471Y-41267815D01*
X172530460Y-41269675D01*
X172534673Y-41270963D01*
X172534678Y-41270965D01*
X172697486Y-41320741D01*
X172799082Y-41351802D01*
X172803422Y-41352489D01*
X172803429Y-41352491D01*
X173061709Y-41393397D01*
X173076520Y-41395743D01*
X173080081Y-41395898D01*
X173080086Y-41395899D01*
X173138287Y-41398440D01*
X173138291Y-41398440D01*
X173139663Y-41398500D01*
X174750829Y-41398500D01*
X176364336Y-41398499D01*
X176365705Y-41398439D01*
X176365716Y-41398439D01*
X176423914Y-41395899D01*
X176423920Y-41395898D01*
X176427480Y-41395743D01*
X176500955Y-41384106D01*
X176700571Y-41352491D01*
X176700578Y-41352489D01*
X176704918Y-41351802D01*
X176806514Y-41320741D01*
X176969322Y-41270965D01*
X176969327Y-41270963D01*
X176973540Y-41269675D01*
X176977529Y-41267815D01*
X176977534Y-41267813D01*
X177224126Y-41152826D01*
X177224132Y-41152823D01*
X177228118Y-41150964D01*
X177419665Y-41026572D01*
X177460002Y-41000377D01*
X177460006Y-41000374D01*
X177463697Y-40997977D01*
X177675692Y-40813692D01*
X177859977Y-40601697D01*
X177874188Y-40579815D01*
X178010563Y-40369815D01*
X178012964Y-40366118D01*
X178014823Y-40362132D01*
X178014826Y-40362126D01*
X178129813Y-40115534D01*
X178129815Y-40115529D01*
X178131675Y-40111540D01*
X178213802Y-39842918D01*
X178214489Y-39838578D01*
X178214491Y-39838571D01*
X178257185Y-39569003D01*
X178257185Y-39569002D01*
X178257743Y-39565480D01*
X178260500Y-39502337D01*
X178260499Y-36277664D01*
X178257743Y-36214520D01*
X178246106Y-36141045D01*
X178214491Y-35941429D01*
X178214489Y-35941422D01*
X178213802Y-35937082D01*
X178131675Y-35668460D01*
X178110888Y-35623882D01*
X178014826Y-35417874D01*
X178014823Y-35417868D01*
X178012964Y-35413882D01*
X177859977Y-35178303D01*
X177675692Y-34966308D01*
X177463697Y-34782023D01*
X177460006Y-34779626D01*
X177460002Y-34779623D01*
X177286360Y-34666859D01*
X177228118Y-34629036D01*
X177224132Y-34627177D01*
X177224126Y-34627174D01*
X176977534Y-34512187D01*
X176977529Y-34512185D01*
X176973540Y-34510325D01*
X176969327Y-34509037D01*
X176969322Y-34509035D01*
X176806514Y-34459259D01*
X176704918Y-34428198D01*
X176700578Y-34427511D01*
X176700571Y-34427509D01*
X176431003Y-34384815D01*
X176427480Y-34384257D01*
X176423919Y-34384102D01*
X176423914Y-34384101D01*
X176365713Y-34381560D01*
X176365709Y-34381560D01*
X176364337Y-34381500D01*
X175470494Y-34381500D01*
X175402373Y-34361498D01*
X175355880Y-34307842D01*
X175345776Y-34237568D01*
X175375270Y-34172988D01*
X175434996Y-34134604D01*
X175450785Y-34131051D01*
X175479097Y-34126567D01*
X175485537Y-34125198D01*
X175834328Y-34031740D01*
X175840605Y-34029700D01*
X176177714Y-33900296D01*
X176183725Y-33897620D01*
X176505468Y-33733683D01*
X176511177Y-33730387D01*
X176814009Y-33533725D01*
X176819346Y-33529848D01*
X176841403Y-33511987D01*
X176849868Y-33499733D01*
X176843534Y-33488641D01*
X174764812Y-31409919D01*
X174750868Y-31402305D01*
X174749035Y-31402436D01*
X174742420Y-31406687D01*
X172661332Y-33487775D01*
X172654191Y-33500851D01*
X172661648Y-33511218D01*
X172684654Y-33529848D01*
X172689991Y-33533725D01*
X172992823Y-33730387D01*
X172998532Y-33733683D01*
X173320275Y-33897620D01*
X173326286Y-33900296D01*
X173663395Y-34029700D01*
X173669672Y-34031740D01*
X174018463Y-34125198D01*
X174024898Y-34126566D01*
X174053220Y-34131052D01*
X174117373Y-34161465D01*
X174154900Y-34221733D01*
X174153886Y-34292723D01*
X174114653Y-34351894D01*
X174049657Y-34380462D01*
X174033513Y-34381501D01*
X173139664Y-34381501D01*
X173138295Y-34381561D01*
X173138284Y-34381561D01*
X173080086Y-34384101D01*
X173080080Y-34384102D01*
X173076520Y-34384257D01*
X173003045Y-34395894D01*
X172803429Y-34427509D01*
X172803422Y-34427511D01*
X172799082Y-34428198D01*
X172697486Y-34459259D01*
X172534678Y-34509035D01*
X172534673Y-34509037D01*
X172530460Y-34510325D01*
X172526471Y-34512185D01*
X172526466Y-34512187D01*
X172279874Y-34627174D01*
X172279868Y-34627177D01*
X172275882Y-34629036D01*
X172217640Y-34666859D01*
X172043998Y-34779623D01*
X172043994Y-34779626D01*
X172040303Y-34782023D01*
X171828308Y-34966308D01*
X171644023Y-35178303D01*
X171491036Y-35413882D01*
X171489177Y-35417868D01*
X171489174Y-35417874D01*
X171393112Y-35623882D01*
X171372325Y-35668460D01*
X171290198Y-35937082D01*
X171289511Y-35941422D01*
X171289509Y-35941429D01*
X171257605Y-36142870D01*
X171246257Y-36214520D01*
X171243500Y-36277663D01*
X166042484Y-36277663D01*
X166031925Y-36210997D01*
X166022491Y-36151429D01*
X166022489Y-36151422D01*
X166021802Y-36147082D01*
X165939675Y-35878460D01*
X165839889Y-35664466D01*
X165822826Y-35627874D01*
X165822823Y-35627868D01*
X165820964Y-35623882D01*
X165687181Y-35417874D01*
X165670377Y-35391998D01*
X165670374Y-35391994D01*
X165667977Y-35388303D01*
X165483692Y-35176308D01*
X165271697Y-34992023D01*
X165268006Y-34989626D01*
X165268002Y-34989623D01*
X165039815Y-34841437D01*
X165036118Y-34839036D01*
X165032132Y-34837177D01*
X165032126Y-34837174D01*
X164785534Y-34722187D01*
X164785529Y-34722185D01*
X164781540Y-34720325D01*
X164777327Y-34719037D01*
X164777322Y-34719035D01*
X164614514Y-34669259D01*
X164512918Y-34638198D01*
X164508578Y-34637511D01*
X164508571Y-34637509D01*
X164239003Y-34594815D01*
X164235480Y-34594257D01*
X164231919Y-34594102D01*
X164231914Y-34594101D01*
X164173713Y-34591560D01*
X164173709Y-34591560D01*
X164172337Y-34591500D01*
X163278494Y-34591500D01*
X163210373Y-34571498D01*
X163163880Y-34517842D01*
X163153776Y-34447568D01*
X163183270Y-34382988D01*
X163242996Y-34344604D01*
X163258785Y-34341051D01*
X163287097Y-34336567D01*
X163293537Y-34335198D01*
X163642328Y-34241740D01*
X163648605Y-34239700D01*
X163985714Y-34110296D01*
X163991725Y-34107620D01*
X164313468Y-33943683D01*
X164319177Y-33940387D01*
X164622009Y-33743725D01*
X164627346Y-33739848D01*
X164649403Y-33721987D01*
X164657868Y-33709733D01*
X164651534Y-33698641D01*
X162572812Y-31619919D01*
X162558868Y-31612305D01*
X162557035Y-31612436D01*
X162550420Y-31616687D01*
X160469332Y-33697775D01*
X160462191Y-33710851D01*
X160469648Y-33721218D01*
X160492654Y-33739848D01*
X160497991Y-33743725D01*
X160800823Y-33940387D01*
X160806532Y-33943683D01*
X161128275Y-34107620D01*
X161134286Y-34110296D01*
X161471395Y-34239700D01*
X161477672Y-34241740D01*
X161826463Y-34335198D01*
X161832898Y-34336566D01*
X161861220Y-34341052D01*
X161925373Y-34371465D01*
X161962900Y-34431733D01*
X161961886Y-34502723D01*
X161922653Y-34561894D01*
X161857657Y-34590462D01*
X161841513Y-34591501D01*
X160947664Y-34591501D01*
X160946295Y-34591561D01*
X160946284Y-34591561D01*
X160888086Y-34594101D01*
X160888080Y-34594102D01*
X160884520Y-34594257D01*
X160811045Y-34605894D01*
X160611429Y-34637509D01*
X160611422Y-34637511D01*
X160607082Y-34638198D01*
X160505486Y-34669259D01*
X160342678Y-34719035D01*
X160342673Y-34719037D01*
X160338460Y-34720325D01*
X160334471Y-34722185D01*
X160334466Y-34722187D01*
X160087874Y-34837174D01*
X160087868Y-34837177D01*
X160083882Y-34839036D01*
X160080185Y-34841437D01*
X159851998Y-34989623D01*
X159851994Y-34989626D01*
X159848303Y-34992023D01*
X159636308Y-35176308D01*
X159452023Y-35388303D01*
X159449626Y-35391994D01*
X159449623Y-35391998D01*
X159432819Y-35417874D01*
X159299036Y-35623882D01*
X159297177Y-35627868D01*
X159297174Y-35627874D01*
X159280111Y-35664466D01*
X159180325Y-35878460D01*
X159098198Y-36147082D01*
X159097511Y-36151422D01*
X159097509Y-36151429D01*
X159088075Y-36210997D01*
X159054257Y-36424520D01*
X159051500Y-36487663D01*
X153368499Y-36487663D01*
X153365743Y-36424520D01*
X153331925Y-36210997D01*
X153322491Y-36151429D01*
X153322489Y-36151422D01*
X153321802Y-36147082D01*
X153239675Y-35878460D01*
X153139889Y-35664466D01*
X153122826Y-35627874D01*
X153122823Y-35627868D01*
X153120964Y-35623882D01*
X152987181Y-35417874D01*
X152970377Y-35391998D01*
X152970374Y-35391994D01*
X152967977Y-35388303D01*
X152783692Y-35176308D01*
X152571697Y-34992023D01*
X152568006Y-34989626D01*
X152568002Y-34989623D01*
X152339815Y-34841437D01*
X152336118Y-34839036D01*
X152332132Y-34837177D01*
X152332126Y-34837174D01*
X152085534Y-34722187D01*
X152085529Y-34722185D01*
X152081540Y-34720325D01*
X152077327Y-34719037D01*
X152077322Y-34719035D01*
X151914514Y-34669259D01*
X151812918Y-34638198D01*
X151808578Y-34637511D01*
X151808571Y-34637509D01*
X151539003Y-34594815D01*
X151535480Y-34594257D01*
X151531919Y-34594102D01*
X151531914Y-34594101D01*
X151473713Y-34591560D01*
X151473709Y-34591560D01*
X151472337Y-34591500D01*
X150578494Y-34591500D01*
X150510373Y-34571498D01*
X150463880Y-34517842D01*
X150453776Y-34447568D01*
X150483270Y-34382988D01*
X150542996Y-34344604D01*
X150558785Y-34341051D01*
X150587097Y-34336567D01*
X150593537Y-34335198D01*
X150942328Y-34241740D01*
X150948605Y-34239700D01*
X151285714Y-34110296D01*
X151291725Y-34107620D01*
X151613468Y-33943683D01*
X151619177Y-33940387D01*
X151922009Y-33743725D01*
X151927346Y-33739848D01*
X151949403Y-33721987D01*
X151957868Y-33709733D01*
X151951534Y-33698641D01*
X149872812Y-31619919D01*
X149858868Y-31612305D01*
X149857035Y-31612436D01*
X149850420Y-31616687D01*
X147769332Y-33697775D01*
X147762191Y-33710851D01*
X147769648Y-33721218D01*
X147792654Y-33739848D01*
X147797991Y-33743725D01*
X148100823Y-33940387D01*
X148106532Y-33943683D01*
X148428275Y-34107620D01*
X148434286Y-34110296D01*
X148771395Y-34239700D01*
X148777672Y-34241740D01*
X149126463Y-34335198D01*
X149132898Y-34336566D01*
X149161220Y-34341052D01*
X149225373Y-34371465D01*
X149262900Y-34431733D01*
X149261886Y-34502723D01*
X149222653Y-34561894D01*
X149157657Y-34590462D01*
X149141513Y-34591501D01*
X148247664Y-34591501D01*
X148246295Y-34591561D01*
X148246284Y-34591561D01*
X148188086Y-34594101D01*
X148188080Y-34594102D01*
X148184520Y-34594257D01*
X148111045Y-34605894D01*
X147911429Y-34637509D01*
X147911422Y-34637511D01*
X147907082Y-34638198D01*
X147805486Y-34669259D01*
X147642678Y-34719035D01*
X147642673Y-34719037D01*
X147638460Y-34720325D01*
X147634471Y-34722185D01*
X147634466Y-34722187D01*
X147387874Y-34837174D01*
X147387868Y-34837177D01*
X147383882Y-34839036D01*
X147380185Y-34841437D01*
X147151998Y-34989623D01*
X147151994Y-34989626D01*
X147148303Y-34992023D01*
X146936308Y-35176308D01*
X146752023Y-35388303D01*
X146749626Y-35391994D01*
X146749623Y-35391998D01*
X146732819Y-35417874D01*
X146599036Y-35623882D01*
X146597177Y-35627868D01*
X146597174Y-35627874D01*
X146580111Y-35664466D01*
X146480325Y-35878460D01*
X146398198Y-36147082D01*
X146397511Y-36151422D01*
X146397509Y-36151429D01*
X146388075Y-36210997D01*
X146354257Y-36424520D01*
X146351500Y-36487663D01*
X135382500Y-36487663D01*
X135382500Y-30612703D01*
X137590743Y-30612703D01*
X137591302Y-30616947D01*
X137591302Y-30616951D01*
X137602606Y-30702812D01*
X137628268Y-30897734D01*
X137704129Y-31175036D01*
X137705813Y-31178984D01*
X137744823Y-31270440D01*
X137816923Y-31439476D01*
X137828693Y-31459142D01*
X137922982Y-31616687D01*
X137964561Y-31686161D01*
X138144313Y-31910528D01*
X138352851Y-32108423D01*
X138586317Y-32276186D01*
X138590112Y-32278195D01*
X138590113Y-32278196D01*
X138611869Y-32289715D01*
X138840392Y-32410712D01*
X139110373Y-32509511D01*
X139391264Y-32570755D01*
X139419841Y-32573004D01*
X139614282Y-32588307D01*
X139614291Y-32588307D01*
X139616739Y-32588500D01*
X139772271Y-32588500D01*
X139774407Y-32588354D01*
X139774418Y-32588354D01*
X139982548Y-32574165D01*
X139982554Y-32574164D01*
X139986825Y-32573873D01*
X139991020Y-32573004D01*
X139991022Y-32573004D01*
X140127583Y-32544724D01*
X140268342Y-32515574D01*
X140539343Y-32419607D01*
X140794812Y-32287750D01*
X140798313Y-32285289D01*
X140798317Y-32285287D01*
X140912418Y-32205095D01*
X141030023Y-32122441D01*
X141108403Y-32049606D01*
X141237479Y-31929661D01*
X141237481Y-31929658D01*
X141240622Y-31926740D01*
X141422713Y-31704268D01*
X141572927Y-31459142D01*
X141588557Y-31423537D01*
X141686757Y-31199830D01*
X141688483Y-31195898D01*
X141767244Y-30919406D01*
X141769536Y-30903301D01*
X146347359Y-30903301D01*
X146366257Y-31263896D01*
X146366945Y-31270440D01*
X146423433Y-31627099D01*
X146424802Y-31633537D01*
X146518260Y-31982328D01*
X146520300Y-31988605D01*
X146649704Y-32325714D01*
X146652380Y-32331725D01*
X146816317Y-32653468D01*
X146819613Y-32659177D01*
X147016275Y-32962009D01*
X147020152Y-32967346D01*
X147038013Y-32989403D01*
X147050267Y-32997868D01*
X147061359Y-32991534D01*
X149140081Y-30912812D01*
X149146459Y-30901132D01*
X150572305Y-30901132D01*
X150572436Y-30902965D01*
X150576687Y-30909580D01*
X152657775Y-32990668D01*
X152670851Y-32997809D01*
X152681218Y-32990352D01*
X152699848Y-32967346D01*
X152703725Y-32962009D01*
X152900387Y-32659177D01*
X152903683Y-32653468D01*
X153067620Y-32331725D01*
X153070296Y-32325714D01*
X153199700Y-31988605D01*
X153201740Y-31982328D01*
X153295198Y-31633537D01*
X153296567Y-31627099D01*
X153353055Y-31270440D01*
X153353743Y-31263896D01*
X153372641Y-30903301D01*
X159047359Y-30903301D01*
X159066257Y-31263896D01*
X159066945Y-31270440D01*
X159123433Y-31627099D01*
X159124802Y-31633537D01*
X159218260Y-31982328D01*
X159220300Y-31988605D01*
X159349704Y-32325714D01*
X159352380Y-32331725D01*
X159516317Y-32653468D01*
X159519613Y-32659177D01*
X159716275Y-32962009D01*
X159720152Y-32967346D01*
X159738013Y-32989403D01*
X159750267Y-32997868D01*
X159761359Y-32991534D01*
X161840081Y-30912812D01*
X161846459Y-30901132D01*
X163272305Y-30901132D01*
X163272436Y-30902965D01*
X163276687Y-30909580D01*
X165357775Y-32990668D01*
X165370851Y-32997809D01*
X165381218Y-32990352D01*
X165399848Y-32967346D01*
X165403725Y-32962009D01*
X165600387Y-32659177D01*
X165603683Y-32653468D01*
X165767620Y-32331725D01*
X165770296Y-32325714D01*
X165899700Y-31988605D01*
X165901740Y-31982328D01*
X165995198Y-31633537D01*
X165996567Y-31627099D01*
X166053055Y-31270440D01*
X166053743Y-31263896D01*
X166072641Y-30903301D01*
X166072641Y-30896699D01*
X166061981Y-30693301D01*
X171239359Y-30693301D01*
X171258257Y-31053896D01*
X171258945Y-31060440D01*
X171315433Y-31417099D01*
X171316802Y-31423537D01*
X171410260Y-31772328D01*
X171412300Y-31778605D01*
X171541704Y-32115714D01*
X171544380Y-32121725D01*
X171708317Y-32443468D01*
X171711613Y-32449177D01*
X171908275Y-32752009D01*
X171912152Y-32757346D01*
X171930013Y-32779403D01*
X171942267Y-32787868D01*
X171953359Y-32781534D01*
X174032081Y-30702812D01*
X174038459Y-30691132D01*
X175464305Y-30691132D01*
X175464436Y-30692965D01*
X175468687Y-30699580D01*
X177549775Y-32780668D01*
X177562851Y-32787809D01*
X177573218Y-32780352D01*
X177591848Y-32757346D01*
X177595725Y-32752009D01*
X177792387Y-32449177D01*
X177795683Y-32443468D01*
X177959620Y-32121725D01*
X177962296Y-32115714D01*
X178091700Y-31778605D01*
X178093740Y-31772328D01*
X178187198Y-31423537D01*
X178188567Y-31417099D01*
X178245055Y-31060440D01*
X178245743Y-31053896D01*
X178264641Y-30693301D01*
X178264641Y-30686699D01*
X178260763Y-30612703D01*
X183310743Y-30612703D01*
X183311302Y-30616947D01*
X183311302Y-30616951D01*
X183322606Y-30702812D01*
X183348268Y-30897734D01*
X183424129Y-31175036D01*
X183425813Y-31178984D01*
X183464823Y-31270440D01*
X183536923Y-31439476D01*
X183548693Y-31459142D01*
X183642982Y-31616687D01*
X183684561Y-31686161D01*
X183864313Y-31910528D01*
X184072851Y-32108423D01*
X184306317Y-32276186D01*
X184310112Y-32278195D01*
X184310113Y-32278196D01*
X184331869Y-32289715D01*
X184560392Y-32410712D01*
X184830373Y-32509511D01*
X185111264Y-32570755D01*
X185139841Y-32573004D01*
X185334282Y-32588307D01*
X185334291Y-32588307D01*
X185336739Y-32588500D01*
X185492271Y-32588500D01*
X185494407Y-32588354D01*
X185494418Y-32588354D01*
X185702548Y-32574165D01*
X185702554Y-32574164D01*
X185706825Y-32573873D01*
X185711020Y-32573004D01*
X185711022Y-32573004D01*
X185847583Y-32544724D01*
X185988342Y-32515574D01*
X186259343Y-32419607D01*
X186514812Y-32287750D01*
X186518313Y-32285289D01*
X186518317Y-32285287D01*
X186632418Y-32205095D01*
X186750023Y-32122441D01*
X186828403Y-32049606D01*
X186957479Y-31929661D01*
X186957481Y-31929658D01*
X186960622Y-31926740D01*
X187142713Y-31704268D01*
X187292927Y-31459142D01*
X187308557Y-31423537D01*
X187406757Y-31199830D01*
X187408483Y-31195898D01*
X187487244Y-30919406D01*
X187527751Y-30634784D01*
X187527845Y-30616951D01*
X187529235Y-30351583D01*
X187529235Y-30351576D01*
X187529257Y-30347297D01*
X187525606Y-30319560D01*
X187492292Y-30066522D01*
X187491732Y-30062266D01*
X187415871Y-29784964D01*
X187303077Y-29520524D01*
X187155439Y-29273839D01*
X186975687Y-29049472D01*
X186767149Y-28851577D01*
X186533683Y-28683814D01*
X186511843Y-28672250D01*
X186418172Y-28622654D01*
X186279608Y-28549288D01*
X186009627Y-28450489D01*
X185728736Y-28389245D01*
X185697685Y-28386801D01*
X185505718Y-28371693D01*
X185505709Y-28371693D01*
X185503261Y-28371500D01*
X185347729Y-28371500D01*
X185345593Y-28371646D01*
X185345582Y-28371646D01*
X185137452Y-28385835D01*
X185137446Y-28385836D01*
X185133175Y-28386127D01*
X185128980Y-28386996D01*
X185128978Y-28386996D01*
X184992416Y-28415277D01*
X184851658Y-28444426D01*
X184580657Y-28540393D01*
X184325188Y-28672250D01*
X184321687Y-28674711D01*
X184321683Y-28674713D01*
X184311594Y-28681804D01*
X184089977Y-28837559D01*
X184074892Y-28851577D01*
X183983470Y-28936532D01*
X183879378Y-29033260D01*
X183697287Y-29255732D01*
X183547073Y-29500858D01*
X183431517Y-29764102D01*
X183352756Y-30040594D01*
X183312249Y-30325216D01*
X183312227Y-30329505D01*
X183312226Y-30329512D01*
X183311144Y-30536104D01*
X183310743Y-30612703D01*
X178260763Y-30612703D01*
X178245743Y-30326104D01*
X178245055Y-30319560D01*
X178188567Y-29962901D01*
X178187198Y-29956463D01*
X178093740Y-29607672D01*
X178091700Y-29601395D01*
X177962296Y-29264286D01*
X177959620Y-29258275D01*
X177795683Y-28936532D01*
X177792387Y-28930823D01*
X177595725Y-28627991D01*
X177591848Y-28622654D01*
X177573987Y-28600597D01*
X177561733Y-28592132D01*
X177550641Y-28598466D01*
X175471919Y-30677188D01*
X175464305Y-30691132D01*
X174038459Y-30691132D01*
X174039695Y-30688868D01*
X174039564Y-30687035D01*
X174035313Y-30680420D01*
X171954225Y-28599332D01*
X171941149Y-28592191D01*
X171930782Y-28599648D01*
X171912152Y-28622654D01*
X171908275Y-28627991D01*
X171711613Y-28930823D01*
X171708317Y-28936532D01*
X171544380Y-29258275D01*
X171541704Y-29264286D01*
X171412300Y-29601395D01*
X171410260Y-29607672D01*
X171316802Y-29956463D01*
X171315433Y-29962901D01*
X171258945Y-30319560D01*
X171258257Y-30326104D01*
X171239359Y-30686699D01*
X171239359Y-30693301D01*
X166061981Y-30693301D01*
X166053743Y-30536104D01*
X166053055Y-30529560D01*
X165996567Y-30172901D01*
X165995198Y-30166463D01*
X165901740Y-29817672D01*
X165899700Y-29811395D01*
X165770296Y-29474286D01*
X165767620Y-29468275D01*
X165603683Y-29146532D01*
X165600387Y-29140823D01*
X165403725Y-28837991D01*
X165399848Y-28832654D01*
X165381987Y-28810597D01*
X165369733Y-28802132D01*
X165358641Y-28808466D01*
X163279919Y-30887188D01*
X163272305Y-30901132D01*
X161846459Y-30901132D01*
X161847695Y-30898868D01*
X161847564Y-30897035D01*
X161843313Y-30890420D01*
X159762225Y-28809332D01*
X159749149Y-28802191D01*
X159738782Y-28809648D01*
X159720152Y-28832654D01*
X159716275Y-28837991D01*
X159519613Y-29140823D01*
X159516317Y-29146532D01*
X159352380Y-29468275D01*
X159349704Y-29474286D01*
X159220300Y-29811395D01*
X159218260Y-29817672D01*
X159124802Y-30166463D01*
X159123433Y-30172901D01*
X159066945Y-30529560D01*
X159066257Y-30536104D01*
X159047359Y-30896699D01*
X159047359Y-30903301D01*
X153372641Y-30903301D01*
X153372641Y-30896699D01*
X153353743Y-30536104D01*
X153353055Y-30529560D01*
X153296567Y-30172901D01*
X153295198Y-30166463D01*
X153201740Y-29817672D01*
X153199700Y-29811395D01*
X153070296Y-29474286D01*
X153067620Y-29468275D01*
X152903683Y-29146532D01*
X152900387Y-29140823D01*
X152703725Y-28837991D01*
X152699848Y-28832654D01*
X152681987Y-28810597D01*
X152669733Y-28802132D01*
X152658641Y-28808466D01*
X150579919Y-30887188D01*
X150572305Y-30901132D01*
X149146459Y-30901132D01*
X149147695Y-30898868D01*
X149147564Y-30897035D01*
X149143313Y-30890420D01*
X147062225Y-28809332D01*
X147049149Y-28802191D01*
X147038782Y-28809648D01*
X147020152Y-28832654D01*
X147016275Y-28837991D01*
X146819613Y-29140823D01*
X146816317Y-29146532D01*
X146652380Y-29468275D01*
X146649704Y-29474286D01*
X146520300Y-29811395D01*
X146518260Y-29817672D01*
X146424802Y-30166463D01*
X146423433Y-30172901D01*
X146366945Y-30529560D01*
X146366257Y-30536104D01*
X146347359Y-30896699D01*
X146347359Y-30903301D01*
X141769536Y-30903301D01*
X141807751Y-30634784D01*
X141807845Y-30616951D01*
X141809235Y-30351583D01*
X141809235Y-30351576D01*
X141809257Y-30347297D01*
X141805606Y-30319560D01*
X141772292Y-30066522D01*
X141771732Y-30062266D01*
X141695871Y-29784964D01*
X141583077Y-29520524D01*
X141435439Y-29273839D01*
X141255687Y-29049472D01*
X141047149Y-28851577D01*
X140813683Y-28683814D01*
X140791843Y-28672250D01*
X140698172Y-28622654D01*
X140559608Y-28549288D01*
X140289627Y-28450489D01*
X140008736Y-28389245D01*
X139977685Y-28386801D01*
X139785718Y-28371693D01*
X139785709Y-28371693D01*
X139783261Y-28371500D01*
X139627729Y-28371500D01*
X139625593Y-28371646D01*
X139625582Y-28371646D01*
X139417452Y-28385835D01*
X139417446Y-28385836D01*
X139413175Y-28386127D01*
X139408980Y-28386996D01*
X139408978Y-28386996D01*
X139272416Y-28415277D01*
X139131658Y-28444426D01*
X138860657Y-28540393D01*
X138605188Y-28672250D01*
X138601687Y-28674711D01*
X138601683Y-28674713D01*
X138591594Y-28681804D01*
X138369977Y-28837559D01*
X138354892Y-28851577D01*
X138263470Y-28936532D01*
X138159378Y-29033260D01*
X137977287Y-29255732D01*
X137827073Y-29500858D01*
X137711517Y-29764102D01*
X137632756Y-30040594D01*
X137592249Y-30325216D01*
X137592227Y-30329505D01*
X137592226Y-30329512D01*
X137591144Y-30536104D01*
X137590743Y-30612703D01*
X135382500Y-30612703D01*
X135382500Y-28090267D01*
X147762132Y-28090267D01*
X147768466Y-28101359D01*
X149847188Y-30180081D01*
X149861132Y-30187695D01*
X149862965Y-30187564D01*
X149869580Y-30183313D01*
X151950668Y-28102225D01*
X151957198Y-28090267D01*
X160462132Y-28090267D01*
X160468466Y-28101359D01*
X162547188Y-30180081D01*
X162561132Y-30187695D01*
X162562965Y-30187564D01*
X162569580Y-30183313D01*
X164650668Y-28102225D01*
X164657809Y-28089149D01*
X164650352Y-28078782D01*
X164627346Y-28060152D01*
X164622009Y-28056275D01*
X164350981Y-27880267D01*
X172654132Y-27880267D01*
X172660466Y-27891359D01*
X174739188Y-29970081D01*
X174753132Y-29977695D01*
X174754965Y-29977564D01*
X174761580Y-29973313D01*
X176842668Y-27892225D01*
X176849809Y-27879149D01*
X176842352Y-27868782D01*
X176819346Y-27850152D01*
X176814009Y-27846275D01*
X176511177Y-27649613D01*
X176505468Y-27646317D01*
X176183725Y-27482380D01*
X176177714Y-27479704D01*
X175840605Y-27350300D01*
X175834328Y-27348260D01*
X175485537Y-27254802D01*
X175479099Y-27253433D01*
X175122440Y-27196945D01*
X175115896Y-27196257D01*
X174755301Y-27177359D01*
X174748699Y-27177359D01*
X174388104Y-27196257D01*
X174381560Y-27196945D01*
X174024901Y-27253433D01*
X174018463Y-27254802D01*
X173669672Y-27348260D01*
X173663395Y-27350300D01*
X173326286Y-27479704D01*
X173320275Y-27482380D01*
X172998532Y-27646317D01*
X172992823Y-27649613D01*
X172689991Y-27846275D01*
X172684654Y-27850152D01*
X172662597Y-27868013D01*
X172654132Y-27880267D01*
X164350981Y-27880267D01*
X164319177Y-27859613D01*
X164313468Y-27856317D01*
X163991725Y-27692380D01*
X163985714Y-27689704D01*
X163648605Y-27560300D01*
X163642328Y-27558260D01*
X163293537Y-27464802D01*
X163287099Y-27463433D01*
X162930440Y-27406945D01*
X162923896Y-27406257D01*
X162563301Y-27387359D01*
X162556699Y-27387359D01*
X162196104Y-27406257D01*
X162189560Y-27406945D01*
X161832901Y-27463433D01*
X161826463Y-27464802D01*
X161477672Y-27558260D01*
X161471395Y-27560300D01*
X161134286Y-27689704D01*
X161128275Y-27692380D01*
X160806532Y-27856317D01*
X160800823Y-27859613D01*
X160497991Y-28056275D01*
X160492654Y-28060152D01*
X160470597Y-28078013D01*
X160462132Y-28090267D01*
X151957198Y-28090267D01*
X151957809Y-28089149D01*
X151950352Y-28078782D01*
X151927346Y-28060152D01*
X151922009Y-28056275D01*
X151619177Y-27859613D01*
X151613468Y-27856317D01*
X151291725Y-27692380D01*
X151285714Y-27689704D01*
X150948605Y-27560300D01*
X150942328Y-27558260D01*
X150593537Y-27464802D01*
X150587099Y-27463433D01*
X150230440Y-27406945D01*
X150223896Y-27406257D01*
X149863301Y-27387359D01*
X149856699Y-27387359D01*
X149496104Y-27406257D01*
X149489560Y-27406945D01*
X149132901Y-27463433D01*
X149126463Y-27464802D01*
X148777672Y-27558260D01*
X148771395Y-27560300D01*
X148434286Y-27689704D01*
X148428275Y-27692380D01*
X148106532Y-27856317D01*
X148100823Y-27859613D01*
X147797991Y-28056275D01*
X147792654Y-28060152D01*
X147770597Y-28078013D01*
X147762132Y-28090267D01*
X135382500Y-28090267D01*
X135382500Y-26288500D01*
X135402502Y-26220379D01*
X135456158Y-26173886D01*
X135508500Y-26162500D01*
X189865500Y-26162500D01*
X189933621Y-26182502D01*
G37*
G04 #@! TD.AperFunction*
M02*
